<svg width="44" height="44" viewBox="0 0 44 44" fill="none" xmlns="http://www.w3.org/2000/svg">
<g filter="url(#filter0_b_1_12054)">
<g clip-path="url(#clip0_1_12054)">
<rect x="2" y="2" width="39.4555" height="39.4555" rx="7.89117" fill="black"/>
<g clip-path="url(#clip1_1_12054)">
<path d="M28.7917 17.2875H26.4782C26.2109 17.2875 25.9544 17.1734 25.7744 16.9723L24.8359 15.918C24.6941 15.7604 24.4976 15.668 24.2848 15.668C24.072 15.668 23.8756 15.7604 23.7338 15.918L22.9262 16.8256C22.6643 17.119 22.2824 17.2929 21.8895 17.2929H9.22557C8.86546 18.3092 8.63084 19.3907 8.53809 20.5157H20.4927C20.7055 20.5157 20.902 20.4288 21.0493 20.2766L22.1624 19.119C22.2988 18.9723 22.4952 18.8908 22.6916 18.8908H22.7353C22.9481 18.8908 23.1445 18.9831 23.2863 19.1407L24.2248 20.1951C24.4049 20.3962 24.6613 20.5103 24.9287 20.5103H34.6845C34.5917 19.3907 34.3571 18.3038 33.997 17.2821L28.7917 17.2875Z" fill="white"/>
<path d="M15.7737 27.2988C15.9865 27.2988 16.1829 27.2118 16.3302 27.0596L17.4433 25.902C17.5852 25.7553 17.7761 25.6738 17.978 25.6738H18.0217C18.2345 25.6738 18.4363 25.7662 18.5727 25.9183L19.5112 26.9727C19.6913 27.1738 19.9477 27.2879 20.2151 27.2879H33.441C33.9376 26.2662 34.2977 25.1738 34.5159 24.0271H21.8192C21.5519 24.0271 21.2954 23.9129 21.1154 23.7119L20.1769 22.6684C20.035 22.5108 19.8386 22.4238 19.6258 22.4238C19.413 22.4238 19.2111 22.5162 19.0747 22.6684L18.2672 23.576C18.0053 23.8749 17.6234 24.0434 17.225 24.0434H8.71875C8.937 25.1901 9.29711 26.2825 9.79363 27.3042L15.7737 27.2988Z" fill="white"/>
<path d="M25.1526 13.7618C25.3654 13.7618 25.5618 13.6749 25.7092 13.5227L26.8222 12.3651C26.9586 12.2184 27.1551 12.1368 27.357 12.1368H27.4006C27.6134 12.1368 27.8098 12.2292 27.9517 12.3868L28.8902 13.4466C29.0702 13.6477 29.3267 13.7618 29.594 13.7618H32.1093C29.7141 10.5879 25.9056 8.53906 21.617 8.53906C17.3284 8.53906 13.5144 10.5879 11.1191 13.7618H25.1526Z" fill="white"/>
<path d="M20.1067 30.534H16.6692C16.4019 30.534 16.1454 30.4199 15.9654 30.2188L15.0269 29.1645C14.885 29.0069 14.6886 28.9199 14.4758 28.9199C14.263 28.9199 14.0611 29.0123 13.9247 29.1645L13.1172 30.0721C12.8553 30.371 12.4734 30.5395 12.0751 30.5395H12.0205C14.4158 33.0938 17.826 34.697 21.6181 34.697C25.4102 34.697 28.8149 33.0938 31.2156 30.5395L20.1067 30.534Z" fill="white"/>
</g>
</g>
<rect x="1" y="1" width="41.4555" height="41.4555" rx="8.89117" stroke="white" stroke-width="2"/>
</g>
<defs>
<filter id="filter0_b_1_12054" x="-4.93194" y="-4.93194" width="53.319" height="53.319" filterUnits="userSpaceOnUse" color-interpolation-filters="sRGB">
<feFlood flood-opacity="0" result="BackgroundImageFix"/>
<feGaussianBlur in="BackgroundImageFix" stdDeviation="2.46597"/>
<feComposite in2="SourceAlpha" operator="in" result="effect1_backgroundBlur_1_12054"/>
<feBlend mode="normal" in="SourceGraphic" in2="effect1_backgroundBlur_1_12054" result="shape"/>
</filter>
<clipPath id="clip0_1_12054">
<rect x="2" y="2" width="39.4555" height="39.4555" rx="7.89117" fill="white"/>
</clipPath>
<clipPath id="clip1_1_12054">
<rect width="26.1518" height="26.1518" fill="white" transform="translate(8.53809 8.53906)"/>
</clipPath>
</defs>
</svg>
