<svg width="44" height="44" viewBox="0 0 44 44" fill="none" xmlns="http://www.w3.org/2000/svg">
<g filter="url(#filter0_b_1_12027)">
<g clip-path="url(#clip0_1_12027)">
<rect x="2" y="2" width="40" height="40" rx="8.00007" fill="#E84142"/>
<path fill-rule="evenodd" clip-rule="evenodd" d="M13.0545 29.5517H16.9643C17.6582 29.5517 18.0052 29.5517 18.3177 29.4588C18.6578 29.3576 18.969 29.1771 19.2256 28.9321C19.4614 28.7072 19.6334 28.4061 19.9775 27.8041L25.0965 18.8489C25.4358 18.2556 25.6054 17.9588 25.6798 17.6459C25.7607 17.3053 25.7606 16.9505 25.6793 16.6099C25.6046 16.2971 25.4348 16.0005 25.0951 15.4075L25.0951 15.4074L23.1207 11.9603L23.1205 11.96C22.6536 11.1446 22.4201 10.7369 22.1234 10.5855C21.803 10.4218 21.4232 10.4221 21.103 10.5862C20.8066 10.7381 20.5736 11.1463 20.1077 11.9625L11.5473 26.9594L11.5471 26.9597C11.088 27.764 10.8584 28.1662 10.877 28.4961C10.8971 28.8526 11.0863 29.1782 11.3863 29.3721C11.6639 29.5517 12.1275 29.5517 13.0545 29.5517ZM26.3804 29.5517H30.9134C31.8503 29.5517 32.3187 29.5517 32.5972 29.3704C32.8982 29.1744 33.0868 28.8461 33.1043 28.4876C33.1204 28.1558 32.8841 27.7517 32.4115 26.9436L30.1413 23.0616L30.1412 23.0613L30.1407 23.0605C29.6751 22.2644 29.4423 21.8662 29.1478 21.7174C28.8295 21.5565 28.4535 21.5567 28.1354 21.7181C27.8412 21.8675 27.6088 22.2662 27.1439 23.0636L24.8811 26.9457C24.4104 27.7534 24.175 28.1573 24.1914 28.4888C24.2092 28.8469 24.3979 29.1749 24.6988 29.3706C24.9773 29.5517 25.445 29.5517 26.3804 29.5517Z" fill="white"/>
</g>
<rect x="1" y="1" width="42" height="42" rx="9.00007" stroke="white" stroke-width="2"/>
</g>
<defs>
<filter id="filter0_b_1_12027" x="-5" y="-5" width="54" height="54" filterUnits="userSpaceOnUse" color-interpolation-filters="sRGB">
<feFlood flood-opacity="0" result="BackgroundImageFix"/>
<feGaussianBlur in="BackgroundImageFix" stdDeviation="2.5"/>
<feComposite in2="SourceAlpha" operator="in" result="effect1_backgroundBlur_1_12027"/>
<feBlend mode="normal" in="SourceGraphic" in2="effect1_backgroundBlur_1_12027" result="shape"/>
</filter>
<clipPath id="clip0_1_12027">
<rect x="2" y="2" width="40" height="40" rx="8.00007" fill="white"/>
</clipPath>
</defs>
</svg>
