<svg width="44" height="44" viewBox="0 0 44 44" fill="none" xmlns="http://www.w3.org/2000/svg">
<g filter="url(#filter0_b_1_11985)">
<g clip-path="url(#clip0_1_11985)">
<rect x="2" y="2" width="40" height="40" rx="8.00007" fill="#F0B90B"/>
<g clip-path="url(#clip1_1_11985)">
<path d="M17.7966 13.4201L21.9279 11.0798C21.9863 11.0466 22.044 11.0473 22.101 11.0818L26.5747 13.7226C26.6344 13.7584 26.6947 13.7584 26.7558 13.7226L29.2851 12.2499C29.366 12.2035 29.3667 12.1564 29.2871 12.1086L22.0951 7.86188C22.0274 7.82208 21.9604 7.82208 21.8941 7.86188L14.7 12.1126C14.6897 12.1186 14.6811 12.1271 14.6751 12.1374C14.6692 12.1477 14.666 12.1594 14.666 12.1713C14.666 12.1832 14.6692 12.195 14.6751 12.2053C14.6811 12.2156 14.6897 12.2241 14.7 12.23L17.2553 13.7385C17.2746 13.7501 17.2967 13.7563 17.3194 13.7567C17.3421 13.757 17.3646 13.7514 17.3846 13.7405C17.4695 13.6941 17.5432 13.635 17.6055 13.5634C17.6466 13.5169 17.7103 13.4692 17.7966 13.4201Z" stroke="#F8DC85" stroke-width="0.39801"/>
<path d="M23.06 15.8885C23.5947 15.6563 24.1061 15.3478 24.5944 14.9631C24.6567 14.9153 24.6541 14.8709 24.5864 14.8298L22.0451 13.3133C22.0013 13.2881 21.9582 13.2888 21.9158 13.3153L19.4043 14.8278C19.342 14.8662 19.3393 14.908 19.3964 14.9531C20.1088 15.5183 20.66 15.8798 21.0501 16.0377C21.4441 16.1983 21.736 16.3415 21.9257 16.4676C21.9774 16.5034 22.0312 16.5047 22.0869 16.4716C22.2381 16.3813 22.3828 16.2878 22.5207 16.191C22.6879 16.0716 22.8677 15.9707 23.06 15.8885Z" stroke="#F8DC85" stroke-width="0.39801"/>
<path d="M12.6542 16.55C12.654 16.5384 12.6568 16.527 12.6624 16.5169C12.668 16.5067 12.6761 16.4983 12.6861 16.4923L15.301 14.9699C15.311 14.9643 15.3194 14.9562 15.3253 14.9463C15.3312 14.9365 15.3344 14.9252 15.3346 14.9138C15.3348 14.9023 15.332 14.891 15.3264 14.8809C15.3209 14.8709 15.3128 14.8624 15.303 14.8565L12.69 13.3082C12.6798 13.3021 12.6681 13.2988 12.6562 13.2988C12.6443 13.2988 12.6326 13.3021 12.6224 13.3082L9.95373 14.8823C9.94381 14.8883 9.93564 14.8968 9.93005 14.9069C9.92445 14.917 9.92164 14.9285 9.92189 14.9401L9.93184 18.0744C9.93159 18.086 9.9344 18.0974 9.94 18.1075C9.94559 18.1177 9.95376 18.1261 9.96368 18.1321L12.5527 19.6465C12.5628 19.6526 12.5743 19.6558 12.5861 19.6559C12.5978 19.656 12.6094 19.6529 12.6195 19.6471C12.6297 19.6412 12.6381 19.6326 12.6438 19.6224C12.6496 19.6122 12.6525 19.6006 12.6522 19.5888L12.6542 16.55Z" stroke="#F8DC85" stroke-width="0.39801"/>
<path d="M31.3408 19.5865C31.3406 19.5985 31.3436 19.6103 31.3495 19.6208C31.3553 19.6312 31.3639 19.6399 31.3742 19.646C31.3845 19.652 31.3962 19.6553 31.4082 19.6553C31.4202 19.6554 31.432 19.6522 31.4423 19.6462L34.0393 18.1139C34.0495 18.108 34.058 18.0996 34.0639 18.0895C34.0698 18.0794 34.073 18.0679 34.0732 18.0562L34.0791 14.9497C34.079 14.938 34.0758 14.9265 34.0699 14.9164C34.0639 14.9063 34.0555 14.8979 34.0453 14.892L31.3607 13.3059C31.3504 13.3 31.3388 13.2969 31.3269 13.2969C31.315 13.2969 31.3034 13.3 31.2931 13.3059L28.7 14.8522C28.6898 14.8583 28.6814 14.867 28.6755 14.8774C28.6697 14.8878 28.6668 14.8996 28.667 14.9115C28.6672 14.9234 28.6705 14.9351 28.6767 14.9453C28.6828 14.9555 28.6916 14.9639 28.702 14.9696L31.313 16.494C31.3234 16.5 31.3321 16.5087 31.338 16.5192C31.344 16.5297 31.347 16.5416 31.3468 16.5537L31.3408 19.5865Z" stroke="#F8DC85" stroke-width="0.39801"/>
<path d="M22.0733 18.7424C22.048 18.7574 22.0191 18.7654 21.9897 18.7654C21.9603 18.7654 21.9314 18.7574 21.9061 18.7424L17.4265 16.0797C17.4012 16.0646 17.3723 16.0566 17.3429 16.0566C17.3135 16.0566 17.2846 16.0646 17.2593 16.0797L14.6782 17.614C14.6538 17.6286 14.6336 17.6493 14.6196 17.6741C14.6057 17.6988 14.5984 17.7268 14.5986 17.7553L14.6006 20.7682C14.6004 20.7967 14.6077 20.8247 14.6216 20.8495C14.6356 20.8742 14.6558 20.895 14.6802 20.9095L19.1937 23.5583C19.2181 23.5728 19.2383 23.5936 19.2523 23.6183C19.2662 23.6431 19.2735 23.6711 19.2733 23.6996L19.2713 29.009C19.2711 29.0375 19.2783 29.0655 19.2923 29.0903C19.3062 29.115 19.3264 29.1357 19.3509 29.1503L21.924 30.6647C21.9493 30.6798 21.9782 30.6878 22.0076 30.6878C22.037 30.6878 22.0659 30.6798 22.0912 30.6647L24.6563 29.1543C24.6808 29.1397 24.701 29.119 24.7149 29.0942C24.7289 29.0695 24.7361 29.0415 24.7359 29.013V23.6996C24.7358 23.6711 24.743 23.6431 24.757 23.6183C24.7709 23.5936 24.7911 23.5728 24.8156 23.5583L29.329 20.9075C29.3538 20.8932 29.3744 20.8726 29.3887 20.8478C29.403 20.823 29.4106 20.7949 29.4106 20.7662L29.4006 17.7434C29.4005 17.7152 29.3931 17.6876 29.3791 17.6632C29.3652 17.6388 29.3452 17.6184 29.321 17.6041L26.7578 16.0817C26.7326 16.0666 26.7037 16.0586 26.6743 16.0586C26.6448 16.0586 26.616 16.0666 26.5907 16.0817L22.0733 18.7424Z" stroke="#F8DC85" stroke-width="0.39801"/>
<path d="M26.672 33.2942C26.6721 33.3107 26.6766 33.3268 26.685 33.3409C26.6933 33.3551 26.7053 33.3668 26.7196 33.3749C26.7339 33.383 26.7501 33.3871 26.7666 33.3869C26.783 33.3867 26.7991 33.3822 26.8133 33.3738L34.0312 29.131C34.0453 29.1226 34.057 29.1107 34.065 29.0964C34.0731 29.082 34.0772 29.0659 34.077 29.0494L34.075 20.54C34.0748 20.5235 34.0704 20.5074 34.062 20.4933C34.0536 20.4791 34.0417 20.4674 34.0274 20.4593C34.013 20.4512 33.9968 20.4471 33.9804 20.4473C33.9639 20.4475 33.9478 20.452 33.9337 20.4604L31.3944 21.9609C31.3803 21.9693 31.3686 21.9812 31.3606 21.9955C31.3525 22.0099 31.3484 22.026 31.3486 22.0425L31.3426 27.4236C31.3428 27.44 31.3387 27.4562 31.3307 27.4705C31.3227 27.4848 31.311 27.4968 31.2969 27.5052L26.7118 30.1977C26.6977 30.2061 26.686 30.218 26.678 30.2324C26.6699 30.2467 26.6658 30.2629 26.666 30.2793L26.672 33.2942Z" stroke="#F8DC85" stroke-width="0.39801"/>
<path d="M9.92774 29.0734C9.92755 29.0855 9.93058 29.0974 9.93653 29.1079C9.94248 29.1184 9.95112 29.1271 9.96157 29.1331L17.2352 33.3918C17.2454 33.3977 17.257 33.4009 17.2688 33.4009C17.2806 33.4009 17.2922 33.3979 17.3025 33.3921C17.3127 33.3862 17.3213 33.3778 17.3273 33.3677C17.3333 33.3575 17.3365 33.3459 17.3367 33.3341V30.2754C17.3365 30.2637 17.3333 30.2522 17.3274 30.2421C17.3215 30.232 17.313 30.2236 17.3029 30.2177L12.6899 27.4993C12.6798 27.4934 12.6713 27.485 12.6654 27.4749C12.6595 27.4648 12.6563 27.4533 12.6561 27.4416L12.6501 22.0307C12.65 22.0189 12.6468 22.0074 12.6408 21.9973C12.6349 21.9872 12.6265 21.9788 12.6163 21.9729L10.0332 20.4466C10.0228 20.4406 10.0111 20.4375 9.99911 20.4375C9.98713 20.4375 9.97539 20.4408 9.96507 20.4468C9.95475 20.4529 9.94623 20.4616 9.94037 20.4721C9.93451 20.4825 9.93153 20.4943 9.93172 20.5063L9.92774 29.0734Z" stroke="#F8DC85" stroke-width="0.39801"/>
<path d="M17.335 24.7956C17.335 24.7836 17.3319 24.7718 17.3259 24.7613C17.32 24.7509 17.3115 24.7421 17.3012 24.7359L14.7081 23.1857C14.6976 23.1794 14.6855 23.1759 14.6732 23.1758C14.6609 23.1756 14.6487 23.1787 14.638 23.1848C14.6273 23.1909 14.6183 23.1997 14.6121 23.2103C14.6059 23.221 14.6027 23.2331 14.6027 23.2454L14.5967 26.3041C14.5967 26.3161 14.5998 26.328 14.6057 26.3384C14.6117 26.3489 14.6202 26.3576 14.6305 26.3638L17.2315 27.8981C17.2421 27.9045 17.2541 27.9079 17.2665 27.908C17.2788 27.9082 17.2909 27.9051 17.3016 27.899C17.3124 27.8929 17.3213 27.8841 17.3275 27.8735C17.3337 27.8629 17.337 27.8508 17.337 27.8384L17.335 24.7956Z" stroke="#F8DC85" stroke-width="0.39801"/>
<path d="M29.3984 23.2387C29.3982 23.2269 29.395 23.2153 29.389 23.2051C29.383 23.195 29.3744 23.1866 29.3641 23.1807C29.3539 23.1749 29.3423 23.1718 29.3305 23.1719C29.3187 23.1719 29.3071 23.175 29.2969 23.1809L26.6998 24.7272C26.6897 24.7331 26.6812 24.7415 26.6753 24.7516C26.6694 24.7617 26.6662 24.7732 26.666 24.7849L26.672 27.8317C26.6721 27.8435 26.6754 27.855 26.6814 27.8652C26.6874 27.8754 26.6959 27.8838 26.7062 27.8896C26.7165 27.8955 26.7281 27.8985 26.7399 27.8985C26.7517 27.8984 26.7633 27.8953 26.7735 27.8894L29.3665 26.365C29.3767 26.3592 29.3851 26.3508 29.3911 26.3406C29.397 26.3305 29.4002 26.319 29.4003 26.3073L29.3984 23.2387Z" stroke="#F8DC85" stroke-width="0.39801"/>
<path d="M19.2607 34.5417C19.2609 34.5534 19.2641 34.5649 19.27 34.575C19.276 34.5851 19.2844 34.5935 19.2946 34.5994L21.9533 36.1875C21.9636 36.1934 21.9752 36.1965 21.9871 36.1965C21.999 36.1965 22.0107 36.1934 22.0209 36.1875L24.7015 34.5954C24.7117 34.5896 24.7202 34.5812 24.7261 34.571C24.732 34.5609 24.7352 34.5494 24.7354 34.5377L24.7374 31.473C24.7372 31.4612 24.734 31.4497 24.728 31.4395C24.722 31.4293 24.7134 31.4209 24.7031 31.4151C24.6929 31.4093 24.6813 31.4062 24.6695 31.4063C24.6577 31.4063 24.6461 31.4094 24.6359 31.4153L22.0229 32.9715C22.0126 32.9775 22.001 32.9806 21.9891 32.9806C21.9772 32.9806 21.9656 32.9775 21.9553 32.9715L19.3642 31.4173C19.354 31.4114 19.3424 31.4083 19.3306 31.4082C19.3188 31.4082 19.3072 31.4113 19.2969 31.4171C19.2867 31.4229 19.2781 31.4313 19.2721 31.4415C19.2661 31.4517 19.2629 31.4632 19.2627 31.475L19.2607 34.5417Z" stroke="#F8DC85" stroke-width="0.39801"/>
<path d="M41.8986 22.0001C41.8986 27.2775 39.8021 32.3388 36.0704 36.0704C32.3388 39.8021 27.2775 41.8986 22.0001 41.8986C16.7227 41.8986 11.6614 39.8021 7.9297 36.0704C4.19801 32.3388 2.10156 27.2775 2.10156 22.0001C2.10156 16.7227 4.19801 11.6614 7.9297 7.9297C11.6614 4.19801 16.7227 2.10156 22.0001 2.10156C27.2775 2.10156 32.3388 4.19801 36.0704 7.9297C39.8021 11.6614 41.8986 16.7227 41.8986 22.0001ZM17.7971 13.421L21.9284 11.0807C21.9868 11.0475 22.0445 11.0482 22.1016 11.0827L26.5752 13.7235C26.6349 13.7593 26.6953 13.7593 26.7563 13.7235L29.2856 12.2508C29.3666 12.2044 29.3672 12.1573 29.2876 12.1095L22.0956 7.86276C22.0279 7.82296 21.9609 7.82296 21.8946 7.86276L14.7006 12.1135C14.6902 12.1194 14.6816 12.128 14.6757 12.1383C14.6697 12.1486 14.6665 12.1603 14.6665 12.1722C14.6665 12.1841 14.6697 12.1958 14.6757 12.2061C14.6816 12.2164 14.6902 12.225 14.7006 12.2309L17.2558 13.7394C17.2751 13.7509 17.2973 13.7572 17.3199 13.7575C17.3426 13.7579 17.3651 13.7523 17.3851 13.7414C17.4701 13.6949 17.5437 13.6359 17.606 13.5643C17.6472 13.5178 17.7108 13.4701 17.7971 13.421ZM23.0608 15.8886C23.5954 15.6565 24.1069 15.348 24.5951 14.9633C24.6575 14.9155 24.6548 14.871 24.5871 14.8299L22.0458 13.3135C22.0021 13.2883 21.9589 13.289 21.9165 13.3155L19.405 14.8279C19.3427 14.8664 19.34 14.9082 19.3971 14.9533C20.1095 15.5185 20.6608 15.88 21.0508 16.0379C21.4448 16.1984 21.7367 16.3417 21.9264 16.4677C21.9782 16.5036 22.0319 16.5049 22.0876 16.4717C22.2389 16.3815 22.3835 16.288 22.5215 16.1911C22.6886 16.0717 22.8684 15.9709 23.0608 15.8886ZM12.6548 16.5513C12.6545 16.5397 12.6574 16.5283 12.663 16.5182C12.6685 16.508 12.6767 16.4996 12.6866 16.4936L15.3016 14.9712C15.3116 14.9656 15.3199 14.9575 15.3258 14.9476C15.3317 14.9378 15.3349 14.9265 15.3351 14.9151C15.3353 14.9036 15.3325 14.8923 15.327 14.8822C15.3214 14.8722 15.3134 14.8637 15.3036 14.8578L12.6906 13.3095C12.6804 13.3034 12.6687 13.3001 12.6568 13.3001C12.6449 13.3001 12.6332 13.3034 12.623 13.3095L9.9543 14.8837C9.94438 14.8896 9.93621 14.8981 9.93061 14.9082C9.92502 14.9184 9.92221 14.9298 9.92246 14.9414L9.93241 18.0757C9.93216 18.0873 9.93497 18.0987 9.94057 18.1088C9.94616 18.119 9.95433 18.1274 9.96425 18.1334L12.5533 19.6478C12.5634 19.6539 12.5749 19.6571 12.5866 19.6572C12.5984 19.6573 12.6099 19.6543 12.6201 19.6484C12.6303 19.6425 12.6387 19.634 12.6444 19.6237C12.6502 19.6135 12.6531 19.6019 12.6528 19.5901L12.6548 16.5513ZM31.3414 19.5881C31.3412 19.6001 31.3442 19.6119 31.35 19.6224C31.3559 19.6328 31.3644 19.6415 31.3747 19.6476C31.385 19.6536 31.3968 19.6569 31.4087 19.6569C31.4207 19.6569 31.4325 19.6538 31.4429 19.6478L34.0399 18.1155C34.05 18.1096 34.0585 18.1012 34.0644 18.0911C34.0704 18.081 34.0736 18.0695 34.0737 18.0578L34.0797 14.9513C34.0795 14.9396 34.0763 14.9281 34.0704 14.918C34.0645 14.9079 34.056 14.8995 34.0458 14.8936L31.3613 13.3075C31.351 13.3016 31.3393 13.2985 31.3274 13.2985C31.3156 13.2985 31.3039 13.3016 31.2936 13.3075L28.7006 14.8538C28.6903 14.8599 28.6819 14.8686 28.6761 14.879C28.6703 14.8894 28.6673 14.9012 28.6675 14.9131C28.6677 14.925 28.6711 14.9367 28.6772 14.9469C28.6834 14.9571 28.6921 14.9655 28.7026 14.9712L31.3135 16.4956C31.324 16.5016 31.3326 16.5103 31.3386 16.5208C31.3445 16.5313 31.3475 16.5432 31.3473 16.5553L31.3414 19.5881ZM22.0737 18.7424C22.0484 18.7574 22.0195 18.7654 21.9901 18.7654C21.9607 18.7654 21.9318 18.7574 21.9065 18.7424L17.4269 16.0797C17.4017 16.0646 17.3728 16.0566 17.3434 16.0566C17.3139 16.0566 17.285 16.0646 17.2598 16.0797L14.6787 17.614C14.6542 17.6286 14.634 17.6493 14.6201 17.6741C14.6061 17.6988 14.5989 17.7268 14.5991 17.7553L14.6011 20.7682C14.6009 20.7967 14.6081 20.8247 14.6221 20.8495C14.636 20.8743 14.6562 20.895 14.6807 20.9095L19.1941 23.5583C19.2185 23.5729 19.2387 23.5936 19.2527 23.6183C19.2667 23.6431 19.2739 23.6711 19.2737 23.6996L19.2717 29.009C19.2715 29.0375 19.2788 29.0655 19.2927 29.0903C19.3067 29.115 19.3269 29.1358 19.3513 29.1503L21.9244 30.6647C21.9497 30.6798 21.9786 30.6878 22.008 30.6878C22.0375 30.6878 22.0663 30.6798 22.0916 30.6647L24.6568 29.1543C24.6812 29.1397 24.7014 29.119 24.7154 29.0942C24.7293 29.0695 24.7366 29.0415 24.7364 29.013V23.6996C24.7362 23.6711 24.7434 23.6431 24.7574 23.6183C24.7714 23.5936 24.7916 23.5729 24.816 23.5583L29.3294 20.9075C29.3542 20.8932 29.3748 20.8726 29.3892 20.8478C29.4035 20.823 29.411 20.7949 29.411 20.7662L29.4011 17.7434C29.4009 17.7152 29.3935 17.6876 29.3796 17.6632C29.3656 17.6388 29.3456 17.6184 29.3215 17.6041L26.7583 16.0817C26.733 16.0666 26.7041 16.0586 26.6747 16.0586C26.6453 16.0586 26.6164 16.0666 26.5911 16.0817L22.0737 18.7424ZM26.6727 33.2956C26.6729 33.312 26.6773 33.3282 26.6857 33.3423C26.6941 33.3565 26.706 33.3682 26.7203 33.3763C26.7347 33.3843 26.7509 33.3885 26.7673 33.3883C26.7838 33.3881 26.7999 33.3836 26.814 33.3752L34.0319 29.1324C34.046 29.124 34.0577 29.1121 34.0657 29.0977C34.0738 29.0834 34.0779 29.0672 34.0777 29.0508L34.0757 20.5414C34.0756 20.5249 34.0711 20.5088 34.0627 20.4946C34.0544 20.4805 34.0424 20.4688 34.0281 20.4607C34.0137 20.4526 33.9975 20.4485 33.9811 20.4487C33.9646 20.4488 33.9485 20.4534 33.9344 20.4618L31.3951 21.9623C31.381 21.9706 31.3693 21.9826 31.3613 21.9969C31.3532 22.0112 31.3491 22.0274 31.3493 22.0439L31.3434 27.4249C31.3436 27.4414 31.3394 27.4576 31.3314 27.4719C31.3234 27.4862 31.3117 27.4982 31.2976 27.5065L26.7125 30.1991C26.6984 30.2075 26.6867 30.2194 26.6787 30.2337C26.6707 30.2481 26.6665 30.2642 26.6667 30.2807L26.6727 33.2956ZM9.92843 29.0747C9.92823 29.0868 9.93127 29.0987 9.93721 29.1092C9.94316 29.1197 9.95181 29.1284 9.96226 29.1344L17.2359 33.3931C17.2461 33.399 17.2577 33.4021 17.2695 33.4022C17.2813 33.4022 17.2929 33.3992 17.3032 33.3933C17.3134 33.3875 17.322 33.3791 17.328 33.3689C17.334 33.3588 17.3372 33.3472 17.3374 33.3354V30.2767C17.3372 30.265 17.334 30.2535 17.3281 30.2434C17.3222 30.2332 17.3137 30.2248 17.3036 30.219L12.6906 27.5006C12.6805 27.4947 12.672 27.4863 12.6661 27.4762C12.6601 27.4661 12.6569 27.4546 12.6568 27.4429L12.6508 22.0319C12.6507 22.0202 12.6475 22.0087 12.6415 21.9986C12.6356 21.9885 12.6271 21.9801 12.617 21.9742L10.0339 20.4478C10.0235 20.4418 10.0118 20.4387 9.99979 20.4388C9.98782 20.4388 9.97608 20.442 9.96576 20.4481C9.95544 20.4542 9.94691 20.4629 9.94105 20.4733C9.9352 20.4838 9.93221 20.4956 9.93241 20.5075L9.92843 29.0747ZM17.3354 24.7961C17.3354 24.7841 17.3323 24.7722 17.3263 24.7618C17.3204 24.7513 17.3119 24.7426 17.3016 24.7364L14.7085 23.1861C14.698 23.1798 14.6859 23.1764 14.6736 23.1762C14.6613 23.1761 14.6491 23.1792 14.6384 23.1853C14.6277 23.1913 14.6188 23.2001 14.6125 23.2108C14.6063 23.2214 14.6031 23.2335 14.6031 23.2458L14.5971 26.3045C14.5971 26.3166 14.6002 26.3284 14.6061 26.3389C14.6121 26.3493 14.6206 26.3581 14.6309 26.3643L17.2319 27.8986C17.2425 27.9049 17.2545 27.9083 17.2669 27.9085C17.2792 27.9086 17.2913 27.9055 17.302 27.8995C17.3128 27.8934 17.3217 27.8846 17.3279 27.8739C17.3341 27.8633 17.3374 27.8512 17.3374 27.8389L17.3354 24.7961ZM29.3991 23.2399C29.3989 23.2281 29.3957 23.2165 29.3897 23.2064C29.3837 23.1962 29.3751 23.1878 29.3649 23.1819C29.3546 23.1761 29.343 23.1731 29.3312 23.1731C29.3194 23.1731 29.3078 23.1763 29.2976 23.1822L26.7006 24.7284C26.6904 24.7343 26.682 24.7427 26.676 24.7528C26.6701 24.7629 26.6669 24.7744 26.6667 24.7861L26.6727 27.8329C26.6729 27.8447 26.6761 27.8563 26.6821 27.8664C26.6881 27.8766 26.6967 27.885 26.7069 27.8908C26.7172 27.8967 26.7288 27.8997 26.7406 27.8997C26.7524 27.8997 26.764 27.8965 26.7742 27.8906L29.3672 26.3662C29.3774 26.3604 29.3859 26.352 29.3918 26.3419C29.3977 26.3317 29.4009 26.3203 29.4011 26.3085L29.3991 23.2399ZM19.2618 34.5434C19.2619 34.5551 19.2651 34.5666 19.271 34.5767C19.277 34.5868 19.2854 34.5952 19.2956 34.6011L21.9543 36.1891C21.9646 36.1951 21.9763 36.1982 21.9881 36.1982C22 36.1982 22.0117 36.1951 22.022 36.1891L24.7026 34.5971C24.7127 34.5912 24.7212 34.5828 24.7271 34.5727C24.733 34.5626 24.7362 34.5511 24.7364 34.5394L24.7384 31.4747C24.7382 31.4629 24.735 31.4513 24.729 31.4412C24.723 31.431 24.7144 31.4226 24.7042 31.4168C24.6939 31.4109 24.6823 31.4079 24.6705 31.4079C24.6587 31.408 24.6471 31.4111 24.6369 31.417L22.024 32.9732C22.0137 32.9791 22.002 32.9823 21.9901 32.9823C21.9782 32.9823 21.9666 32.9791 21.9563 32.9732L19.3652 31.419C19.355 31.4131 19.3434 31.41 19.3316 31.4099C19.3198 31.4099 19.3082 31.4129 19.298 31.4188C19.2877 31.4246 19.2791 31.433 19.2731 31.4432C19.2671 31.4533 19.2639 31.4649 19.2638 31.4767L19.2618 34.5434Z" fill="#F0B90B"/>
<path d="M17.6065 13.5634C17.5441 13.635 17.4705 13.6941 17.3856 13.7405C17.3655 13.7514 17.3431 13.757 17.3204 13.7567C17.2977 13.7563 17.2756 13.7501 17.2562 13.7385L14.701 12.23C14.6907 12.2241 14.6821 12.2156 14.6761 12.2053C14.6701 12.195 14.667 12.1832 14.667 12.1713C14.667 12.1594 14.6701 12.1477 14.6761 12.1374C14.6821 12.1271 14.6907 12.1186 14.701 12.1126L21.895 7.86188C21.9614 7.82208 22.0284 7.82208 22.096 7.86188L29.2881 12.1086C29.3677 12.1564 29.367 12.2035 29.2861 12.2499L26.7567 13.7226C26.6957 13.7584 26.6353 13.7584 26.5756 13.7226L22.102 11.0818C22.045 11.0473 21.9872 11.0466 21.9289 11.0798L17.7975 13.4201C17.7113 13.4692 17.6476 13.5169 17.6065 13.5634Z" fill="white"/>
<path d="M22.5217 16.191C22.3837 16.2878 22.2391 16.3813 22.0879 16.4716C22.0322 16.5047 21.9784 16.5034 21.9267 16.4676C21.737 16.3415 21.4451 16.1983 21.0511 16.0377C20.661 15.8798 20.1098 15.5183 19.3973 14.9531C19.3403 14.908 19.3429 14.8662 19.4053 14.8278L21.9167 13.3153C21.9592 13.2888 22.0023 13.2881 22.0461 13.3133L24.5874 14.8298C24.655 14.8709 24.6577 14.9153 24.5953 14.9631C24.1071 15.3478 23.5957 15.6563 23.061 15.8885C22.8686 15.9707 22.6889 16.0716 22.5217 16.191Z" fill="white"/>
<path d="M12.6542 16.552L12.6522 19.5908C12.6525 19.6025 12.6496 19.6141 12.6438 19.6244C12.6381 19.6346 12.6297 19.6431 12.6195 19.649C12.6094 19.6549 12.5978 19.658 12.5861 19.6579C12.5743 19.6578 12.5628 19.6545 12.5527 19.6485L9.96368 18.134C9.95376 18.1281 9.94559 18.1196 9.94 18.1095C9.9344 18.0993 9.93159 18.0879 9.93184 18.0763L9.92189 14.942C9.92164 14.9304 9.92445 14.919 9.93005 14.9089C9.93564 14.8987 9.94381 14.8903 9.95373 14.8843L12.6224 13.3102C12.6326 13.304 12.6443 13.3008 12.6562 13.3008C12.6681 13.3008 12.6798 13.304 12.69 13.3102L15.303 14.8584C15.3128 14.8644 15.3209 14.8728 15.3264 14.8829C15.332 14.8929 15.3348 14.9042 15.3346 14.9157C15.3344 14.9272 15.3312 14.9384 15.3253 14.9483C15.3194 14.9581 15.311 14.9662 15.301 14.9719L12.6861 16.4942C12.6761 16.5002 12.668 16.5087 12.6624 16.5188C12.6568 16.529 12.654 16.5404 12.6542 16.552Z" fill="white"/>
<path d="M31.3408 19.5885L31.3468 16.5557C31.347 16.5436 31.344 16.5317 31.338 16.5212C31.3321 16.5107 31.3234 16.502 31.313 16.496L28.702 14.9716C28.6916 14.9658 28.6828 14.9574 28.6767 14.9472C28.6705 14.937 28.6672 14.9254 28.667 14.9134C28.6668 14.9015 28.6697 14.8898 28.6755 14.8794C28.6814 14.869 28.6898 14.8603 28.7 14.8542L31.2931 13.3079C31.3034 13.302 31.315 13.2988 31.3269 13.2988C31.3388 13.2988 31.3504 13.302 31.3607 13.3079L34.0453 14.894C34.0555 14.8998 34.0639 14.9082 34.0699 14.9183C34.0758 14.9285 34.079 14.9399 34.0791 14.9517L34.0732 18.0581C34.073 18.0699 34.0698 18.0814 34.0639 18.0915C34.058 18.1016 34.0495 18.11 34.0393 18.1159L31.4423 19.6482C31.432 19.6542 31.4202 19.6573 31.4082 19.6573C31.3962 19.6572 31.3845 19.654 31.3742 19.6479C31.3639 19.6418 31.3553 19.6332 31.3495 19.6227C31.3436 19.6123 31.3406 19.6005 31.3408 19.5885Z" fill="white"/>
<path d="M22.0733 18.7424L26.5907 16.0817C26.616 16.0666 26.6448 16.0586 26.6743 16.0586C26.7037 16.0586 26.7326 16.0666 26.7578 16.0817L29.321 17.6041C29.3452 17.6184 29.3652 17.6388 29.3791 17.6632C29.3931 17.6876 29.4005 17.7152 29.4006 17.7434L29.4106 20.7662C29.4106 20.7949 29.403 20.823 29.3887 20.8478C29.3744 20.8726 29.3538 20.8932 29.329 20.9075L24.8156 23.5583C24.7911 23.5728 24.7709 23.5936 24.757 23.6183C24.743 23.6431 24.7358 23.6711 24.7359 23.6996V29.013C24.7361 29.0415 24.7289 29.0695 24.7149 29.0942C24.701 29.119 24.6808 29.1397 24.6563 29.1543L22.0912 30.6647C22.0659 30.6798 22.037 30.6878 22.0076 30.6878C21.9782 30.6878 21.9493 30.6798 21.924 30.6647L19.3509 29.1503C19.3264 29.1357 19.3062 29.115 19.2923 29.0903C19.2783 29.0655 19.2711 29.0375 19.2713 29.009L19.2733 23.6996C19.2735 23.6711 19.2662 23.6431 19.2523 23.6183C19.2383 23.5936 19.2181 23.5728 19.1937 23.5583L14.6802 20.9095C14.6558 20.895 14.6356 20.8742 14.6216 20.8495C14.6077 20.8247 14.6004 20.7967 14.6006 20.7682L14.5986 17.7553C14.5984 17.7268 14.6057 17.6988 14.6196 17.6741C14.6336 17.6493 14.6538 17.6286 14.6782 17.614L17.2593 16.0797C17.2846 16.0646 17.3135 16.0566 17.3429 16.0566C17.3723 16.0566 17.4012 16.0646 17.4265 16.0797L21.9061 18.7424C21.9314 18.7574 21.9603 18.7654 21.9897 18.7654C22.0191 18.7654 22.048 18.7574 22.0733 18.7424Z" fill="white"/>
<path d="M26.673 33.2962L26.667 30.2812C26.6668 30.2648 26.6709 30.2486 26.679 30.2343C26.687 30.22 26.6987 30.208 26.7128 30.1996L31.2978 27.5071C31.312 27.4987 31.3236 27.4868 31.3317 27.4724C31.3397 27.4581 31.3438 27.4419 31.3436 27.4255L31.3496 22.0444C31.3494 22.028 31.3535 22.0118 31.3615 21.9975C31.3696 21.9832 31.3812 21.9712 31.3954 21.9628L33.9347 20.4623C33.9488 20.4539 33.9649 20.4494 33.9814 20.4492C33.9978 20.449 34.014 20.4532 34.0283 20.4613C34.0427 20.4693 34.0546 20.481 34.063 20.4952C34.0713 20.5094 34.0758 20.5255 34.076 20.5419L34.0779 29.0514C34.0782 29.0678 34.074 29.084 34.066 29.0983C34.058 29.1126 34.0463 29.1246 34.0322 29.133L26.8143 33.3758C26.8001 33.3842 26.784 33.3887 26.7676 33.3889C26.7511 33.3891 26.7349 33.3849 26.7206 33.3768C26.7063 33.3688 26.6943 33.3571 26.686 33.3429C26.6776 33.3287 26.6731 33.3126 26.673 33.2962Z" fill="white"/>
<path d="M9.92872 29.0754L9.9327 20.5082C9.9325 20.4963 9.93549 20.4844 9.94135 20.474C9.9472 20.4636 9.95573 20.4549 9.96605 20.4488C9.97637 20.4427 9.98811 20.4395 10.0001 20.4395C10.0121 20.4394 10.0238 20.4425 10.0342 20.4485L12.6173 21.9749C12.6274 21.9808 12.6359 21.9892 12.6418 21.9993C12.6478 22.0094 12.651 22.0209 12.6511 22.0326L12.6571 27.4435C12.6572 27.4553 12.6604 27.4668 12.6664 27.4769C12.6723 27.487 12.6808 27.4954 12.6909 27.5013L17.3038 30.2197C17.314 30.2255 17.3225 30.2339 17.3284 30.244C17.3343 30.2542 17.3375 30.2657 17.3377 30.2774V33.3361C17.3375 33.3479 17.3343 33.3594 17.3283 33.3696C17.3223 33.3798 17.3137 33.3882 17.3035 33.394C17.2932 33.3999 17.2816 33.4029 17.2698 33.4029C17.258 33.4028 17.2464 33.3997 17.2362 33.3938L9.96255 29.1351C9.9521 29.1291 9.94345 29.1203 9.93751 29.1098C9.93156 29.0993 9.92852 29.0875 9.92872 29.0754Z" fill="white"/>
<path d="M17.335 24.7956L17.337 27.8384C17.337 27.8508 17.3337 27.8629 17.3275 27.8735C17.3213 27.8841 17.3124 27.8929 17.3016 27.899C17.2909 27.9051 17.2788 27.9082 17.2665 27.908C17.2541 27.9079 17.2421 27.9045 17.2315 27.8981L14.6305 26.3638C14.6202 26.3576 14.6117 26.3489 14.6057 26.3384C14.5998 26.328 14.5967 26.3161 14.5967 26.3041L14.6027 23.2454C14.6027 23.2331 14.6059 23.221 14.6121 23.2103C14.6183 23.1997 14.6273 23.1909 14.638 23.1848C14.6487 23.1787 14.6609 23.1756 14.6732 23.1758C14.6855 23.1759 14.6976 23.1794 14.7081 23.1857L17.3012 24.7359C17.3115 24.7421 17.32 24.7509 17.3259 24.7613C17.3319 24.7718 17.335 24.7836 17.335 24.7956Z" fill="white"/>
<path d="M29.3993 23.2406L29.4013 26.3093C29.4012 26.321 29.398 26.3325 29.392 26.3426C29.3861 26.3527 29.3776 26.3611 29.3675 26.367L26.7745 27.8914C26.7642 27.8973 26.7526 27.9004 26.7408 27.9004C26.729 27.9005 26.7174 27.8974 26.7072 27.8916C26.6969 27.8857 26.6884 27.8773 26.6824 27.8672C26.6764 27.857 26.6731 27.8454 26.673 27.8336L26.667 24.7869C26.6671 24.7752 26.6703 24.7637 26.6763 24.7535C26.6822 24.7434 26.6907 24.735 26.7008 24.7292L29.2978 23.1829C29.3081 23.177 29.3196 23.1739 29.3314 23.1738C29.3433 23.1738 29.3549 23.1768 29.3651 23.1827C29.3754 23.1885 29.3839 23.1969 29.3899 23.2071C29.3959 23.2172 29.3992 23.2288 29.3993 23.2406Z" fill="white"/>
<path d="M19.2617 34.5436L19.2637 31.477C19.2639 31.4652 19.2671 31.4536 19.2731 31.4435C19.2791 31.4333 19.2877 31.4249 19.2979 31.419C19.3082 31.4132 19.3198 31.4102 19.3316 31.4102C19.3434 31.4102 19.355 31.4134 19.3652 31.4193L21.9562 32.9735C21.9665 32.9794 21.9782 32.9826 21.9901 32.9826C22.002 32.9826 22.0136 32.9794 22.0239 32.9735L24.6368 31.4173C24.6471 31.4114 24.6587 31.4082 24.6705 31.4082C24.6823 31.4082 24.6939 31.4112 24.7041 31.417C24.7144 31.4229 24.7229 31.4313 24.7289 31.4415C24.7349 31.4516 24.7382 31.4632 24.7383 31.475L24.7363 34.5397C24.7362 34.5514 24.733 34.5629 24.7271 34.573C24.7211 34.5831 24.7127 34.5915 24.7025 34.5974L22.0219 36.1894C22.0116 36.1954 22 36.1985 21.9881 36.1985C21.9762 36.1985 21.9645 36.1954 21.9543 36.1894L19.2956 34.6014C19.2854 34.5955 19.2769 34.5871 19.271 34.577C19.2651 34.5669 19.2619 34.5554 19.2617 34.5436Z" fill="white"/>
</g>
</g>
<rect x="1" y="1" width="42" height="42" rx="9.00007" stroke="white" stroke-width="2"/>
</g>
<defs>
<filter id="filter0_b_1_11985" x="-5" y="-5" width="54" height="54" filterUnits="userSpaceOnUse" color-interpolation-filters="sRGB">
<feFlood flood-opacity="0" result="BackgroundImageFix"/>
<feGaussianBlur in="BackgroundImageFix" stdDeviation="2.5"/>
<feComposite in2="SourceAlpha" operator="in" result="effect1_backgroundBlur_1_11985"/>
<feBlend mode="normal" in="SourceGraphic" in2="effect1_backgroundBlur_1_11985" result="shape"/>
</filter>
<clipPath id="clip0_1_11985">
<rect x="2" y="2" width="40" height="40" rx="8.00007" fill="white"/>
</clipPath>
<clipPath id="clip1_1_11985">
<rect width="40" height="40" fill="white" transform="translate(2 2)"/>
</clipPath>
</defs>
</svg>
