<svg width="24" height="24" viewBox="0 0 24 24" fill="none" xmlns="http://www.w3.org/2000/svg">
<path d="M12.974 8.7666H7.12988" stroke="#FAFAFA" stroke-opacity="0.8" stroke-width="1.75325" stroke-linecap="round" stroke-linejoin="round"/>
<path d="M21.7405 10.6849V12.6914C21.7405 13.2271 21.312 13.6654 20.7665 13.6849H18.8574C17.8054 13.6849 16.8412 12.9154 16.7535 11.8635C16.6951 11.2498 16.9288 10.6751 17.3379 10.2758C17.6983 9.90567 18.1951 9.69141 18.7405 9.69141H20.7665C21.312 9.71089 21.7405 10.1492 21.7405 10.6849Z" stroke="#FAFAFA" stroke-opacity="0.8" stroke-width="1.75325" stroke-linecap="round" stroke-linejoin="round"/>
<path d="M17.3377 10.2761C16.9286 10.6754 16.6948 11.2501 16.7533 11.8637C16.8409 12.9157 17.8052 13.6851 18.8571 13.6851H20.7663V15.0975C20.7663 18.0196 18.8182 19.9676 15.8961 19.9676H7.12989C4.20782 19.9676 2.25977 18.0196 2.25977 15.0975V8.27931C2.25977 5.62996 3.85717 3.77931 6.34094 3.46762C6.59418 3.42866 6.85717 3.40918 7.12989 3.40918H15.8961C16.1494 3.40918 16.3929 3.41891 16.6266 3.45787C19.1396 3.75008 20.7663 5.61048 20.7663 8.27931V9.69166H18.7403C18.1948 9.69166 17.6981 9.90592 17.3377 10.2761Z" stroke="#FAFAFA" stroke-opacity="0.8" stroke-width="1.75325" stroke-linecap="round" stroke-linejoin="round"/>
</svg>
