<svg xmlns="http://www.w3.org/2000/svg" width="22" height="22" viewBox="0 0 22 22" fill="none">
<g clip-path="url(#clip0_4450_51)">
<path d="M13.3196 8.68125L8.68125 13.3196C8.08542 12.7237 7.71875 11.9079 7.71875 11.0004C7.71875 9.18542 9.18542 7.71875 11.0004 7.71875C11.9079 7.71875 12.7237 8.08542 13.3196 8.68125Z" stroke="#FAFAFA" stroke-width="1.375" stroke-linecap="round" stroke-linejoin="round"/>
<path d="M16.3358 5.28797C14.7317 4.07797 12.8983 3.41797 11.0008 3.41797C7.765 3.41797 4.74917 5.32464 2.65 8.62464C1.825 9.91714 1.825 12.0896 2.65 13.3821C3.37417 14.5188 4.2175 15.4996 5.13417 16.288" stroke="#FAFAFA" stroke-width="1.375" stroke-linecap="round" stroke-linejoin="round"/>
<path d="M7.71875 17.9029C8.76375 18.3429 9.87292 18.5812 11.0004 18.5812C14.2363 18.5812 17.2521 16.6745 19.3513 13.3745C20.1763 12.082 20.1763 9.90953 19.3513 8.61703C19.0488 8.14036 18.7187 7.6912 18.3796 7.26953" stroke="#FAFAFA" stroke-width="1.375" stroke-linecap="round" stroke-linejoin="round"/>
<path d="M14.2178 11.6406C13.9795 12.9331 12.9253 13.9873 11.6328 14.2256" stroke="#FAFAFA" stroke-width="1.375" stroke-linecap="round" stroke-linejoin="round"/>
<path d="M8.68148 13.3203L1.83398 20.1678" stroke="#FAFAFA" stroke-width="1.375" stroke-linecap="round" stroke-linejoin="round"/>
<path d="M20.1659 1.83203L13.3184 8.67953" stroke="#FAFAFA" stroke-width="1.375" stroke-linecap="round" stroke-linejoin="round"/>
</g>
<defs>
<clipPath id="clip0_4450_51">
<rect width="22" height="22" fill="white"/>
</clipPath>
</defs>
</svg>