<svg width="22" height="22" viewBox="0 0 22 22" fill="none" xmlns="http://www.w3.org/2000/svg">
<path d="M13.3191 8.68125L8.68076 13.3196C8.08493 12.7237 7.71826 11.9079 7.71826 11.0004C7.71826 9.18542 9.18493 7.71875 10.9999 7.71875C11.9074 7.71875 12.7233 8.08542 13.3191 8.68125Z" stroke="#FAFAFA" stroke-width="1.375" stroke-linecap="round" stroke-linejoin="round"/>
<path d="M16.3351 5.28992C14.7309 4.07992 12.8976 3.41992 11.0001 3.41992C7.76427 3.41992 4.74843 5.32659 2.64927 8.62659C1.82427 9.91909 1.82427 12.0916 2.64927 13.3841C3.37343 14.5208 4.21677 15.5016 5.13343 16.2899" stroke="#FAFAFA" stroke-width="1.375" stroke-linecap="round" stroke-linejoin="round"/>
<path d="M7.71826 17.9029C8.76326 18.3429 9.87243 18.5812 10.9999 18.5812C14.2358 18.5812 17.2516 16.6745 19.3508 13.3745C20.1758 12.082 20.1758 9.90953 19.3508 8.61703C19.0483 8.14036 18.7183 7.6912 18.3791 7.26953" stroke="#FAFAFA" stroke-width="1.375" stroke-linecap="round" stroke-linejoin="round"/>
<path d="M14.2173 11.6426C13.979 12.9351 12.9248 13.9892 11.6323 14.2276" stroke="#FAFAFA" stroke-width="1.375" stroke-linecap="round" stroke-linejoin="round"/>
<path d="M8.68075 13.3184L1.83325 20.1659" stroke="#FAFAFA" stroke-width="1.375" stroke-linecap="round" stroke-linejoin="round"/>
<path d="M20.1666 1.83398L13.3191 8.68148" stroke="#FAFAFA" stroke-width="1.375" stroke-linecap="round" stroke-linejoin="round"/>
</svg>
