<svg xmlns="http://www.w3.org/2000/svg" width="22" height="23" viewBox="0 0 22 23" fill="none">
<g clip-path="url(#clip0_4450_53)">
<path d="M13.3196 9.26328C13.3196 9.26328 14.7559 10.4981 14.1723 12.4641C13.7841 13.5654 13.0549 14.436 11.8256 14.7463C10.1553 15.3437 8.68125 13.9016 8.68125 13.9016C8.08542 13.3058 7.71875 12.4899 7.71875 11.5824C7.71875 9.76745 9.18542 8.30078 11.0004 8.30078C11.9079 8.30078 12.7237 8.66745 13.3196 9.26328Z" stroke="white" stroke-width="1.375" stroke-linecap="round" stroke-linejoin="round"/>
<path d="M18.4768 7.96852C16.6125 5.77168 15.4619 5.26244 15.0035 5.01971C13.747 4.35433 12.3911 4 11.0008 4C7.765 4 4.74917 5.90667 2.65 9.20667C1.825 10.4992 1.825 12.6717 2.65 13.9642C3.37417 15.1008 4.2175 16.0817 5.13417 16.87" stroke="#FAFAFA" stroke-width="1.375" stroke-linecap="round" stroke-linejoin="round"/>
<path d="M4.80078 16.5658C6.83226 18.4312 8.54276 18.7958 8.96458 18.9036C9.63063 19.0739 10.3141 19.1632 11.0044 19.1632C14.2402 19.1632 17.256 17.2566 19.3552 13.9566C20.1802 12.6641 20.1802 10.4916 19.3552 9.19906C19.0527 8.7224 18.7227 8.27323 18.3835 7.85156" stroke="#FAFAFA" stroke-width="1.375" stroke-linecap="round" stroke-linejoin="round"/>
<path d="M14.2178 12.2227C13.9795 13.5152 12.9253 14.5693 11.6328 14.8077" stroke="#FAFAFA" stroke-width="1.375" stroke-linecap="round" stroke-linejoin="round"/>
</g>
<defs>
<clipPath id="clip0_4450_53">
<rect width="22" height="22" fill="white" transform="translate(0 0.582031)"/>
</clipPath>
</defs>
</svg>