<svg xmlns="http://www.w3.org/2000/svg" width="70" height="35" viewBox="0 0 70 35" fill="none">
<mask id="mask0_154_3" style="mask-type:luminance" maskUnits="userSpaceOnUse" x="0" y="0" width="70" height="35">
<path d="M52.5 0H17.5C7.83502 0 0 7.83502 0 17.5C0 27.165 7.83502 35 17.5 35H52.5C62.165 35 70 27.165 70 17.5C70 7.83502 62.165 0 52.5 0Z" fill="white"/>
</mask>
<g mask="url(#mask0_154_3)">
<path d="M52.5 0H17.5C7.83502 0 0 7.83502 0 17.5C0 27.165 7.83502 35 17.5 35H52.5C62.165 35 70 27.165 70 17.5C70 7.83502 62.165 0 52.5 0Z" fill="#3D9DE1"/>
<g filter="url(#filter0_f_154_3)">
<path d="M-7 34C6.80712 34 18 22.8071 18 9C18 -4.80712 6.80712 -16 -7 -16C-20.8071 -16 -32 -4.80712 -32 9C-32 22.8071 -20.8071 34 -7 34Z" fill="#254FB3" fill-opacity="0.8"/>
</g>
<g style="mix-blend-mode:lighten">
<path d="M19.0215 23V11.56H27.2135V13.528H21.3415V16.28H26.3175V18.264H21.3415V23H19.0215ZM30.5971 14.792V16.104H30.6451C30.9011 15.624 31.1838 15.272 31.4931 15.048C31.8024 14.8133 32.1918 14.696 32.6611 14.696C32.8851 14.696 33.0558 14.7173 33.1731 14.76V16.664H33.1251C32.3891 16.5893 31.7971 16.7493 31.3491 17.144C30.9011 17.5387 30.6771 18.1573 30.6771 19V23H28.5011V14.792H30.5971ZM38.3721 23.24C37.0494 23.24 36.0094 22.8347 35.2521 22.024C34.4948 21.2027 34.1161 20.1573 34.1161 18.888C34.1161 17.6613 34.4948 16.6373 35.2521 15.816C36.0094 14.984 36.9801 14.568 38.1641 14.568C39.4548 14.568 40.4521 15.016 41.1561 15.912C41.8601 16.808 42.2121 18.008 42.2121 19.512H36.2601C36.3454 20.1627 36.5641 20.6693 36.9161 21.032C37.2681 21.384 37.7481 21.56 38.3561 21.56C39.1561 21.56 39.6841 21.224 39.9401 20.552H42.0841C41.9241 21.32 41.5188 21.96 40.8681 22.472C40.2174 22.984 39.3854 23.24 38.3721 23.24ZM38.1961 16.248C37.1401 16.248 36.5054 16.8347 36.2921 18.008H39.9401C39.9081 17.4853 39.7321 17.064 39.4121 16.744C39.0921 16.4133 38.6868 16.248 38.1961 16.248ZM47.7152 23.24C46.3925 23.24 45.3525 22.8347 44.5952 22.024C43.8379 21.2027 43.4592 20.1573 43.4592 18.888C43.4592 17.6613 43.8379 16.6373 44.5952 15.816C45.3525 14.984 46.3232 14.568 47.5072 14.568C48.7979 14.568 49.7952 15.016 50.4992 15.912C51.2032 16.808 51.5552 18.008 51.5552 19.512H45.6032C45.6885 20.1627 45.9072 20.6693 46.2592 21.032C46.6112 21.384 47.0912 21.56 47.6992 21.56C48.4992 21.56 49.0272 21.224 49.2832 20.552H51.4272C51.2672 21.32 50.8619 21.96 50.2112 22.472C49.5605 22.984 48.7285 23.24 47.7152 23.24ZM47.5392 16.248C46.4832 16.248 45.8485 16.8347 45.6352 18.008H49.2832C49.2512 17.4853 49.0752 17.064 48.7552 16.744C48.4352 16.4133 48.0299 16.248 47.5392 16.248Z" fill="#FAFAFA" fill-opacity="0.9"/>
</g>
</g>
<defs>
<filter id="filter0_f_154_3" x="-72" y="-56" width="130" height="130" filterUnits="userSpaceOnUse" color-interpolation-filters="sRGB">
<feFlood flood-opacity="0" result="BackgroundImageFix"/>
<feBlend mode="normal" in="SourceGraphic" in2="BackgroundImageFix" result="shape"/>
<feGaussianBlur stdDeviation="20" result="effect1_foregroundBlur_154_3"/>
</filter>
</defs>
</svg>