<svg width="44" height="44" viewBox="0 0 44 44" fill="none" xmlns="http://www.w3.org/2000/svg">
<g filter="url(#filter0_b_1_12013)">
<rect x="2" y="2" width="40" height="40" rx="8.00007" fill="#101010"/>
<rect x="1" y="1" width="42" height="42" rx="9.00007" stroke="white" stroke-width="2"/>
<path d="M28.6783 18.1204C28.6397 18.0137 28.5742 17.9335 28.4818 17.8796C24.6548 15.6791 20.8569 13.4888 17.0878 11.3087C17.0407 11.2817 17.0012 11.2431 16.973 11.1965C16.9447 11.1498 16.9287 11.0967 16.9263 11.042C16.9192 10.8571 16.9852 10.7246 17.1244 10.6443C18.5904 9.79703 20.0848 8.9335 21.6076 8.05373C21.6683 8.01854 21.7371 8 21.8072 8C21.8774 8 21.9462 8.01854 22.0069 8.05373L33.8123 14.8624C33.8582 14.8887 33.8964 14.9268 33.9231 14.9728C33.9499 15.0187 33.9642 15.071 33.9646 15.1245L33.9997 19.8332C34.0002 19.9118 33.98 19.9891 33.9412 20.0571C33.9023 20.1251 33.8463 20.1814 33.7787 20.2203L29.3275 22.7864C29.266 22.8219 29.1963 22.8407 29.1254 22.8408C29.0544 22.8408 28.9846 22.8223 28.9231 22.787C28.8615 22.7516 28.8103 22.7008 28.7746 22.6394C28.7388 22.5781 28.7199 22.5085 28.7195 22.4375L28.6982 18.2347C28.6982 18.1953 28.6915 18.1567 28.6783 18.1204Z" fill="#B4F9BA"/>
<path d="M14.252 12.561C15.6478 13.3747 17.1488 14.2129 18.5843 15.0601C18.7956 15.1851 18.9114 15.3309 18.9318 15.4975C18.9356 15.5261 18.9331 15.5551 18.9244 15.5825C18.9157 15.6099 18.901 15.635 18.8815 15.656C18.7504 15.7961 18.5935 15.9191 18.4106 16.0247C17.2494 16.6901 16.1411 17.3327 15.0855 17.9524C15.022 17.99 14.9693 18.0435 14.9327 18.1076C14.8961 18.1717 14.8768 18.2443 14.8767 18.3181V31.4493C14.8768 31.5409 14.8406 31.6288 14.7761 31.6939C14.7116 31.759 14.624 31.7959 14.5324 31.7967C14.4094 31.7977 14.2906 31.7652 14.1758 31.6992C12.6529 30.8215 11.1951 29.9803 9.80228 29.1757C9.74062 29.1399 9.68945 29.0886 9.65388 29.0268C9.61831 28.965 9.59959 28.895 9.59961 28.8237L9.60113 15.2232C9.60108 15.1629 9.61695 15.1036 9.64717 15.0512C9.67738 14.9988 9.72088 14.9551 9.77333 14.9245L13.8405 12.561C13.9031 12.5249 13.974 12.5059 14.0462 12.5059C14.1185 12.5059 14.1894 12.5249 14.252 12.561Z" fill="#B4F9BA"/>
<path d="M22.0662 29.8416C25.5996 27.8036 29.2853 25.6763 33.1234 23.4596C33.2819 23.3682 33.5135 23.2371 33.6964 23.2828C33.8833 23.3306 33.9778 23.4555 33.9798 23.6577C33.993 25.4396 33.9961 27.1443 33.989 28.7718C33.989 28.9648 33.9051 29.1096 33.7375 29.2061L22.0083 35.9705C21.9531 36.0021 21.8905 36.0186 21.8266 36.0186C21.7628 36.0186 21.6999 36.0021 21.6441 35.9705L17.5724 33.6405C17.5103 33.6044 17.4588 33.5525 17.4229 33.4902C17.3871 33.4279 17.3682 33.3573 17.3682 33.2855V28.1363C17.368 28.0649 17.3867 27.9948 17.4223 27.9328C17.4579 27.8709 17.5091 27.8195 17.5709 27.7837C17.6327 27.7478 17.7028 27.7289 17.7742 27.7287C17.8456 27.7286 17.9158 27.7472 17.9777 27.7828L21.5679 29.8416C21.6435 29.8851 21.7292 29.9081 21.8167 29.9081C21.9041 29.9081 21.9902 29.8851 22.0662 29.8416Z" fill="#B4F9BA"/>
</g>
<defs>
<filter id="filter0_b_1_12013" x="-5" y="-5" width="54" height="54" filterUnits="userSpaceOnUse" color-interpolation-filters="sRGB">
<feFlood flood-opacity="0" result="BackgroundImageFix"/>
<feGaussianBlur in="BackgroundImageFix" stdDeviation="2.5"/>
<feComposite in2="SourceAlpha" operator="in" result="effect1_backgroundBlur_1_12013"/>
<feBlend mode="normal" in="SourceGraphic" in2="effect1_backgroundBlur_1_12013" result="shape"/>
</filter>
</defs>
</svg>
