<svg width="64" height="65" viewBox="0 0 64 65" fill="none" xmlns="http://www.w3.org/2000/svg">
<rect y="0.5" width="64" height="64" rx="32" fill="#FAFAFA" fill-opacity="0.05"/>
<path d="M22.58 39.5093L22.56 39.5293C22.29 38.9393 22.12 38.2693 22.05 37.5293C22.12 38.2593 22.31 38.9193 22.58 39.5093Z" fill="#909090"/>
<path d="M29.0001 30.8791C30.3146 30.8791 31.3801 29.8136 31.3801 28.4991C31.3801 27.1847 30.3146 26.1191 29.0001 26.1191C27.6857 26.1191 26.6201 27.1847 26.6201 28.4991C26.6201 29.8136 27.6857 30.8791 29.0001 30.8791Z" fill="#909090"/>
<path d="M36.19 22.5H27.81C24.17 22.5 22 24.67 22 28.31V36.69C22 37.78 22.19 38.73 22.56 39.53C23.42 41.43 25.26 42.5 27.81 42.5H36.19C39.83 42.5 42 40.33 42 36.69V34.4V28.31C42 24.67 39.83 22.5 36.19 22.5ZM40.37 33C39.59 32.33 38.33 32.33 37.55 33L33.39 36.57C32.61 37.24 31.35 37.24 30.57 36.57L30.23 36.29C29.52 35.67 28.39 35.61 27.59 36.15L23.85 38.66C23.63 38.1 23.5 37.45 23.5 36.69V28.31C23.5 25.49 24.99 24 27.81 24H36.19C39.01 24 40.5 25.49 40.5 28.31V33.11L40.37 33Z" fill="#909090"/>
</svg>
