<svg width="52" height="53" viewBox="0 0 52 53" fill="none" xmlns="http://www.w3.org/2000/svg">
<rect y="0.5" width="52" height="52" rx="26" fill="#303030"/>
<path d="M26 32.5C29.5899 32.5 32.5 29.5899 32.5 26C32.5 22.4101 29.5899 19.5 26 19.5C22.4101 19.5 19.5 22.4101 19.5 26C19.5 29.5899 22.4101 32.5 26 32.5Z" stroke="#808080" stroke-width="1.5" stroke-linecap="round" stroke-linejoin="round"/>
<path d="M33.14 33.14L33.01 33.01M33.01 18.99L33.14 18.86L33.01 18.99ZM18.86 33.14L18.99 33.01L18.86 33.14ZM26 16.08V16V16.08ZM26 36V35.92V36ZM16.08 26H16H16.08ZM36 26H35.92H36ZM18.99 18.99L18.86 18.86L18.99 18.99Z" stroke="#808080" stroke-width="2" stroke-linecap="round" stroke-linejoin="round"/>
</svg>
