<svg width="104" height="104" viewBox="0 0 104 104" fill="none" xmlns="http://www.w3.org/2000/svg">
<g filter="url(#filter0_f_455_16622)">
<rect x="36" y="36" width="32" height="32" rx="16" fill="#FFBC11"/>
</g>
<rect x="26" y="26.5" width="52" height="52" rx="26" fill="#FAFAFA"/>
<path d="M52 59.5C55.866 59.5 59 56.366 59 52.5C59 48.634 55.866 45.5 52 45.5C48.134 45.5 45 48.634 45 52.5C45 56.366 48.134 59.5 52 59.5Z" fill="#FFBC11"/>
<path d="M52 63.46C51.45 63.46 51 63.05 51 62.5V62.42C51 61.87 51.45 61.42 52 61.42C52.55 61.42 53 61.87 53 62.42C53 62.97 52.55 63.46 52 63.46ZM59.14 60.64C58.88 60.64 58.63 60.54 58.43 60.35L58.3 60.22C57.91 59.83 57.91 59.2 58.3 58.81C58.69 58.42 59.32 58.42 59.71 58.81L59.84 58.94C60.23 59.33 60.23 59.96 59.84 60.35C59.65 60.54 59.4 60.64 59.14 60.64ZM44.86 60.64C44.6 60.64 44.35 60.54 44.15 60.35C43.76 59.96 43.76 59.33 44.15 58.94L44.28 58.81C44.67 58.42 45.3 58.42 45.69 58.81C46.08 59.2 46.08 59.83 45.69 60.22L45.56 60.35C45.37 60.54 45.11 60.64 44.86 60.64ZM62 53.5H61.92C61.37 53.5 60.92 53.05 60.92 52.5C60.92 51.95 61.37 51.5 61.92 51.5C62.47 51.5 62.96 51.95 62.96 52.5C62.96 53.05 62.55 53.5 62 53.5ZM42.08 53.5H42C41.45 53.5 41 53.05 41 52.5C41 51.95 41.45 51.5 42 51.5C42.55 51.5 43.04 51.95 43.04 52.5C43.04 53.05 42.63 53.5 42.08 53.5ZM59.01 46.49C58.75 46.49 58.5 46.39 58.3 46.2C57.91 45.81 57.91 45.18 58.3 44.79L58.43 44.66C58.82 44.27 59.45 44.27 59.84 44.66C60.23 45.05 60.23 45.68 59.84 46.07L59.71 46.2C59.52 46.39 59.27 46.49 59.01 46.49ZM44.99 46.49C44.73 46.49 44.48 46.39 44.28 46.2L44.15 46.06C43.76 45.67 43.76 45.04 44.15 44.65C44.54 44.26 45.17 44.26 45.56 44.65L45.69 44.78C46.08 45.17 46.08 45.8 45.69 46.19C45.5 46.39 45.24 46.49 44.99 46.49ZM52 43.54C51.45 43.54 51 43.13 51 42.58V42.5C51 41.95 51.45 41.5 52 41.5C52.55 41.5 53 41.95 53 42.5C53 43.05 52.55 43.54 52 43.54Z" fill="#FFBC11"/>
<rect x="33" y="33.5" width="38" height="38" rx="19" stroke="url(#paint0_linear_455_16622)" stroke-opacity="0.6" stroke-width="4"/>
<defs>
<filter id="filter0_f_455_16622" x="0" y="0" width="104" height="104" filterUnits="userSpaceOnUse" color-interpolation-filters="sRGB">
<feFlood flood-opacity="0" result="BackgroundImageFix"/>
<feBlend mode="normal" in="SourceGraphic" in2="BackgroundImageFix" result="shape"/>
<feGaussianBlur stdDeviation="18" result="effect1_foregroundBlur_455_16622"/>
</filter>
<linearGradient id="paint0_linear_455_16622" x1="52" y1="31.5" x2="52" y2="73.5" gradientUnits="userSpaceOnUse">
<stop stop-color="#FFBC11" stop-opacity="0.6"/>
<stop offset="1" stop-color="#FFBC11" stop-opacity="0.1"/>
<stop offset="1" stop-color="#FFBC11" stop-opacity="0.1"/>
</linearGradient>
</defs>
</svg>
