<svg width="44" height="44" viewBox="0 0 44 44" fill="none" xmlns="http://www.w3.org/2000/svg">
<g filter="url(#filter0_b_1_12009)">
<g clip-path="url(#clip0_1_12009)">
<rect x="2" y="2" width="40" height="40" rx="8.00007" fill="#FF0420"/>
<path d="M15.002 28.3739C13.5716 28.3739 12.4004 28.0379 11.4884 27.3659C10.586 26.6843 10.1348 25.7051 10.1348 24.4475C10.1348 24.1787 10.1636 23.8619 10.2212 23.4779C10.3748 22.6139 10.5956 21.5771 10.8836 20.3579C11.6996 17.0555 13.8116 15.4043 17.21 15.4043C18.1316 15.4043 18.9668 15.5579 19.6964 15.8747C20.426 16.1723 21.002 16.6331 21.4244 17.2475C21.8468 17.8523 22.058 18.5723 22.058 19.4075C22.058 19.6571 22.0292 19.9739 21.9716 20.3579C21.7892 21.4235 21.578 22.4699 21.3188 23.4779C20.8964 25.1195 20.1764 26.3579 19.1396 27.1739C18.1124 27.9803 16.73 28.3739 15.002 28.3739ZM15.2612 25.7819C15.9332 25.7819 16.4996 25.5803 16.97 25.1867C17.45 24.7931 17.7956 24.1883 17.9972 23.3627C18.2756 22.2299 18.4868 21.2507 18.6308 20.4059C18.6788 20.1563 18.7076 19.8971 18.7076 19.6283C18.7076 18.5339 18.1412 17.9867 16.9988 17.9867C16.3268 17.9867 15.7508 18.1883 15.2708 18.5819C14.8004 18.9755 14.4644 19.5803 14.2628 20.4059C14.042 21.2123 13.8308 22.1915 13.61 23.3627C13.562 23.6027 13.5332 23.8523 13.5332 24.1211C13.5236 25.2347 14.1092 25.7819 15.2612 25.7819Z" fill="white"/>
<path d="M22.8925 28.2023C22.7581 28.2023 22.6621 28.1639 22.5853 28.0775C22.5277 27.9815 22.5085 27.8759 22.5277 27.7511L25.0141 16.0391C25.0333 15.9047 25.1005 15.7991 25.2157 15.7127C25.3213 15.6263 25.4365 15.5879 25.5613 15.5879H30.3517C31.6861 15.5879 32.7517 15.8663 33.5581 16.4135C34.3741 16.9703 34.7869 17.7671 34.7869 18.8135C34.7869 19.1111 34.7485 19.4279 34.6813 19.7543C34.3837 21.1367 33.7789 22.1543 32.8573 22.8167C31.9549 23.4791 30.7165 23.8055 29.1421 23.8055H26.7133L25.8877 27.7511C25.8589 27.8855 25.8013 27.9911 25.6861 28.0775C25.5805 28.1639 25.4653 28.2023 25.3405 28.2023H22.8925ZM29.2669 21.3191C29.7757 21.3191 30.2077 21.1847 30.5821 20.9063C30.9661 20.6279 31.2157 20.2343 31.3405 19.7159C31.3789 19.5143 31.3981 19.3319 31.3981 19.1783C31.3981 18.8327 31.2925 18.5639 31.0909 18.3815C30.8893 18.1895 30.5341 18.0935 30.0445 18.0935H27.8845L27.2029 21.3191H29.2669Z" fill="white"/>
</g>
<rect x="1" y="1" width="42" height="42" rx="9.00007" stroke="white" stroke-width="2"/>
</g>
<defs>
<filter id="filter0_b_1_12009" x="-5" y="-5" width="54" height="54" filterUnits="userSpaceOnUse" color-interpolation-filters="sRGB">
<feFlood flood-opacity="0" result="BackgroundImageFix"/>
<feGaussianBlur in="BackgroundImageFix" stdDeviation="2.5"/>
<feComposite in2="SourceAlpha" operator="in" result="effect1_backgroundBlur_1_12009"/>
<feBlend mode="normal" in="SourceGraphic" in2="effect1_backgroundBlur_1_12009" result="shape"/>
</filter>
<clipPath id="clip0_1_12009">
<rect x="2" y="2" width="40" height="40" rx="8.00007" fill="white"/>
</clipPath>
</defs>
</svg>
