<svg xmlns="http://www.w3.org/2000/svg" width="46" height="22" viewBox="0 0 46 22" fill="none">
<path d="M15.9217 3.25391H18.5379L12.8236 9.82879L19.5706 18.7445H14.2694L10.1386 13.34L5.38815 18.7445H2.77197L8.89934 11.7221L2.42773 3.25391H7.86663L11.6188 8.21089L15.9217 3.25391ZM14.9923 17.161H16.4381L7.07489 4.73412H5.49142L14.9923 17.161Z" fill="#FAFAFA"/>
<circle cx="22.75" cy="11" r="10" fill="#5865F2"/>
<path d="M27.3732 6.75638C26.5233 6.36651 25.612 6.07927 24.6592 5.91475C24.6419 5.91158 24.6245 5.91951 24.6156 5.93538C24.4984 6.1438 24.3686 6.4157 24.2777 6.62941C23.2528 6.47601 22.2333 6.47601 21.2294 6.62941C21.1385 6.41095 21.004 6.1438 20.8863 5.93538C20.8773 5.92004 20.86 5.91211 20.8426 5.91475C19.8903 6.07874 18.979 6.36598 18.1287 6.75638C18.1213 6.75955 18.115 6.76485 18.1108 6.77172C16.3823 9.35372 15.9087 11.8723 16.141 14.3596C16.1421 14.3717 16.1489 14.3834 16.1584 14.3908C17.2988 15.2282 18.4036 15.7365 19.4878 16.0735C19.5051 16.0788 19.5235 16.0725 19.5345 16.0582C19.791 15.708 20.0196 15.3387 20.2156 14.9505C20.2272 14.9277 20.2162 14.9007 20.1925 14.8917C19.8299 14.7542 19.4846 14.5865 19.1525 14.3961C19.1262 14.3807 19.1241 14.3432 19.1482 14.3252C19.2181 14.2728 19.2881 14.2183 19.3548 14.1633C19.3669 14.1533 19.3837 14.1511 19.3979 14.1575C21.58 15.1536 23.9424 15.1536 26.0987 14.1575C26.1129 14.1506 26.1297 14.1527 26.1423 14.1628C26.2091 14.2178 26.279 14.2728 26.3494 14.3252C26.3736 14.3432 26.372 14.3807 26.3457 14.3961C26.0136 14.5902 25.6683 14.7542 25.3051 14.8912C25.2815 14.9002 25.271 14.9277 25.2825 14.9505C25.4827 15.3382 25.7114 15.7074 25.9631 16.0576C25.9736 16.0725 25.9925 16.0788 26.0099 16.0735C27.0993 15.7365 28.2041 15.2282 29.3445 14.3908C29.3545 14.3834 29.3608 14.3723 29.3619 14.3601C29.6399 11.4845 28.8962 8.98661 27.3905 6.77224C27.3868 6.76485 27.3805 6.75955 27.3732 6.75638ZM20.5415 12.8451C19.8845 12.8451 19.3432 12.242 19.3432 11.5014C19.3432 10.7608 19.8741 10.1578 20.5415 10.1578C21.2142 10.1578 21.7503 10.7661 21.7398 11.5014C21.7398 12.242 21.2089 12.8451 20.5415 12.8451ZM24.9719 12.8451C24.315 12.8451 23.7737 12.242 23.7737 11.5014C23.7737 10.7608 24.3045 10.1578 24.9719 10.1578C25.6446 10.1578 26.1807 10.7661 26.1702 11.5014C26.1702 12.242 25.6446 12.8451 24.9719 12.8451Z" fill="white"/>
<g clip-path="url(#clip0_4449_30)">
<path d="M44.5 11.0004C44.5 5.47754 40.0229 1.00039 34.5 1.00039C28.9771 1.00039 24.5 5.47754 24.5 11.0004C24.5 15.9917 28.1569 20.1287 32.9375 20.8789V13.891H30.3984V11.0004H32.9375V8.79726C32.9375 6.29101 34.4304 4.90664 36.7146 4.90664C37.8087 4.90664 38.9531 5.10195 38.9531 5.10195V7.56289H37.6921C36.4499 7.56289 36.0625 8.33373 36.0625 9.12455V11.0004H38.8359L38.3926 13.891H36.0625V20.8789C40.8431 20.1287 44.5 15.9917 44.5 11.0004Z" fill="#1877F2"/>
<path d="M38.3926 13.8906L38.8359 11H36.0625V9.12416C36.0625 8.33334 36.4499 7.5625 37.6921 7.5625H38.9531V5.10156C38.9531 5.10156 37.8087 4.90625 36.7146 4.90625C34.4304 4.90625 32.9375 6.29062 32.9375 8.79688V11H30.3984V13.8906H32.9375V20.8785C33.4466 20.9584 33.9684 21 34.5 21C35.0316 21 35.5534 20.9584 36.0625 20.8785V13.8906H38.3926Z" fill="white"/>
</g>
<defs>
<clipPath id="clip0_4449_30">
<rect width="20" height="20" fill="white" transform="translate(24.5 1)"/>
</clipPath>
</defs>
</svg>