<svg width="42" height="20" viewBox="0 0 42 20" fill="none" xmlns="http://www.w3.org/2000/svg">
<g clip-path="url(#clip0_455_13878)">
<path d="M14.075 2.25195H16.6912L10.9769 8.82684L17.7239 17.7425H12.4227L8.2919 12.338L3.54147 17.7425H0.925289L7.05266 10.7201L0.581055 2.25195H6.01995L9.77211 7.20894L14.075 2.25195ZM13.1456 16.159H14.5914L5.22822 3.73216H3.64474L13.1456 16.159Z" fill="#FAFAFA"/>
</g>
<rect x="9.71484" width="20" height="20" rx="10" fill="#5865F2"/>
<g clip-path="url(#clip1_455_13878)">
<mask id="mask0_455_13878" style="mask-type:luminance" maskUnits="userSpaceOnUse" x="13" y="4" width="14" height="12">
<path d="M26.3836 4.83594H13.0503V15.1629H26.3836V4.83594Z" fill="white"/>
</mask>
<g mask="url(#mask0_455_13878)">
<path d="M24.3375 5.75638C23.4877 5.36651 22.5764 5.07927 21.6236 4.91475C21.6062 4.91158 21.5889 4.91951 21.5799 4.93538C21.4627 5.1438 21.3329 5.4157 21.242 5.62941C20.2172 5.47601 19.1976 5.47601 18.1938 5.62941C18.1029 5.41095 17.9683 5.1438 17.8506 4.93538C17.8417 4.92004 17.8243 4.91211 17.807 4.91475C16.8547 5.07874 15.9434 5.36598 15.093 5.75638C15.0857 5.75955 15.0794 5.76485 15.0752 5.77172C13.3466 8.35372 12.8731 10.8723 13.1054 13.3596C13.1064 13.3717 13.1133 13.3834 13.1227 13.3908C14.2632 14.2282 15.3679 14.7365 16.4521 15.0735C16.4695 15.0788 16.4879 15.0725 16.4989 15.0582C16.7554 14.708 16.984 14.3387 17.18 13.9505C17.1916 13.9277 17.1805 13.9007 17.1569 13.8917C16.7943 13.7542 16.449 13.5865 16.1168 13.3961C16.0905 13.3807 16.0884 13.3432 16.1126 13.3252C16.1825 13.2728 16.2524 13.2183 16.3192 13.1633C16.3312 13.1533 16.3481 13.1511 16.3623 13.1575C18.5443 14.1536 20.9067 14.1536 23.063 13.1575C23.0772 13.1506 23.0941 13.1527 23.1067 13.1628C23.1734 13.2178 23.2433 13.2728 23.3137 13.3252C23.3379 13.3432 23.3363 13.3807 23.3101 13.3961C22.9779 13.5902 22.6326 13.7542 22.2695 13.8912C22.2458 13.9002 22.2353 13.9277 22.2469 13.9505C22.4471 14.3382 22.6757 14.7074 22.9275 15.0576C22.938 15.0725 22.9569 15.0788 22.9742 15.0735C24.0637 14.7365 25.1684 14.2282 26.3089 13.3908C26.3189 13.3834 26.3252 13.3723 26.3262 13.3601C26.6042 10.4845 25.8606 7.98661 24.3549 5.77224C24.3512 5.76485 24.3449 5.75955 24.3375 5.75638ZM17.5059 11.8451C16.8489 11.8451 16.3076 11.242 16.3076 10.5014C16.3076 9.76084 16.8384 9.1578 17.5059 9.1578C18.1786 9.1578 18.7146 9.76613 18.7041 10.5014C18.7041 11.242 18.1733 11.8451 17.5059 11.8451ZM21.9363 11.8451C21.2793 11.8451 20.738 11.242 20.738 10.5014C20.738 9.76084 21.2688 9.1578 21.9363 9.1578C22.609 9.1578 23.145 9.76613 23.1345 10.5014C23.1345 11.242 22.609 11.8451 21.9363 11.8451Z" fill="white"/>
</g>
</g>
<g clip-path="url(#clip2_455_13878)">
<path d="M41.7148 10.0004C41.7148 4.47754 37.2377 0.000389099 31.7148 0.000389099C26.192 0.000389099 21.7148 4.47754 21.7148 10.0004C21.7148 14.9917 25.3717 19.1287 30.1523 19.8789V12.891H27.6133V10.0004H30.1523V7.79726C30.1523 5.29101 31.6453 3.90664 33.9295 3.90664C35.0236 3.90664 36.168 4.10195 36.168 4.10195V6.56289H34.907C33.6647 6.56289 33.2773 7.33373 33.2773 8.12455V10.0004H36.0508L35.6074 12.891H33.2773V19.8789C38.058 19.1287 41.7148 14.9917 41.7148 10.0004Z" fill="#1877F2"/>
<path d="M35.6074 12.8906L36.0508 10H33.2773V8.12416C33.2773 7.33334 33.6647 6.5625 34.907 6.5625H36.168V4.10156C36.168 4.10156 35.0236 3.90625 33.9295 3.90625C31.6453 3.90625 30.1523 5.29062 30.1523 7.79688V10H27.6133V12.8906H30.1523V19.8785C30.6615 19.9584 31.1833 20 31.7148 20C32.2464 20 32.7682 19.9584 33.2773 19.8785V12.8906H35.6074Z" fill="white"/>
</g>
<defs>
<clipPath id="clip0_455_13878">
<rect width="17.1429" height="15.4906" fill="white" transform="translate(0.571777 2.25391)"/>
</clipPath>
<clipPath id="clip1_455_13878">
<rect width="13.3333" height="10.327" fill="white" transform="translate(13.0483 4.83594)"/>
</clipPath>
<clipPath id="clip2_455_13878">
<rect width="20" height="20" fill="white" transform="translate(21.7148)"/>
</clipPath>
</defs>
</svg>
