<svg width="24" height="24" viewBox="0 0 24 24" fill="none" xmlns="http://www.w3.org/2000/svg">
<path d="M9.56445 13.3929C9.56445 14.3377 10.295 15.0974 11.1911 15.0974H13.0222C13.8015 15.0974 14.4346 14.4351 14.4346 13.6072C14.4346 12.7208 14.045 12.3994 13.4703 12.1949L10.5385 11.1721C9.9638 10.9676 9.5742 10.6559 9.5742 9.75979C9.5742 8.94161 10.2073 8.26953 10.9865 8.26953H12.8177C13.7138 8.26953 14.4443 9.02927 14.4443 9.97408" stroke="#FAFAFA" stroke-opacity="0.8" stroke-width="1.75325" stroke-linecap="round" stroke-linejoin="round"/>
<path d="M11.9995 7.30469V16.0709" stroke="#FAFAFA" stroke-opacity="0.8" stroke-width="1.75325" stroke-linecap="round" stroke-linejoin="round"/>
<path d="M21.7403 11.6885C21.7403 17.0651 17.3766 21.4288 12 21.4288C6.6234 21.4288 2.25977 17.0651 2.25977 11.6885C2.25977 6.31188 6.6234 1.94824 12 1.94824" stroke="#FAFAFA" stroke-opacity="0.8" stroke-width="1.75325" stroke-linecap="round" stroke-linejoin="round"/>
<path d="M21.7399 5.84435V1.94824H17.8438" stroke="#FAFAFA" stroke-opacity="0.8" stroke-width="1.75325" stroke-linecap="round" stroke-linejoin="round"/>
<path d="M16.8701 6.81837L21.7402 1.94824" stroke="#FAFAFA" stroke-opacity="0.8" stroke-width="1.75325" stroke-linecap="round" stroke-linejoin="round"/>
</svg>
