<svg width="18" height="18" viewBox="0 0 18 18" fill="none" xmlns="http://www.w3.org/2000/svg">
<path d="M17.0959 8.55574L15.137 7.92433C13.884 7.51089 13.1499 6.49699 12.8054 5.22293L11.9434 1.02386C11.9209 0.940893 11.866 0.8298 11.6973 0.8298C11.5553 0.8298 11.4737 0.940893 11.4512 1.02386L10.5892 5.22433C10.2432 6.49839 9.51057 7.5123 8.2576 7.92574L6.2987 8.55714C6.02167 8.64714 6.01745 9.03808 6.29307 9.1323L8.26604 9.81152C9.51479 10.2264 10.2432 11.2389 10.5892 12.5073L11.4526 16.66C11.4751 16.7429 11.5215 16.892 11.6987 16.892C11.8857 16.892 11.9223 16.7429 11.9448 16.66L12.8082 12.5073C13.1542 11.2375 13.8826 10.225 15.1314 9.81152L17.1043 9.1323C17.3771 9.03668 17.3729 8.64574 17.0959 8.55574Z" fill="#FDD835"/>
<path d="M17.282 8.73041C17.2511 8.65307 17.1906 8.58557 17.0964 8.55463L15.1375 7.92323C13.8845 7.50979 13.1505 6.49588 12.8059 5.22182L11.9439 1.02276C11.9313 0.974946 11.8863 0.887758 11.8342 0.862446L12.1127 5.07698C12.3194 7.00073 12.4966 7.90635 14.0322 8.17073C15.3513 8.39854 16.877 8.6601 17.282 8.73041Z" fill="#FFEE58"/>
<path d="M17.2855 8.95089L13.888 9.72996C12.6913 10.0337 12.0318 10.727 12.0318 12.541L11.6985 16.892C11.8124 16.8807 11.9052 16.8189 11.9446 16.66L12.808 12.5073C13.154 11.2375 13.8824 10.225 15.1311 9.81152L17.1041 9.1323C17.1969 9.09855 17.256 9.02964 17.2855 8.95089Z" fill="#F4B400"/>
<path d="M5.87628 12.2092C4.70487 11.8225 4.598 11.3866 4.40112 10.6511L3.91034 8.92986C3.88081 8.81877 3.59112 8.81877 3.56019 8.92986L3.2269 10.5203C3.02862 11.253 2.60675 11.8352 1.88675 12.0728L0.739248 12.5706C0.580341 12.6227 0.577529 12.8477 0.736435 12.9011L1.89237 13.3103C2.60956 13.548 3.02862 14.1302 3.22831 14.86L3.56159 16.3816C3.59253 16.4927 3.88081 16.4927 3.91034 16.3816L4.30128 14.867C4.49956 14.133 4.80331 13.5494 5.77784 13.3103L6.86347 12.9011C7.02237 12.8463 7.02097 12.6213 6.86065 12.5692L5.87628 12.2092Z" fill="#FDD835"/>
<path d="M4.00316 10.6246C4.1227 11.7299 4.18316 12.0365 5.07895 12.2657L6.94504 12.6299C6.92535 12.6032 6.89723 12.5807 6.85926 12.5695L5.87488 12.2081C4.84691 11.8565 4.56285 11.4093 4.3702 10.5149C4.17754 9.62057 3.97223 9.03697 3.97223 9.03697C3.90051 8.84432 3.79785 8.85416 3.79785 8.85416L4.00316 10.6246Z" fill="#FFEE58"/>
<path d="M4.03762 14.4852C4.03762 13.4432 4.60715 12.9271 5.51277 12.9271L6.92184 12.8694C6.92184 12.8694 6.84027 12.9777 6.69824 13.0115L5.77855 13.311C4.99809 13.6246 4.6423 13.7821 4.40043 14.8494C4.40043 14.8494 4.08824 16.0911 4.02918 16.2219C3.94762 16.4047 3.85059 16.4427 3.85059 16.4427L4.03762 14.4852Z" fill="#F4B400"/>
<path d="M8.39925 3.95822C8.478 3.93151 8.47519 3.81901 8.39504 3.79651L7.30941 3.50401C7.0816 3.44213 6.90441 3.26635 6.83972 3.03994L6.41222 1.2751C6.39113 1.18932 6.26879 1.18932 6.24769 1.2765L5.8455 3.03432C5.78363 3.26776 5.60082 3.44776 5.36738 3.50822L4.28879 3.78807C4.20863 3.80916 4.203 3.92166 4.28175 3.94979L5.41941 4.34354C5.62332 4.41385 5.78082 4.57979 5.84269 4.78651L6.2491 6.41635C6.27019 6.50072 6.39113 6.50213 6.41222 6.41635L6.83269 4.78088C6.89597 4.57416 7.05488 4.40963 7.26019 4.34072L8.39925 3.95822Z" fill="#F4B400" stroke="#F4B400" stroke-width="0.140625" stroke-miterlimit="10"/>
</svg>
