<svg width="22" height="23" viewBox="0 0 22 23" fill="none" xmlns="http://www.w3.org/2000/svg">
<path d="M10.9958 2.32812C5.94493 2.32812 1.8291 6.44396 1.8291 11.4948C1.8291 16.5456 5.94493 20.6615 10.9958 20.6615C16.0466 20.6615 20.1624 16.5456 20.1624 11.4948C20.1624 6.44396 16.0466 2.32812 10.9958 2.32812ZM15.3774 9.38646L10.1799 14.584C10.0516 14.7123 9.87743 14.7856 9.6941 14.7856C9.51077 14.7856 9.3366 14.7123 9.20827 14.584L6.6141 11.9898C6.34827 11.724 6.34827 11.284 6.6141 11.0181C6.87993 10.7523 7.31993 10.7523 7.58577 11.0181L9.6941 13.1265L14.4058 8.41479C14.6716 8.14896 15.1116 8.14896 15.3774 8.41479C15.6433 8.68063 15.6433 9.11146 15.3774 9.38646Z" fill="#14AE5C"/>
</svg>
