<svg width="157" height="144" viewBox="0 0 157 144" fill="none" xmlns="http://www.w3.org/2000/svg">
<g filter="url(#filter0_iiii_544_15443)">
<path d="M100.283 2H43.7177C20.6779 2 2.00049 20.6774 2.00049 43.7172V100.283C2.00049 123.323 20.6779 142 43.7177 142H100.283C123.323 142 142.001 123.323 142.001 100.283V43.7172C142.001 20.6774 123.323 2 100.283 2Z" fill="url(#paint0_linear_544_15443)"/>
</g>
<path d="M100.283 1H43.7177C20.1256 1 1.00049 20.1251 1.00049 43.7172V100.283C1.00049 123.875 20.1256 143 43.7177 143H100.283C123.875 143 143.001 123.875 143.001 100.283V43.7172C143.001 20.1251 123.875 1 100.283 1Z" stroke="url(#paint1_linear_544_15443)" stroke-opacity="0.75" stroke-width="2"/>
<path d="M96.0406 16.1426H47.9598C30.3871 16.1426 16.1416 30.3881 16.1416 47.9608V96.0416C16.1416 113.614 30.3871 127.86 47.9598 127.86H96.0406C113.613 127.86 127.859 113.614 127.859 96.0416V47.9608C127.859 30.3881 113.613 16.1426 96.0406 16.1426Z" fill="url(#paint2_linear_544_15443)" stroke="url(#paint3_linear_544_15443)" stroke-width="0.28"/>
<path d="M88.9701 30.2832H55.0307C41.363 30.2832 30.2832 41.363 30.2832 55.0307V88.9701C30.2832 102.638 41.363 113.718 55.0307 113.718H88.9701C102.638 113.718 113.718 102.638 113.718 88.9701V55.0307C113.718 41.363 102.638 30.2832 88.9701 30.2832Z" fill="url(#paint4_linear_544_15443)" stroke="url(#paint5_linear_544_15443)" stroke-width="0.28"/>
<line opacity="0.5" x1="72.1825" y1="2" x2="72.1825" y2="142" stroke="url(#paint6_linear_544_15443)" stroke-width="0.364"/>
<line opacity="0.5" x1="142" y1="72.182" x2="1.99989" y2="72.182" stroke="url(#paint7_linear_544_15443)" stroke-width="0.364"/>
<g filter="url(#filter1_ddddd_544_15443)">
<path d="M72.6652 57.2442V76.831L104.82 65.9107C107.979 64.8381 110.076 62.0694 110.076 58.9731V46.4932C110.076 45.5343 109.134 44.8592 108.226 45.1675L72.6652 57.2442Z" fill="url(#paint8_linear_544_15443)"/>
<path d="M71.9055 37.4763C72.3598 37.6305 72.6653 38.057 72.6653 38.5368V62.4739C72.6653 59.3776 70.5679 56.609 67.4095 55.5364L40.5102 46.4008C37.3519 45.3282 35.2544 42.5595 35.2544 39.4633V26.5925C35.2544 25.8254 36.0082 25.2853 36.7346 25.532L71.9055 37.4763Z" fill="url(#paint9_linear_544_15443)"/>
<path d="M72.6652 76.831L72.6654 96.4177L40.5103 85.4974C37.3519 84.4248 35.2545 81.6562 35.2545 78.5599V65.6891C35.2545 64.922 36.0083 64.3819 36.7346 64.6286L72.6652 76.831Z" fill="url(#paint10_linear_544_15443)"/>
<path fill-rule="evenodd" clip-rule="evenodd" d="M57.2656 79.8646V119.515C57.2656 120.134 57.7671 120.635 58.3856 120.635H71.5579C72.177 120.635 72.6787 120.133 72.6779 119.514L72.6258 79.8646H57.2656Z" fill="url(#paint11_linear_544_15443)"/>
</g>
<defs>
<filter id="filter0_iiii_544_15443" x="-6.23466" y="0" width="150.235" height="150.235" filterUnits="userSpaceOnUse" color-interpolation-filters="sRGB">
<feFlood flood-opacity="0" result="BackgroundImageFix"/>
<feBlend mode="normal" in="SourceGraphic" in2="BackgroundImageFix" result="shape"/>
<feColorMatrix in="SourceAlpha" type="matrix" values="0 0 0 0 0 0 0 0 0 0 0 0 0 0 0 0 0 0 127 0" result="hardAlpha"/>
<feOffset dx="-0.519596" dy="0.519596"/>
<feGaussianBlur stdDeviation="1.03919"/>
<feComposite in2="hardAlpha" operator="arithmetic" k2="-1" k3="1"/>
<feColorMatrix type="matrix" values="0 0 0 0 0 0 0 0 0 0 0 0 0 0 0 0 0 0 0.17 0"/>
<feBlend mode="normal" in2="shape" result="effect1_innerShadow_544_15443"/>
<feColorMatrix in="SourceAlpha" type="matrix" values="0 0 0 0 0 0 0 0 0 0 0 0 0 0 0 0 0 0 127 0" result="hardAlpha"/>
<feOffset dx="-3.11757" dy="2.07838"/>
<feGaussianBlur stdDeviation="1.81859"/>
<feComposite in2="hardAlpha" operator="arithmetic" k2="-1" k3="1"/>
<feColorMatrix type="matrix" values="0 0 0 0 0 0 0 0 0 0 0 0 0 0 0 0 0 0 0.15 0"/>
<feBlend mode="normal" in2="effect1_innerShadow_544_15443" result="effect2_innerShadow_544_15443"/>
<feColorMatrix in="SourceAlpha" type="matrix" values="0 0 0 0 0 0 0 0 0 0 0 0 0 0 0 0 0 0 127 0" result="hardAlpha"/>
<feOffset dx="-6.75475" dy="4.67636"/>
<feGaussianBlur stdDeviation="2.59798"/>
<feComposite in2="hardAlpha" operator="arithmetic" k2="-1" k3="1"/>
<feColorMatrix type="matrix" values="0 0 0 0 0 0 0 0 0 0 0 0 0 0 0 0 0 0 0.09 0"/>
<feBlend mode="normal" in2="effect2_innerShadow_544_15443" result="effect3_innerShadow_544_15443"/>
<feColorMatrix in="SourceAlpha" type="matrix" values="0 0 0 0 0 0 0 0 0 0 0 0 0 0 0 0 0 0 127 0" result="hardAlpha"/>
<feOffset dx="-12.4703" dy="8.83313"/>
<feGaussianBlur stdDeviation="3.11757"/>
<feComposite in2="hardAlpha" operator="arithmetic" k2="-1" k3="1"/>
<feColorMatrix type="matrix" values="0 0 0 0 0 0 0 0 0 0 0 0 0 0 0 0 0 0 0.03 0"/>
<feBlend mode="normal" in2="effect3_innerShadow_544_15443" result="effect4_innerShadow_544_15443"/>
</filter>
<filter id="filter1_ddddd_544_15443" x="33.6956" y="20.2747" width="123.144" height="117.507" filterUnits="userSpaceOnUse" color-interpolation-filters="sRGB">
<feFlood flood-opacity="0" result="BackgroundImageFix"/>
<feColorMatrix in="SourceAlpha" type="matrix" values="0 0 0 0 0 0 0 0 0 0 0 0 0 0 0 0 0 0 127 0" result="hardAlpha"/>
<feOffset dx="1.55879" dy="0.519596"/>
<feGaussianBlur stdDeviation="1.55879"/>
<feColorMatrix type="matrix" values="0 0 0 0 0 0 0 0 0 0 0 0 0 0 0 0 0 0 0.3 0"/>
<feBlend mode="normal" in2="BackgroundImageFix" result="effect1_dropShadow_544_15443"/>
<feColorMatrix in="SourceAlpha" type="matrix" values="0 0 0 0 0 0 0 0 0 0 0 0 0 0 0 0 0 0 127 0" result="hardAlpha"/>
<feOffset dx="5.71555" dy="1.03919"/>
<feGaussianBlur stdDeviation="2.85778"/>
<feColorMatrix type="matrix" values="0 0 0 0 0 0 0 0 0 0 0 0 0 0 0 0 0 0 0.26 0"/>
<feBlend mode="normal" in2="effect1_dropShadow_544_15443" result="effect2_dropShadow_544_15443"/>
<feColorMatrix in="SourceAlpha" type="matrix" values="0 0 0 0 0 0 0 0 0 0 0 0 0 0 0 0 0 0 127 0" result="hardAlpha"/>
<feOffset dx="12.9899" dy="2.59798"/>
<feGaussianBlur stdDeviation="3.89697"/>
<feColorMatrix type="matrix" values="0 0 0 0 0 0 0 0 0 0 0 0 0 0 0 0 0 0 0.15 0"/>
<feBlend mode="normal" in2="effect2_dropShadow_544_15443" result="effect3_dropShadow_544_15443"/>
<feColorMatrix in="SourceAlpha" type="matrix" values="0 0 0 0 0 0 0 0 0 0 0 0 0 0 0 0 0 0 127 0" result="hardAlpha"/>
<feOffset dx="23.3818" dy="4.67636"/>
<feGaussianBlur stdDeviation="4.67636"/>
<feColorMatrix type="matrix" values="0 0 0 0 0 0 0 0 0 0 0 0 0 0 0 0 0 0 0.05 0"/>
<feBlend mode="normal" in2="effect3_dropShadow_544_15443" result="effect4_dropShadow_544_15443"/>
<feColorMatrix in="SourceAlpha" type="matrix" values="0 0 0 0 0 0 0 0 0 0 0 0 0 0 0 0 0 0 127 0" result="hardAlpha"/>
<feOffset dx="36.3717" dy="6.75475"/>
<feGaussianBlur stdDeviation="5.19596"/>
<feColorMatrix type="matrix" values="0 0 0 0 0 0 0 0 0 0 0 0 0 0 0 0 0 0 0.01 0"/>
<feBlend mode="normal" in2="effect4_dropShadow_544_15443" result="effect5_dropShadow_544_15443"/>
<feBlend mode="normal" in="SourceGraphic" in2="effect5_dropShadow_544_15443" result="shape"/>
</filter>
<linearGradient id="paint0_linear_544_15443" x1="3.86458" y1="3.52579" x2="49.7645" y2="90.8142" gradientUnits="userSpaceOnUse">
<stop stop-color="#383838"/>
<stop offset="1" stop-color="#101010"/>
</linearGradient>
<linearGradient id="paint1_linear_544_15443" x1="132" y1="13.5" x2="84.5005" y2="100" gradientUnits="userSpaceOnUse">
<stop stop-color="#B28EFF"/>
<stop offset="1" stop-color="#18004B" stop-opacity="0"/>
</linearGradient>
<linearGradient id="paint2_linear_544_15443" x1="17.4914" y1="17.2219" x2="54.2114" y2="87.0526" gradientUnits="userSpaceOnUse">
<stop stop-color="#2A2A2A"/>
<stop offset="1" stop-color="#111111"/>
</linearGradient>
<linearGradient id="paint3_linear_544_15443" x1="23.7173" y1="34.2153" x2="76.4228" y2="81.3024" gradientUnits="userSpaceOnUse">
<stop stop-color="white" stop-opacity="0.11"/>
<stop offset="1" stop-color="white" stop-opacity="0.04"/>
</linearGradient>
<linearGradient id="paint4_linear_544_15443" x1="31.1188" y1="30.9159" x2="58.6588" y2="83.2889" gradientUnits="userSpaceOnUse">
<stop stop-color="#1A1A1A"/>
<stop offset="1" stop-color="#111111"/>
</linearGradient>
<linearGradient id="paint5_linear_544_15443" x1="35.7883" y1="43.661" x2="75.3174" y2="78.9762" gradientUnits="userSpaceOnUse">
<stop stop-color="white" stop-opacity="0.11"/>
<stop offset="1" stop-color="white" stop-opacity="0.04"/>
</linearGradient>
<linearGradient id="paint6_linear_544_15443" x1="72.0005" y1="140.6" x2="72.0005" y2="2" gradientUnits="userSpaceOnUse">
<stop stop-color="#3C3C3C"/>
<stop offset="0.354167" stop-color="#242424" stop-opacity="0.2"/>
<stop offset="0.666667" stop-color="#242424" stop-opacity="0.2"/>
<stop offset="1" stop-color="#3C3C3C"/>
</linearGradient>
<linearGradient id="paint7_linear_544_15443" x1="3.39989" y1="72" x2="142" y2="72" gradientUnits="userSpaceOnUse">
<stop stop-color="#3C3C3C"/>
<stop offset="0.354167" stop-color="#242424" stop-opacity="0.2"/>
<stop offset="0.666667" stop-color="#242424" stop-opacity="0.2"/>
<stop offset="1" stop-color="#3C3C3C"/>
</linearGradient>
<linearGradient id="paint8_linear_544_15443" x1="30.8378" y1="22.0052" x2="112.155" y2="103.062" gradientUnits="userSpaceOnUse">
<stop stop-color="white"/>
<stop offset="1" stop-color="#E9E9E9"/>
</linearGradient>
<linearGradient id="paint9_linear_544_15443" x1="30.8378" y1="22.0052" x2="112.155" y2="103.062" gradientUnits="userSpaceOnUse">
<stop stop-color="white"/>
<stop offset="1" stop-color="#E9E9E9"/>
</linearGradient>
<linearGradient id="paint10_linear_544_15443" x1="30.8378" y1="22.0052" x2="112.155" y2="103.062" gradientUnits="userSpaceOnUse">
<stop stop-color="white"/>
<stop offset="1" stop-color="#E9E9E9"/>
</linearGradient>
<linearGradient id="paint11_linear_544_15443" x1="30.8378" y1="22.0052" x2="112.155" y2="103.062" gradientUnits="userSpaceOnUse">
<stop stop-color="white"/>
<stop offset="1" stop-color="#E9E9E9"/>
</linearGradient>
</defs>
</svg>
