<svg width="146" height="130" viewBox="0 0 146 130" fill="none" xmlns="http://www.w3.org/2000/svg">
<g filter="url(#filter0_i_37_4048)">
<path d="M45.3491 15.4063V23.1094H38.2612V41.4998C38.2612 44.4839 39.7204 45.2473 41.8051 45.3167C42.8475 45.3167 44.6542 45.2473 45.905 45.1085V53.228C44.7931 53.4362 42.9864 53.575 40.4153 53.575C32.98 53.575 27.9073 50.2439 27.9768 42.9571V23.1094H22.7651V15.4063H27.9768V6.38458H38.2612V15.4063H45.3491Z" fill="url(#paint0_linear_37_4048)"/>
<path d="M49.6768 53.0892V15.4063H59.6138V21.9297H60.0307C61.4205 17.28 64.8949 14.8511 69.1338 14.8511C70.1761 14.8511 71.4964 14.9899 72.3997 15.1981V24.3586C71.4269 24.081 69.4812 23.8034 68.0219 23.8034C63.3662 23.8034 59.9612 27.0651 59.9612 31.6453V53.0892H49.6768Z" fill="url(#paint1_linear_37_4048)"/>
<path d="M75.2682 53.0892V15.4063H85.5526V53.0892H75.2682ZM80.4104 10.479C77.2834 10.479 74.7818 8.11952 74.7818 5.27422C74.7818 2.35952 77.2834 0 80.4104 0C83.4679 0 85.9695 2.35952 85.9695 5.27422C85.9695 8.11952 83.4679 10.479 80.4104 10.479Z" fill="url(#paint2_linear_37_4048)"/>
<path d="M89.6024 42.5408C89.6024 34.1436 96.4123 31.3677 103.639 30.9513C106.349 30.7779 111.422 30.535 113.02 30.4656V27.4121C112.951 24.2892 110.797 22.4154 106.975 22.4154C103.5 22.4154 101.277 24.0116 100.721 26.5793H90.9227C91.5481 20.0559 97.2462 14.9205 107.253 14.9205C115.452 14.9205 123.235 18.5986 123.235 27.6897V53.0892H113.507V47.8844H113.229C111.352 51.3543 107.809 53.7832 102.18 53.7832C94.9531 53.7832 89.6024 50.0357 89.6024 42.5408ZM99.4699 42.2632C99.4699 45.1779 101.832 46.7046 105.098 46.7046C109.754 46.7046 113.09 43.5817 113.02 39.6261V36.8501C111.457 36.9195 107.079 37.1624 105.307 37.3359C101.763 37.6829 99.4699 39.3485 99.4699 42.2632Z" fill="url(#paint3_linear_37_4048)"/>
</g>
<path d="M35.4568 95.8032C34.0635 97.3432 32.2008 98.1132 29.8688 98.1132C27.5368 98.1132 25.6668 97.3432 24.2588 95.8032C22.8655 94.2632 22.1688 92.2979 22.1688 89.9072C22.1688 87.5165 22.8655 85.5512 24.2588 84.0112C25.6668 82.4712 27.5368 81.7012 29.8688 81.7012C32.2008 81.7012 34.0635 82.4712 35.4568 84.0112C36.8648 85.5512 37.5688 87.5165 37.5688 89.9072C37.5688 92.2979 36.8648 94.2632 35.4568 95.8032ZM25.6888 94.5712C26.6862 95.7739 28.0795 96.3752 29.8688 96.3752C31.6582 96.3752 33.0515 95.7739 34.0488 94.5712C35.0462 93.3685 35.5448 91.8139 35.5448 89.9072C35.5448 88.0005 35.0462 86.4459 34.0488 85.2432C33.0515 84.0259 31.6582 83.4172 29.8688 83.4172C28.0795 83.4172 26.6862 84.0259 25.6888 85.2432C24.6915 86.4459 24.1928 88.0005 24.1928 89.9072C24.1928 91.8139 24.6915 93.3685 25.6888 94.5712ZM41.8868 86.4092V87.9052H41.9308C42.8108 86.7319 44.0135 86.1452 45.5388 86.1452C46.7415 86.1452 47.6802 86.4605 48.3548 87.0912C49.0295 87.7219 49.3668 88.6239 49.3668 89.7972V97.7832H47.5848V89.9512C47.5848 89.2179 47.3575 88.6532 46.9028 88.2572C46.4482 87.8465 45.8175 87.6412 45.0108 87.6412C44.1015 87.6412 43.3535 87.9345 42.7668 88.5212C42.1802 89.1079 41.8868 89.8632 41.8868 90.7872V97.7832H40.1048V86.4092H41.8868ZM57.0299 98.0912C55.3432 98.0912 54.0012 97.5265 53.0039 96.3972C52.0212 95.2532 51.5299 93.8232 51.5299 92.1072C51.5299 90.4205 52.0286 89.0052 53.0259 87.8612C54.0379 86.7025 55.3359 86.1232 56.9199 86.1232C58.5919 86.1232 59.8826 86.7099 60.7919 87.8832C61.7012 89.0419 62.1559 90.5892 62.1559 92.5252H53.3559C53.4292 93.7279 53.7812 94.7105 54.4119 95.4732C55.0572 96.2212 55.9299 96.5952 57.0299 96.5952C58.7312 96.5952 59.7799 95.8179 60.1759 94.2632H61.9139C61.6499 95.4805 61.0926 96.4265 60.2419 97.1012C59.3912 97.7612 58.3206 98.0912 57.0299 98.0912ZM59.2959 88.4992C58.7239 87.8539 57.9319 87.5312 56.9199 87.5312C55.9079 87.5312 55.1012 87.8685 54.4999 88.5432C53.9132 89.2179 53.5466 90.0979 53.3999 91.1832H60.2419C60.1832 90.0392 59.8679 89.1445 59.2959 88.4992ZM70.0623 86.4092V87.9052H70.1063C70.9863 86.7319 72.189 86.1452 73.7143 86.1452C74.917 86.1452 75.8556 86.4605 76.5303 87.0912C77.205 87.7219 77.5423 88.6239 77.5423 89.7972V97.7832H75.7603V89.9512C75.7603 89.2179 75.533 88.6532 75.0783 88.2572C74.6236 87.8465 73.993 87.6412 73.1863 87.6412C72.277 87.6412 71.529 87.9345 70.9423 88.5212C70.3556 89.1079 70.0623 89.8632 70.0623 90.7872V97.7832H68.2803V86.4092H70.0623ZM89.2754 97.8932C88.146 97.8932 87.4934 97.3285 87.3174 96.1992H87.2954C86.3567 97.4019 85.0954 98.0032 83.5114 98.0032C82.382 98.0032 81.458 97.7319 80.7394 97.1892C80.0207 96.6465 79.6614 95.8619 79.6614 94.8352C79.6614 94.3072 79.742 93.8525 79.9034 93.4712C80.0794 93.0752 80.2994 92.7599 80.5634 92.5252C80.8274 92.2759 81.1867 92.0632 81.6414 91.8872C82.1107 91.6965 82.558 91.5572 82.9834 91.4692C83.4087 91.3665 83.9514 91.2639 84.6114 91.1612C85.0367 91.1025 85.3374 91.0585 85.5134 91.0292C85.704 90.9852 85.946 90.9265 86.2394 90.8532C86.5327 90.7652 86.738 90.6699 86.8554 90.5672C86.9727 90.4645 87.0827 90.3252 87.1854 90.1492C87.288 89.9732 87.3394 89.7679 87.3394 89.5332C87.3394 88.8879 87.112 88.3965 86.6574 88.0592C86.2174 87.7072 85.594 87.5312 84.7874 87.5312C82.954 87.5312 82.008 88.3672 81.9494 90.0392H80.2334C80.2627 88.8805 80.6587 87.9492 81.4214 87.2452C82.1987 86.5412 83.3134 86.1892 84.7654 86.1892C87.5667 86.1892 88.9674 87.3919 88.9674 89.7972V95.2092C88.9674 95.7079 89.048 96.0599 89.2094 96.2652C89.3854 96.4705 89.708 96.5219 90.1774 96.4192H90.2434V97.7172C89.95 97.8345 89.6274 97.8932 89.2754 97.8932ZM83.9074 96.6392C85.0074 96.6392 85.858 96.3239 86.4594 95.6932C87.0607 95.0479 87.3614 94.3439 87.3614 93.5812V91.6452C86.8187 91.9825 85.9534 92.2612 84.7654 92.4812C84.3254 92.5692 83.9807 92.6425 83.7314 92.7012C83.482 92.7452 83.196 92.8332 82.8734 92.9652C82.5507 93.0825 82.3087 93.2145 82.1474 93.3612C81.986 93.5079 81.8467 93.7059 81.7294 93.9552C81.612 94.1899 81.5534 94.4685 81.5534 94.7912C81.5534 96.0232 82.338 96.6392 83.9074 96.6392ZM91.9982 97.7832V86.4092H93.7802V88.0372H93.8242C94.1909 87.4652 94.6675 87.0105 95.2542 86.6732C95.8409 86.3212 96.4789 86.1452 97.1682 86.1452C98.6495 86.1452 99.6395 86.8199 100.138 88.1692H100.182C100.534 87.5385 101.026 87.0472 101.656 86.6952C102.287 86.3285 102.954 86.1452 103.658 86.1452C104.7 86.1452 105.536 86.4679 106.166 87.1132C106.797 87.7439 107.112 88.6385 107.112 89.7972V97.7832H105.33V89.8852C105.33 89.1959 105.125 88.6532 104.714 88.2572C104.318 87.8465 103.827 87.6412 103.24 87.6412C102.492 87.6412 101.84 87.9345 101.282 88.5212C100.725 89.1079 100.446 89.8339 100.446 90.6992V97.7832H98.6642V89.8852C98.6642 89.1959 98.4809 88.6532 98.1142 88.2572C97.7622 87.8465 97.2929 87.6412 96.7062 87.6412C95.9729 87.6412 95.2982 87.9419 94.6822 88.5432C94.0809 89.1299 93.7802 89.8485 93.7802 90.6992V97.7832H91.9982ZM114.767 98.0912C113.08 98.0912 111.738 97.5265 110.741 96.3972C109.758 95.2532 109.267 93.8232 109.267 92.1072C109.267 90.4205 109.766 89.0052 110.763 87.8612C111.775 86.7025 113.073 86.1232 114.657 86.1232C116.329 86.1232 117.62 86.7099 118.529 87.8832C119.438 89.0419 119.893 90.5892 119.893 92.5252H111.093C111.166 93.7279 111.518 94.7105 112.149 95.4732C112.794 96.2212 113.667 96.5952 114.767 96.5952C116.468 96.5952 117.517 95.8179 117.913 94.2632H119.651C119.387 95.4805 118.83 96.4265 117.979 97.1012C117.128 97.7612 116.058 98.0912 114.767 98.0912ZM117.033 88.4992C116.461 87.8539 115.669 87.5312 114.657 87.5312C113.645 87.5312 112.838 87.8685 112.237 88.5432C111.65 89.2179 111.284 90.0979 111.137 91.1832H117.979C117.92 90.0392 117.605 89.1445 117.033 88.4992ZM121.641 100.599V99.6092C122.301 99.3745 122.631 98.7659 122.631 97.7832H121.619V95.6052H123.753V97.8492C123.753 98.6265 123.562 99.2425 123.181 99.6972C122.799 100.167 122.286 100.467 121.641 100.599ZM10.603 123.893C9.47368 123.893 8.82101 123.329 8.64501 122.199H8.62301C7.68435 123.402 6.42301 124.003 4.83901 124.003C3.70968 124.003 2.78568 123.732 2.06701 123.189C1.34835 122.647 0.989014 121.862 0.989014 120.835C0.989014 120.307 1.06968 119.853 1.23101 119.471C1.40701 119.075 1.62701 118.76 1.89101 118.525C2.15501 118.276 2.51435 118.063 2.96901 117.887C3.43835 117.697 3.88568 117.557 4.31101 117.469C4.73635 117.367 5.27901 117.264 5.93901 117.161C6.36435 117.103 6.66501 117.059 6.84101 117.029C7.03168 116.985 7.27368 116.927 7.56701 116.853C7.86035 116.765 8.06568 116.67 8.18301 116.567C8.30035 116.465 8.41035 116.325 8.51301 116.149C8.61568 115.973 8.66701 115.768 8.66701 115.533C8.66701 114.888 8.43968 114.397 7.98501 114.059C7.54501 113.707 6.92168 113.531 6.11501 113.531C4.28168 113.531 3.33568 114.367 3.27701 116.039H1.56101C1.59035 114.881 1.98635 113.949 2.74901 113.245C3.52635 112.541 4.64101 112.189 6.09301 112.189C8.89435 112.189 10.295 113.392 10.295 115.797V121.209C10.295 121.708 10.3757 122.06 10.537 122.265C10.713 122.471 11.0357 122.522 11.505 122.419H11.571V123.717C11.2777 123.835 10.955 123.893 10.603 123.893ZM5.23501 122.639C6.33501 122.639 7.18568 122.324 7.78701 121.693C8.38835 121.048 8.68901 120.344 8.68901 119.581V117.645C8.14635 117.983 7.28101 118.261 6.09301 118.481C5.65301 118.569 5.30835 118.643 5.05901 118.701C4.80968 118.745 4.52368 118.833 4.20101 118.965C3.87835 119.083 3.63635 119.215 3.47501 119.361C3.31368 119.508 3.17435 119.706 3.05701 119.955C2.93968 120.19 2.88101 120.469 2.88101 120.791C2.88101 122.023 3.66568 122.639 5.23501 122.639ZM13.3919 123.783V108.053H15.1739V123.783H13.3919ZM18.1717 123.783V108.053H19.9537V123.783H18.1717ZM26.1015 113.861V112.409H27.7515V108.823H29.5335V112.409H31.7335V113.861H29.5335V121.253C29.5335 121.957 29.9148 122.309 30.6775 122.309C31.0002 122.309 31.3155 122.258 31.6235 122.155H31.6895V123.695C31.2055 123.798 30.7288 123.849 30.2595 123.849C28.5875 123.849 27.7515 123.116 27.7515 121.649V113.861H26.1015ZM35.7956 108.053V113.905H35.8396C36.7196 112.732 37.9223 112.145 39.4476 112.145C40.6503 112.145 41.5889 112.461 42.2636 113.091C42.9383 113.722 43.2756 114.624 43.2756 115.797V123.783H41.4936V115.951C41.4936 115.218 41.2663 114.653 40.8116 114.257C40.3569 113.847 39.7263 113.641 38.9196 113.641C38.0103 113.641 37.2623 113.935 36.6756 114.521C36.0889 115.108 35.7956 115.863 35.7956 116.787V123.783H34.0136V108.053H35.7956ZM46.0766 123.783V112.409H47.8586V123.783H46.0766ZM46.0766 110.253V108.053H47.8586V110.253H46.0766ZM52.5096 112.409V113.905H52.5536C53.4336 112.732 54.6362 112.145 56.1616 112.145C57.3642 112.145 58.3029 112.461 58.9776 113.091C59.6522 113.722 59.9896 114.624 59.9896 115.797V123.783H58.2076V115.951C58.2076 115.218 57.9802 114.653 57.5256 114.257C57.0709 113.847 56.4402 113.641 55.6336 113.641C54.7242 113.641 53.9762 113.935 53.3896 114.521C52.8029 115.108 52.5096 115.863 52.5096 116.787V123.783H50.7276V112.409H52.5096ZM67.3226 127.567C65.8706 127.567 64.7266 127.289 63.8906 126.731C63.0693 126.189 62.6073 125.419 62.5046 124.421H64.1546C64.316 125.58 65.3573 126.159 67.2786 126.159C69.4493 126.159 70.5346 125.184 70.5346 123.233V121.627H70.4906C70.036 122.214 69.552 122.654 69.0386 122.947C68.5253 123.241 67.8873 123.387 67.1246 123.387C65.658 123.387 64.4626 122.859 63.5386 121.803C62.6146 120.747 62.1526 119.398 62.1526 117.755C62.1526 116.039 62.6146 114.675 63.5386 113.663C64.4773 112.651 65.636 112.145 67.0146 112.145C68.5106 112.145 69.6693 112.717 70.4906 113.861H70.5346V112.409H72.3166V123.167C72.3166 124.619 71.8693 125.712 70.9746 126.445C70.0946 127.193 68.8773 127.567 67.3226 127.567ZM67.2126 121.891C69.5153 121.891 70.6666 120.483 70.6666 117.667C70.6666 114.983 69.508 113.641 67.1906 113.641C66.1493 113.641 65.35 114.015 64.7926 114.763C64.25 115.511 63.9786 116.516 63.9786 117.777C63.9786 119.039 64.2573 120.043 64.8146 120.791C65.372 121.525 66.1713 121.891 67.2126 121.891ZM79.4879 124.113C77.9333 124.113 76.7233 123.769 75.8579 123.079C75.0073 122.375 74.5379 121.378 74.4499 120.087H76.2759C76.4813 121.774 77.5666 122.617 79.5319 122.617C80.4266 122.617 81.0866 122.449 81.5119 122.111C81.9519 121.759 82.1719 121.305 82.1719 120.747C82.1719 120.146 81.9593 119.713 81.5339 119.449C81.1086 119.185 80.3313 118.936 79.2019 118.701C78.7326 118.599 78.3586 118.518 78.0799 118.459C77.8159 118.386 77.4933 118.291 77.1119 118.173C76.7306 118.041 76.4299 117.902 76.2099 117.755C76.0046 117.594 75.7919 117.403 75.5719 117.183C75.3519 116.963 75.1906 116.692 75.0879 116.369C74.9999 116.047 74.9559 115.687 74.9559 115.291C74.9559 114.323 75.3079 113.561 76.0119 113.003C76.7306 112.446 77.7426 112.167 79.0479 112.167C81.7466 112.167 83.2353 113.355 83.5139 115.731H81.6879C81.5999 114.983 81.3433 114.441 80.9179 114.103C80.4926 113.751 79.8546 113.575 79.0039 113.575C78.2266 113.575 77.6473 113.729 77.2659 114.037C76.8993 114.331 76.7159 114.719 76.7159 115.203C76.7159 115.761 76.9359 116.157 77.3759 116.391C77.8159 116.611 78.6153 116.839 79.7739 117.073C80.4779 117.22 81.0279 117.359 81.4239 117.491C81.8346 117.609 82.2599 117.799 82.6999 118.063C83.1399 118.313 83.4626 118.65 83.6679 119.075C83.8733 119.501 83.9759 120.029 83.9759 120.659C83.9759 121.774 83.5653 122.632 82.7439 123.233C81.9226 123.82 80.8373 124.113 79.4879 124.113ZM93.2317 123.783L89.1617 108.053H91.2297L93.7157 118.283L94.3097 120.945H94.3537C94.6031 119.831 94.8231 118.929 95.0137 118.239L97.8517 108.053H99.9857L102.736 118.239L103.374 120.945H103.418C103.667 119.816 103.872 118.929 104.034 118.283L106.652 108.053H108.654L104.276 123.783H102.384L99.5017 112.695L98.9297 110.297H98.8857C98.6657 111.28 98.4677 112.079 98.2917 112.695L95.2117 123.783H93.2317ZM114.379 124.091C112.693 124.091 111.351 123.527 110.353 122.397C109.371 121.253 108.879 119.823 108.879 118.107C108.879 116.421 109.378 115.005 110.375 113.861C111.387 112.703 112.685 112.123 114.269 112.123C115.941 112.123 117.232 112.71 118.141 113.883C119.051 115.042 119.505 116.589 119.505 118.525H110.705C110.779 119.728 111.131 120.711 111.761 121.473C112.407 122.221 113.279 122.595 114.379 122.595C116.081 122.595 117.129 121.818 117.525 120.263H119.263C118.999 121.481 118.442 122.427 117.591 123.101C116.741 123.761 115.67 124.091 114.379 124.091ZM116.645 114.499C116.073 113.854 115.281 113.531 114.269 113.531C113.257 113.531 112.451 113.869 111.849 114.543C111.263 115.218 110.896 116.098 110.749 117.183H117.591C117.533 116.039 117.217 115.145 116.645 114.499ZM127.1 124.113C125.589 124.113 124.394 123.505 123.514 122.287H123.47V123.783H121.688V108.053H123.47V114.037H123.514C124.438 112.776 125.655 112.145 127.166 112.145C128.633 112.145 129.806 112.681 130.686 113.751C131.566 114.807 132.006 116.267 132.006 118.129C132.006 119.963 131.566 121.422 130.686 122.507C129.821 123.578 128.625 124.113 127.1 124.113ZM126.968 122.617C128.024 122.617 128.823 122.214 129.366 121.407C129.909 120.586 130.18 119.501 130.18 118.151C130.18 116.817 129.909 115.739 129.366 114.917C128.823 114.081 128.031 113.663 126.99 113.663C125.802 113.663 124.9 114.089 124.284 114.939C123.668 115.775 123.36 116.846 123.36 118.151C123.36 119.486 123.668 120.564 124.284 121.385C124.9 122.207 125.795 122.617 126.968 122.617ZM139.416 124.113C137.7 124.113 136.277 123.644 135.148 122.705C134.018 121.767 133.439 120.469 133.41 118.811H135.236C135.265 120.014 135.639 120.945 136.358 121.605C137.091 122.251 138.088 122.573 139.35 122.573C140.435 122.573 141.3 122.309 141.946 121.781C142.591 121.239 142.914 120.447 142.914 119.405C142.914 118.452 142.569 117.726 141.88 117.227C141.205 116.729 140.23 116.479 138.954 116.479H138.008V115.049H138.932C140.09 115.049 140.97 114.822 141.572 114.367C142.173 113.913 142.474 113.275 142.474 112.453C142.474 111.647 142.158 111.009 141.528 110.539C140.912 110.055 140.134 109.813 139.196 109.813C138.125 109.813 137.274 110.136 136.644 110.781C136.028 111.412 135.72 112.255 135.72 113.311H133.916C133.93 111.815 134.414 110.62 135.368 109.725C136.321 108.816 137.619 108.361 139.262 108.361C140.699 108.361 141.894 108.735 142.848 109.483C143.801 110.217 144.278 111.221 144.278 112.497C144.278 114.052 143.449 115.108 141.792 115.665V115.731C143.816 116.259 144.828 117.543 144.828 119.581C144.828 120.989 144.314 122.097 143.288 122.903C142.276 123.71 140.985 124.113 139.416 124.113Z" fill="url(#paint4_linear_37_4048)"/>
<defs>
<filter id="filter0_i_37_4048" x="22.7651" y="0" width="103.021" height="54.7401" filterUnits="userSpaceOnUse" color-interpolation-filters="sRGB">
<feFlood flood-opacity="0" result="BackgroundImageFix"/>
<feBlend mode="normal" in="SourceGraphic" in2="BackgroundImageFix" result="shape"/>
<feColorMatrix in="SourceAlpha" type="matrix" values="0 0 0 0 0 0 0 0 0 0 0 0 0 0 0 0 0 0 127 0" result="hardAlpha"/>
<feOffset dx="2.55162" dy="0.956857"/>
<feGaussianBlur stdDeviation="1.27581"/>
<feComposite in2="hardAlpha" operator="arithmetic" k2="-1" k3="1"/>
<feColorMatrix type="matrix" values="0 0 0 0 0 0 0 0 0 0 0 0 0 0 0 0 0 0 0.07 0"/>
<feBlend mode="normal" in2="shape" result="effect1_innerShadow_37_4048"/>
</filter>
<linearGradient id="paint0_linear_37_4048" x1="125.663" y1="53.6637" x2="18.2832" y2="-1.24" gradientUnits="userSpaceOnUse">
<stop stop-color="#FBFBFB"/>
<stop offset="1" stop-color="white"/>
</linearGradient>
<linearGradient id="paint1_linear_37_4048" x1="125.663" y1="53.6637" x2="18.2832" y2="-1.24" gradientUnits="userSpaceOnUse">
<stop stop-color="#FBFBFB"/>
<stop offset="1" stop-color="white"/>
</linearGradient>
<linearGradient id="paint2_linear_37_4048" x1="125.663" y1="53.6637" x2="18.2832" y2="-1.24" gradientUnits="userSpaceOnUse">
<stop stop-color="#FBFBFB"/>
<stop offset="1" stop-color="white"/>
</linearGradient>
<linearGradient id="paint3_linear_37_4048" x1="125.663" y1="53.6637" x2="18.2832" y2="-1.24" gradientUnits="userSpaceOnUse">
<stop stop-color="#FBFBFB"/>
<stop offset="1" stop-color="white"/>
</linearGradient>
<linearGradient id="paint4_linear_37_4048" x1="73" y1="77.7832" x2="72.6124" y2="135.109" gradientUnits="userSpaceOnUse">
<stop offset="0.449267" stop-color="#FAFAFA" stop-opacity="0.9"/>
<stop offset="1" stop-color="#FAFAFA" stop-opacity="0.4"/>
</linearGradient>
</defs>
</svg>
