<svg xmlns="http://www.w3.org/2000/svg" width="84" height="30" viewBox="0 0 84 30" fill="none">
<rect x="0.5" y="1.5" width="74" height="28" rx="14" fill="#FAFAFA" fill-opacity="0.02"/>
<rect x="0.5" y="1.5" width="74" height="28" rx="14" stroke="url(#paint0_linear_143_984)"/>
<path d="M20.448 20C20.4573 19.6547 20.4993 19.328 20.574 19.02C20.6487 18.712 20.7327 18.4507 20.826 18.236C20.9193 18.012 21.0687 17.7833 21.274 17.55C21.4793 17.3073 21.6427 17.1253 21.764 17.004C21.8853 16.8733 22.0907 16.7053 22.38 16.5C22.6787 16.2947 22.884 16.1593 22.996 16.094C23.1173 16.0193 23.3413 15.884 23.668 15.688C24.48 15.2027 25.0027 14.8433 25.236 14.61C25.656 14.19 25.866 13.6627 25.866 13.028C25.866 12.3933 25.6793 11.894 25.306 11.53C24.9327 11.166 24.4287 10.984 23.794 10.984C23.1127 10.984 22.5807 11.1893 22.198 11.6C21.806 12.0293 21.6053 12.6593 21.596 13.49H20.672C20.672 12.454 20.9567 11.6513 21.526 11.082C22.1047 10.5033 22.8793 10.214 23.85 10.214C24.7367 10.214 25.446 10.48 25.978 11.012C26.5193 11.5347 26.79 12.1973 26.79 13C26.79 13.4293 26.7293 13.8073 26.608 14.134C26.496 14.4607 26.2907 14.764 25.992 15.044C25.7027 15.3147 25.4553 15.52 25.25 15.66C25.054 15.8 24.732 16.0007 24.284 16.262C24.2373 16.29 24.2047 16.3133 24.186 16.332C24.1673 16.3413 24.1393 16.3553 24.102 16.374C24.0647 16.3927 24.032 16.4113 24.004 16.43C23.64 16.6447 23.3553 16.822 23.15 16.962C22.9447 17.102 22.702 17.2887 22.422 17.522C22.1513 17.7553 21.9367 18.0073 21.778 18.278C21.6287 18.5487 21.5307 18.8427 21.484 19.16H26.664V20H20.448ZM31.0814 20.196C30.1761 20.196 29.4248 19.9393 28.8274 19.426C28.2394 18.9033 27.9361 18.2313 27.9174 17.41H28.8134C28.9814 18.7167 29.7328 19.37 31.0674 19.37C31.7674 19.37 32.3181 19.146 32.7194 18.698C33.1301 18.2407 33.3354 17.6433 33.3354 16.906C33.3354 16.178 33.1301 15.5993 32.7194 15.17C32.3088 14.7407 31.7768 14.526 31.1234 14.526C30.1714 14.526 29.4714 14.8527 29.0234 15.506H28.1554L29.0094 10.41H33.7834V11.222H29.6674L29.1354 14.498H29.1634C29.7234 13.9847 30.4281 13.728 31.2774 13.728C32.1081 13.728 32.8128 14.0127 33.3914 14.582C33.9701 15.1513 34.2594 15.9353 34.2594 16.934C34.2594 17.9047 33.9654 18.6933 33.3774 19.3C32.7988 19.8973 32.0334 20.196 31.0814 20.196ZM37.551 20L40.995 14.89L37.747 9.99H38.825L41.555 14.218H41.583L44.285 9.99H45.321L42.087 14.904L45.475 20H44.369L41.527 15.576H41.499L38.615 20H37.551ZM46.8168 20V9.99H50.7508C51.7681 9.99 52.5521 10.2793 53.1028 10.858C53.5694 11.3527 53.8028 11.9967 53.8028 12.79C53.8028 13.7233 53.5321 14.4327 52.9908 14.918C52.4588 15.4033 51.6701 15.646 50.6248 15.646H47.7548V20H46.8168ZM47.7548 14.848H50.5548C52.0854 14.848 52.8508 14.1713 52.8508 12.818C52.8508 12.174 52.6594 11.6793 52.2768 11.334C51.9034 10.9887 51.3574 10.816 50.6388 10.816H47.7548V14.848Z" fill="#FAFAFA" fill-opacity="0.9"/>
<path d="M20.448 20C20.4573 19.6547 20.4993 19.328 20.574 19.02C20.6487 18.712 20.7327 18.4507 20.826 18.236C20.9193 18.012 21.0687 17.7833 21.274 17.55C21.4793 17.3073 21.6427 17.1253 21.764 17.004C21.8853 16.8733 22.0907 16.7053 22.38 16.5C22.6787 16.2947 22.884 16.1593 22.996 16.094C23.1173 16.0193 23.3413 15.884 23.668 15.688C24.48 15.2027 25.0027 14.8433 25.236 14.61C25.656 14.19 25.866 13.6627 25.866 13.028C25.866 12.3933 25.6793 11.894 25.306 11.53C24.9327 11.166 24.4287 10.984 23.794 10.984C23.1127 10.984 22.5807 11.1893 22.198 11.6C21.806 12.0293 21.6053 12.6593 21.596 13.49H20.672C20.672 12.454 20.9567 11.6513 21.526 11.082C22.1047 10.5033 22.8793 10.214 23.85 10.214C24.7367 10.214 25.446 10.48 25.978 11.012C26.5193 11.5347 26.79 12.1973 26.79 13C26.79 13.4293 26.7293 13.8073 26.608 14.134C26.496 14.4607 26.2907 14.764 25.992 15.044C25.7027 15.3147 25.4553 15.52 25.25 15.66C25.054 15.8 24.732 16.0007 24.284 16.262C24.2373 16.29 24.2047 16.3133 24.186 16.332C24.1673 16.3413 24.1393 16.3553 24.102 16.374C24.0647 16.3927 24.032 16.4113 24.004 16.43C23.64 16.6447 23.3553 16.822 23.15 16.962C22.9447 17.102 22.702 17.2887 22.422 17.522C22.1513 17.7553 21.9367 18.0073 21.778 18.278C21.6287 18.5487 21.5307 18.8427 21.484 19.16H26.664V20H20.448ZM31.0814 20.196C30.1761 20.196 29.4248 19.9393 28.8274 19.426C28.2394 18.9033 27.9361 18.2313 27.9174 17.41H28.8134C28.9814 18.7167 29.7328 19.37 31.0674 19.37C31.7674 19.37 32.3181 19.146 32.7194 18.698C33.1301 18.2407 33.3354 17.6433 33.3354 16.906C33.3354 16.178 33.1301 15.5993 32.7194 15.17C32.3088 14.7407 31.7768 14.526 31.1234 14.526C30.1714 14.526 29.4714 14.8527 29.0234 15.506H28.1554L29.0094 10.41H33.7834V11.222H29.6674L29.1354 14.498H29.1634C29.7234 13.9847 30.4281 13.728 31.2774 13.728C32.1081 13.728 32.8128 14.0127 33.3914 14.582C33.9701 15.1513 34.2594 15.9353 34.2594 16.934C34.2594 17.9047 33.9654 18.6933 33.3774 19.3C32.7988 19.8973 32.0334 20.196 31.0814 20.196ZM37.551 20L40.995 14.89L37.747 9.99H38.825L41.555 14.218H41.583L44.285 9.99H45.321L42.087 14.904L45.475 20H44.369L41.527 15.576H41.499L38.615 20H37.551ZM46.8168 20V9.99H50.7508C51.7681 9.99 52.5521 10.2793 53.1028 10.858C53.5694 11.3527 53.8028 11.9967 53.8028 12.79C53.8028 13.7233 53.5321 14.4327 52.9908 14.918C52.4588 15.4033 51.6701 15.646 50.6248 15.646H47.7548V20H46.8168ZM47.7548 14.848H50.5548C52.0854 14.848 52.8508 14.1713 52.8508 12.818C52.8508 12.174 52.6594 11.6793 52.2768 11.334C51.9034 10.9887 51.3574 10.816 50.6388 10.816H47.7548V14.848Z" fill="url(#paint1_linear_143_984)"/>
<path d="M83.0956 9.17876L81.1367 8.54735C79.8838 8.13391 79.1497 7.12001 78.8052 5.84595L77.9431 1.64688C77.9206 1.56391 77.8658 1.45282 77.697 1.45282C77.555 1.45282 77.4735 1.56391 77.451 1.64688L76.5889 5.84735C76.243 7.12141 75.5103 8.13532 74.2574 8.54876L72.2985 9.18016C72.0214 9.27016 72.0172 9.6611 72.2928 9.75532L74.2658 10.4345C75.5145 10.8494 76.243 11.8619 76.5889 13.1303L77.4524 17.283C77.4749 17.3659 77.5213 17.515 77.6985 17.515C77.8855 17.515 77.922 17.3659 77.9445 17.283L78.808 13.1303C79.1539 11.8605 79.8824 10.848 81.1311 10.4345L83.1041 9.75532C83.3769 9.6597 83.3727 9.26876 83.0956 9.17876Z" fill="#FDD835"/>
<path d="M83.2818 9.35344C83.2509 9.2761 83.1904 9.2086 83.0962 9.17766L81.1373 8.54625C79.8843 8.13282 79.1502 7.11891 78.8057 5.84485L77.9437 1.64579C77.931 1.59797 77.886 1.51079 77.834 1.48547L78.1124 5.7C78.3191 7.62375 78.4963 8.52938 80.032 8.79375C81.351 9.02157 82.8768 9.28313 83.2818 9.35344Z" fill="#FFEE58"/>
<path d="M83.2853 9.57391L79.8878 10.353C78.6911 10.6567 78.0315 11.35 78.0315 13.1641L77.6982 17.515C77.8121 17.5038 77.905 17.4419 77.9443 17.283L78.8078 13.1303C79.1537 11.8605 79.8821 10.848 81.1309 10.4345L83.1039 9.75532C83.1967 9.72157 83.2557 9.65266 83.2853 9.57391Z" fill="#F4B400"/>
<path d="M71.8763 12.8322C70.7049 12.4455 70.598 12.0096 70.4011 11.2741L69.9103 9.55286C69.8808 9.44177 69.5911 9.44177 69.5602 9.55286L69.2269 11.1433C69.0286 11.876 68.6067 12.4582 67.8867 12.6958L66.7392 13.1936C66.5803 13.2457 66.5775 13.4707 66.7364 13.5241L67.8924 13.9333C68.6096 14.171 69.0286 14.7532 69.2283 15.483L69.5616 17.0046C69.5925 17.1157 69.8808 17.1157 69.9103 17.0046L70.3013 15.4901C70.4996 14.756 70.8033 14.1724 71.7778 13.9333L72.8635 13.5241C73.0224 13.4693 73.021 13.2443 72.8607 13.1922L71.8763 12.8322Z" fill="#FDD835"/>
<path d="M70.0032 11.2476C70.1227 12.3529 70.1832 12.6595 71.0789 12.8887L72.945 13.2529C72.9254 13.2262 72.8972 13.2037 72.8593 13.1924L71.8749 12.831C70.8469 12.4795 70.5629 12.0323 70.3702 11.1379C70.1775 10.2435 69.9722 9.65995 69.9722 9.65995C69.9005 9.46729 69.7979 9.47714 69.7979 9.47714L70.0032 11.2476Z" fill="#FFEE58"/>
<path d="M70.0376 15.1082C70.0376 14.0662 70.6071 13.5501 71.5128 13.5501L72.9218 13.4924C72.9218 13.4924 72.8403 13.6007 72.6982 13.6345L71.7786 13.934C70.9981 14.2476 70.6423 14.4051 70.4004 15.4724C70.4004 15.4724 70.0882 16.7141 70.0292 16.8449C69.9476 17.0277 69.8506 17.0657 69.8506 17.0657L70.0376 15.1082Z" fill="#F4B400"/>
<path d="M74.3993 4.58127C74.478 4.55455 74.4752 4.44205 74.395 4.41955L73.3094 4.12705C73.0816 4.06518 72.9044 3.8894 72.8397 3.66299L72.4122 1.89815C72.3911 1.81236 72.2688 1.81236 72.2477 1.89955L71.8455 3.65736C71.7836 3.8908 71.6008 4.0708 71.3674 4.13127L70.2888 4.41111C70.2086 4.43221 70.203 4.54471 70.2818 4.57283L71.4194 4.96658C71.6233 5.0369 71.7808 5.20283 71.8427 5.40955L72.2491 7.0394C72.2702 7.12377 72.3911 7.12518 72.4122 7.0394L72.8327 5.40393C72.896 5.19721 73.0549 5.03268 73.2602 4.96377L74.3993 4.58127Z" fill="#F4B400" stroke="#F4B400" stroke-width="0.140625" stroke-miterlimit="10"/>
<defs>
<linearGradient id="paint0_linear_143_984" x1="5.65476" y1="19.123" x2="78.8967" y2="23.6151" gradientUnits="userSpaceOnUse">
<stop stop-color="#DDC85A" stop-opacity="0.8"/>
<stop offset="1" stop-color="#FFEE58" stop-opacity="0.02"/>
</linearGradient>
<linearGradient id="paint1_linear_143_984" x1="62.7206" y1="19.6231" x2="19.9611" y2="19.1517" gradientUnits="userSpaceOnUse">
<stop stop-color="#DDC85A" stop-opacity="0.5"/>
<stop offset="1" stop-color="#DDC85A"/>
</linearGradient>
</defs>
</svg>