<svg xmlns="http://www.w3.org/2000/svg" width="84" height="30" viewBox="0 0 84 30" fill="none">
<rect x="0.5" y="1.5" width="74" height="28" rx="14" fill="#FAFAFA" fill-opacity="0.02"/>
<rect x="0.5" y="1.5" width="74" height="28" rx="14" stroke="url(#paint0_linear_157_42)"/>
<path d="M20.448 20C20.4573 19.6547 20.4993 19.328 20.574 19.02C20.6487 18.712 20.7327 18.4507 20.826 18.236C20.9193 18.012 21.0687 17.7833 21.274 17.55C21.4793 17.3073 21.6427 17.1253 21.764 17.004C21.8853 16.8733 22.0907 16.7053 22.38 16.5C22.6787 16.2947 22.884 16.1593 22.996 16.094C23.1173 16.0193 23.3413 15.884 23.668 15.688C24.48 15.2027 25.0027 14.8433 25.236 14.61C25.656 14.19 25.866 13.6627 25.866 13.028C25.866 12.3933 25.6793 11.894 25.306 11.53C24.9327 11.166 24.4287 10.984 23.794 10.984C23.1127 10.984 22.5807 11.1893 22.198 11.6C21.806 12.0293 21.6053 12.6593 21.596 13.49H20.672C20.672 12.454 20.9567 11.6513 21.526 11.082C22.1047 10.5033 22.8793 10.214 23.85 10.214C24.7367 10.214 25.446 10.48 25.978 11.012C26.5193 11.5347 26.79 12.1973 26.79 13C26.79 13.4293 26.7293 13.8073 26.608 14.134C26.496 14.4607 26.2907 14.764 25.992 15.044C25.7027 15.3147 25.4553 15.52 25.25 15.66C25.054 15.8 24.732 16.0007 24.284 16.262C24.2373 16.29 24.2047 16.3133 24.186 16.332C24.1673 16.3413 24.1393 16.3553 24.102 16.374C24.0647 16.3927 24.032 16.4113 24.004 16.43C23.64 16.6447 23.3553 16.822 23.15 16.962C22.9447 17.102 22.702 17.2887 22.422 17.522C22.1513 17.7553 21.9367 18.0073 21.778 18.278C21.6287 18.5487 21.5307 18.8427 21.484 19.16H26.664V20H20.448ZM31.0814 20.196C30.1761 20.196 29.4248 19.9393 28.8274 19.426C28.2394 18.9033 27.9361 18.2313 27.9174 17.41H28.8134C28.9814 18.7167 29.7328 19.37 31.0674 19.37C31.7674 19.37 32.3181 19.146 32.7194 18.698C33.1301 18.2407 33.3354 17.6433 33.3354 16.906C33.3354 16.178 33.1301 15.5993 32.7194 15.17C32.3088 14.7407 31.7768 14.526 31.1234 14.526C30.1714 14.526 29.4714 14.8527 29.0234 15.506H28.1554L29.0094 10.41H33.7834V11.222H29.6674L29.1354 14.498H29.1634C29.7234 13.9847 30.4281 13.728 31.2774 13.728C32.1081 13.728 32.8128 14.0127 33.3914 14.582C33.9701 15.1513 34.2594 15.9353 34.2594 16.934C34.2594 17.9047 33.9654 18.6933 33.3774 19.3C32.7988 19.8973 32.0334 20.196 31.0814 20.196ZM37.551 20L40.995 14.89L37.747 9.99H38.825L41.555 14.218H41.583L44.285 9.99H45.321L42.087 14.904L45.475 20H44.369L41.527 15.576H41.499L38.615 20H37.551ZM46.8168 20V9.99H50.7508C51.7681 9.99 52.5521 10.2793 53.1028 10.858C53.5694 11.3527 53.8028 11.9967 53.8028 12.79C53.8028 13.7233 53.5321 14.4327 52.9908 14.918C52.4588 15.4033 51.6701 15.646 50.6248 15.646H47.7548V20H46.8168ZM47.7548 14.848H50.5548C52.0854 14.848 52.8508 14.1713 52.8508 12.818C52.8508 12.174 52.6594 11.6793 52.2768 11.334C51.9034 10.9887 51.3574 10.816 50.6388 10.816H47.7548V14.848Z" fill="#FAFAFA" fill-opacity="0.9"/>
<path d="M20.448 20C20.4573 19.6547 20.4993 19.328 20.574 19.02C20.6487 18.712 20.7327 18.4507 20.826 18.236C20.9193 18.012 21.0687 17.7833 21.274 17.55C21.4793 17.3073 21.6427 17.1253 21.764 17.004C21.8853 16.8733 22.0907 16.7053 22.38 16.5C22.6787 16.2947 22.884 16.1593 22.996 16.094C23.1173 16.0193 23.3413 15.884 23.668 15.688C24.48 15.2027 25.0027 14.8433 25.236 14.61C25.656 14.19 25.866 13.6627 25.866 13.028C25.866 12.3933 25.6793 11.894 25.306 11.53C24.9327 11.166 24.4287 10.984 23.794 10.984C23.1127 10.984 22.5807 11.1893 22.198 11.6C21.806 12.0293 21.6053 12.6593 21.596 13.49H20.672C20.672 12.454 20.9567 11.6513 21.526 11.082C22.1047 10.5033 22.8793 10.214 23.85 10.214C24.7367 10.214 25.446 10.48 25.978 11.012C26.5193 11.5347 26.79 12.1973 26.79 13C26.79 13.4293 26.7293 13.8073 26.608 14.134C26.496 14.4607 26.2907 14.764 25.992 15.044C25.7027 15.3147 25.4553 15.52 25.25 15.66C25.054 15.8 24.732 16.0007 24.284 16.262C24.2373 16.29 24.2047 16.3133 24.186 16.332C24.1673 16.3413 24.1393 16.3553 24.102 16.374C24.0647 16.3927 24.032 16.4113 24.004 16.43C23.64 16.6447 23.3553 16.822 23.15 16.962C22.9447 17.102 22.702 17.2887 22.422 17.522C22.1513 17.7553 21.9367 18.0073 21.778 18.278C21.6287 18.5487 21.5307 18.8427 21.484 19.16H26.664V20H20.448ZM31.0814 20.196C30.1761 20.196 29.4248 19.9393 28.8274 19.426C28.2394 18.9033 27.9361 18.2313 27.9174 17.41H28.8134C28.9814 18.7167 29.7328 19.37 31.0674 19.37C31.7674 19.37 32.3181 19.146 32.7194 18.698C33.1301 18.2407 33.3354 17.6433 33.3354 16.906C33.3354 16.178 33.1301 15.5993 32.7194 15.17C32.3088 14.7407 31.7768 14.526 31.1234 14.526C30.1714 14.526 29.4714 14.8527 29.0234 15.506H28.1554L29.0094 10.41H33.7834V11.222H29.6674L29.1354 14.498H29.1634C29.7234 13.9847 30.4281 13.728 31.2774 13.728C32.1081 13.728 32.8128 14.0127 33.3914 14.582C33.9701 15.1513 34.2594 15.9353 34.2594 16.934C34.2594 17.9047 33.9654 18.6933 33.3774 19.3C32.7988 19.8973 32.0334 20.196 31.0814 20.196ZM37.551 20L40.995 14.89L37.747 9.99H38.825L41.555 14.218H41.583L44.285 9.99H45.321L42.087 14.904L45.475 20H44.369L41.527 15.576H41.499L38.615 20H37.551ZM46.8168 20V9.99H50.7508C51.7681 9.99 52.5521 10.2793 53.1028 10.858C53.5694 11.3527 53.8028 11.9967 53.8028 12.79C53.8028 13.7233 53.5321 14.4327 52.9908 14.918C52.4588 15.4033 51.6701 15.646 50.6248 15.646H47.7548V20H46.8168ZM47.7548 14.848H50.5548C52.0854 14.848 52.8508 14.1713 52.8508 12.818C52.8508 12.174 52.6594 11.6793 52.2768 11.334C51.9034 10.9887 51.3574 10.816 50.6388 10.816H47.7548V14.848Z" fill="url(#paint1_linear_157_42)"/>
<path d="M83.0959 9.17879L81.137 8.54738C79.884 8.13394 79.1499 7.12004 78.8054 5.84598L77.9434 1.64691C77.9209 1.56394 77.866 1.45285 77.6973 1.45285C77.5553 1.45285 77.4737 1.56394 77.4512 1.64691L76.5892 5.84738C76.2432 7.12144 75.5106 8.13535 74.2576 8.54879L72.2987 9.1802C72.0217 9.2702 72.0174 9.66113 72.2931 9.75535L74.266 10.4346C75.5148 10.8494 76.2432 11.8619 76.5892 13.1304L77.4526 17.283C77.4751 17.366 77.5215 17.515 77.6987 17.515C77.8857 17.515 77.9223 17.366 77.9448 17.283L78.8082 13.1304C79.1542 11.8605 79.8826 10.848 81.1314 10.4346L83.1043 9.75535C83.3771 9.65973 83.3729 9.26879 83.0959 9.17879Z" fill="#FDD835"/>
<path d="M83.282 9.35347C83.2511 9.27613 83.1906 9.20863 83.0964 9.17769L81.1375 8.54629C79.8845 8.13285 79.1505 7.11894 78.8059 5.84488L77.9439 1.64582C77.9313 1.598 77.8863 1.51082 77.8342 1.4855L78.1127 5.70004C78.3194 7.62379 78.4966 8.52941 80.0322 8.79379C81.3513 9.0216 82.877 9.28316 83.282 9.35347Z" fill="#FFEE58"/>
<path d="M83.2855 9.57394L79.888 10.353C78.6913 10.6568 78.0318 11.35 78.0318 13.1641L77.6985 17.515C77.8124 17.5038 77.9052 17.4419 77.9446 17.283L78.808 13.1304C79.154 11.8605 79.8824 10.848 81.1311 10.4346L83.1041 9.75535C83.1969 9.7216 83.256 9.65269 83.2855 9.57394Z" fill="#F4B400"/>
<path d="M71.8763 12.8323C70.7049 12.4456 70.598 12.0096 70.4011 11.2742L69.9103 9.55292C69.8808 9.44183 69.5911 9.44183 69.5602 9.55292L69.2269 11.1434C69.0286 11.876 68.6067 12.4582 67.8867 12.6959L66.7392 13.1937C66.5803 13.2457 66.5775 13.4707 66.7364 13.5242L67.8924 13.9334C68.6096 14.171 69.0286 14.7532 69.2283 15.4831L69.5616 17.0046C69.5925 17.1157 69.8808 17.1157 69.9103 17.0046L70.3013 15.4901C70.4996 14.756 70.8033 14.1725 71.7778 13.9334L72.8635 13.5242C73.0224 13.4693 73.021 13.2443 72.8607 13.1923L71.8763 12.8323Z" fill="#FDD835"/>
<path d="M70.0032 11.2477C70.1227 12.353 70.1832 12.6596 71.0789 12.8888L72.945 13.253C72.9254 13.2263 72.8972 13.2038 72.8593 13.1925L71.8749 12.8311C70.8469 12.4796 70.5629 12.0324 70.3702 11.138C70.1775 10.2436 69.9722 9.66004 69.9722 9.66004C69.9005 9.46738 69.7979 9.47723 69.7979 9.47723L70.0032 11.2477Z" fill="#FFEE58"/>
<path d="M70.0376 15.1083C70.0376 14.0662 70.6071 13.5501 71.5128 13.5501L72.9218 13.4925C72.9218 13.4925 72.8403 13.6008 72.6982 13.6345L71.7786 13.9341C70.9981 14.2476 70.6423 14.4051 70.4004 15.4725C70.4004 15.4725 70.0882 16.7142 70.0292 16.845C69.9476 17.0278 69.8506 17.0658 69.8506 17.0658L70.0376 15.1083Z" fill="#F4B400"/>
<path d="M74.3993 4.58127C74.478 4.55455 74.4752 4.44205 74.395 4.41955L73.3094 4.12705C73.0816 4.06518 72.9044 3.8894 72.8397 3.66299L72.4122 1.89815C72.3911 1.81236 72.2688 1.81236 72.2477 1.89955L71.8455 3.65736C71.7836 3.8908 71.6008 4.0708 71.3674 4.13127L70.2888 4.41111C70.2086 4.43221 70.203 4.54471 70.2818 4.57283L71.4194 4.96658C71.6233 5.0369 71.7808 5.20283 71.8427 5.40955L72.2491 7.0394C72.2702 7.12377 72.3911 7.12518 72.4122 7.0394L72.8327 5.40393C72.896 5.19721 73.0549 5.03268 73.2602 4.96377L74.3993 4.58127Z" fill="#F4B400" stroke="#F4B400" stroke-width="0.140625" stroke-miterlimit="10"/>
<defs>
<linearGradient id="paint0_linear_157_42" x1="5.65476" y1="19.123" x2="78.8967" y2="23.6151" gradientUnits="userSpaceOnUse">
<stop stop-color="#DDC85A" stop-opacity="0.8"/>
<stop offset="1" stop-color="#FFEE58" stop-opacity="0.02"/>
</linearGradient>
<linearGradient id="paint1_linear_157_42" x1="62.7206" y1="19.6231" x2="19.9611" y2="19.1517" gradientUnits="userSpaceOnUse">
<stop stop-color="#DDC85A" stop-opacity="0.5"/>
<stop offset="1" stop-color="#DDC85A"/>
</linearGradient>
</defs>
</svg>