<svg width="70" height="70" viewBox="0 0 70 70" fill="none" xmlns="http://www.w3.org/2000/svg">
<g filter="url(#filter0_f_455_13772)">
<g clip-path="url(#clip0_455_13772)">
<rect x="6" y="14.5879" width="50" height="50" rx="9.1868" transform="rotate(-9.89071 6 14.5879)" fill="#F0B90B"/>
<g clip-path="url(#clip1_455_13772)">
<path d="M28.3249 25.9385L32.5369 22.4761C32.5964 22.427 32.6619 22.4164 32.7332 22.4442L38.315 24.5492C38.3896 24.578 38.4579 24.5661 38.5199 24.5135L41.0908 22.3486C41.1732 22.2801 41.1646 22.2267 41.0651 22.1884L32.0913 18.8028C32.0069 18.7711 31.9311 18.7843 31.8639 18.8424L24.564 25.0702C24.5535 25.0789 24.5454 25.0903 24.5407 25.1031C24.536 25.116 24.5347 25.1298 24.5371 25.1433C24.5394 25.1568 24.5453 25.1694 24.5541 25.1799C24.5629 25.1904 24.5743 25.1983 24.5871 25.203L27.7753 26.4055C27.7995 26.4147 27.8258 26.4175 27.8515 26.4134C27.8772 26.4093 27.9016 26.3985 27.9221 26.3822C28.009 26.3129 28.0806 26.2316 28.137 26.1383C28.1744 26.0776 28.237 26.011 28.3249 25.9385Z" stroke="#F8DC85" stroke-width="0.457051"/>
<path d="M34.7664 27.6916C35.3255 27.3235 35.8432 26.8736 36.3196 26.3421C36.3807 26.2757 36.369 26.226 36.2843 26.1928L33.1103 24.9786C33.0558 24.9587 33.0072 24.968 32.9644 25.0064L30.4216 27.2127C30.3586 27.2685 30.3639 27.3163 30.4373 27.3561C31.3547 27.855 32.0497 28.1552 32.5221 28.2569C32.9995 28.3608 33.3579 28.4653 33.5974 28.5704C33.663 28.6007 33.7241 28.5917 33.7805 28.5431C33.9339 28.4112 34.079 28.2769 34.216 28.1401C34.3815 27.9721 34.565 27.8226 34.7664 27.6916Z" stroke="#F8DC85" stroke-width="0.457051"/>
<path d="M23.1254 30.4945C23.1228 30.4814 23.1238 30.4679 23.1281 30.4554C23.1324 30.4428 23.14 30.4316 23.15 30.4229L25.8079 28.1849C25.8182 28.1766 25.826 28.1657 25.8307 28.1534C25.8355 28.1411 25.8369 28.1278 25.8348 28.1147C25.8328 28.1017 25.8274 28.0895 25.8191 28.0792C25.8109 28.0689 25.8001 28.061 25.7878 28.0562L22.5265 26.8201C22.5137 26.8151 22.4998 26.8138 22.4864 26.8161C22.4729 26.8185 22.4603 26.8244 22.4499 26.8334L19.7415 29.1406C19.7314 29.1493 19.7238 29.1605 19.7195 29.173C19.7152 29.1856 19.7142 29.1991 19.7168 29.2121L20.3463 32.756C20.3483 32.7691 20.3538 32.7815 20.3621 32.7918C20.3704 32.8022 20.3813 32.8102 20.3937 32.815L23.6214 34.0175C23.634 34.0224 23.6476 34.0238 23.6609 34.0216C23.6742 34.0193 23.6867 34.0136 23.697 34.0049C23.7074 33.9963 23.7152 33.985 23.7197 33.9722C23.7242 33.9595 23.7252 33.9458 23.7225 33.9326L23.1254 30.4945Z" stroke="#F8DC85" stroke-width="0.457051"/>
<path d="M44.8641 30.2442C44.8662 30.2577 44.872 30.2705 44.8806 30.2812C44.8893 30.2918 44.9007 30.3 44.9136 30.3048C44.9264 30.3096 44.9403 30.311 44.9539 30.3087C44.9675 30.3064 44.9802 30.3005 44.9907 30.2917L47.6264 28.0459C47.6367 28.0373 47.6446 28.0261 47.6493 28.0135C47.6541 28.0009 47.6554 27.9873 47.6533 27.974L47.0473 24.4585C47.0448 24.4453 47.0389 24.4329 47.0302 24.4227C47.0215 24.4124 47.0103 24.4045 46.9976 24.3999L43.6478 23.1352C43.635 23.1305 43.6212 23.1292 43.6077 23.1316C43.5943 23.1339 43.5817 23.1398 43.5712 23.1485L40.9428 25.4092C40.9324 25.4182 40.9246 25.4297 40.9201 25.4426C40.9156 25.4555 40.9145 25.4694 40.9171 25.4828C40.9197 25.4963 40.9258 25.5088 40.9348 25.5191C40.9437 25.5294 40.9553 25.5372 40.9682 25.5417L44.2226 26.7511C44.2356 26.7559 44.2471 26.7641 44.2559 26.7748C44.2647 26.7855 44.2705 26.7983 44.2726 26.812L44.8641 30.2442Z" stroke="#F8DC85" stroke-width="0.457051"/>
<path d="M34.2126 31.1147C34.187 31.1367 34.1559 31.1514 34.1226 31.1572C34.0893 31.163 34.0551 31.1597 34.0235 31.1477L28.4307 29.019C28.3991 29.007 28.3649 29.0037 28.3316 29.0095C28.2983 29.0153 28.2672 29.03 28.2416 29.052L25.6243 31.2969C25.5995 31.3182 25.5808 31.3456 25.5699 31.3764C25.5589 31.4072 25.5563 31.4403 25.5621 31.4724L26.1587 34.8805C26.1641 34.9127 26.1778 34.9429 26.1985 34.9682C26.2191 34.9935 26.2461 35.013 26.2766 35.0246L31.905 37.1308C31.9355 37.1425 31.9624 37.1619 31.9831 37.1872C32.0038 37.2125 32.0175 37.2427 32.0229 37.2749L33.0679 43.2818C33.0733 43.314 33.087 43.3442 33.1077 43.3695C33.1284 43.3948 33.1553 43.4143 33.1859 43.4259L36.3955 44.6316C36.4271 44.6437 36.4613 44.647 36.4946 44.6412C36.5279 44.6354 36.559 44.6207 36.5846 44.5986L39.1886 42.3839C39.2133 42.3626 39.2321 42.3352 39.243 42.3044C39.2539 42.2736 39.2566 42.2405 39.2508 42.2084L38.2027 36.1974C38.1968 36.1653 38.1995 36.1322 38.2104 36.1014C38.2213 36.0706 38.2401 36.0432 38.2649 36.0219L42.8479 32.1329C42.8732 32.1118 42.8924 32.0844 42.9037 32.0536C42.915 32.0227 42.918 31.9894 42.9124 31.957L42.3048 28.5392C42.2991 28.5075 42.2853 28.4777 42.2647 28.4528C42.2441 28.428 42.2175 28.4089 42.1873 28.3973L38.9874 27.1807C38.9558 27.1686 38.9216 27.1653 38.8883 27.1711C38.855 27.1769 38.8239 27.1916 38.7983 27.2137L34.2126 31.1147Z" stroke="#F8DC85" stroke-width="0.457051"/>
<path d="M42.2854 46.6709C42.2889 46.6895 42.2971 46.7068 42.3094 46.7212C42.3216 46.7356 42.3374 46.7465 42.3552 46.7528C42.373 46.7591 42.3922 46.7606 42.4108 46.7571C42.4293 46.7537 42.4467 46.7454 42.461 46.7331L49.7895 40.5096C49.8038 40.4973 49.8147 40.4815 49.8209 40.4637C49.8272 40.4459 49.8287 40.4268 49.8252 40.4083L48.1445 30.7821C48.1411 30.7636 48.1328 30.7462 48.1206 30.7318C48.1083 30.7175 48.0925 30.7066 48.0747 30.7003C48.0569 30.694 48.0377 30.6925 48.0192 30.6959C48.0006 30.6994 47.9833 30.7077 47.9689 30.72L45.3923 32.9183C45.3779 32.9306 45.3671 32.9464 45.3608 32.9642C45.3546 32.982 45.3531 33.0011 45.3566 33.0196L46.4112 39.1083C46.4147 39.1268 46.4132 39.146 46.407 39.1638C46.4007 39.1815 46.3899 39.1974 46.3756 39.2096L41.7197 43.16C41.7054 43.1723 41.6945 43.1881 41.6883 43.2059C41.682 43.2237 41.6805 43.2428 41.684 43.2614L42.2854 46.6709Z" stroke="#F8DC85" stroke-width="0.457051"/>
<path d="M22.5111 45.1993C22.5132 45.213 22.519 45.2258 22.5278 45.2365C22.5366 45.2472 22.5481 45.2554 22.5611 45.2601L31.6296 48.6432C31.6423 48.6478 31.656 48.6491 31.6694 48.6468C31.6828 48.6445 31.6953 48.6388 31.7058 48.6302C31.7162 48.6215 31.7242 48.6103 31.729 48.5976C31.7338 48.585 31.7352 48.5713 31.733 48.5579L31.1297 45.0976C31.1272 45.0844 31.1213 45.072 31.1126 45.0618C31.1039 45.0515 31.0927 45.0437 31.08 45.039L25.3254 42.8737C25.3127 42.869 25.3015 42.8612 25.2928 42.8509C25.2841 42.8407 25.2782 42.8283 25.2757 42.8151L24.2016 36.695C24.1992 36.6817 24.1933 36.6694 24.1846 36.6591C24.1759 36.6488 24.1646 36.641 24.152 36.6364L20.9287 35.4191C20.9158 35.4144 20.9019 35.4132 20.8884 35.4156C20.8748 35.418 20.8622 35.424 20.8517 35.4329C20.8412 35.4418 20.8333 35.4533 20.8287 35.4663C20.8242 35.4793 20.8231 35.4932 20.8257 35.5067L22.5111 45.1993Z" stroke="#F8DC85" stroke-width="0.457051"/>
<path d="M30.0457 38.8978C30.0433 38.8842 30.0375 38.8715 30.0287 38.8608C30.0199 38.8502 30.0085 38.8419 29.9957 38.837L26.7564 37.5947C26.7432 37.5896 26.7289 37.5881 26.715 37.5904C26.701 37.5926 26.6879 37.5986 26.6769 37.6075C26.666 37.6165 26.6576 37.6282 26.6527 37.6415C26.6478 37.6548 26.6465 37.6691 26.6489 37.683L27.2455 41.1445C27.2479 41.1581 27.2537 41.1708 27.2625 41.1815C27.2713 41.1921 27.2826 41.2004 27.2955 41.2053L30.5406 42.428C30.5538 42.4331 30.5681 42.4346 30.5821 42.4323C30.5961 42.4301 30.6092 42.4242 30.6201 42.4152C30.6311 42.4062 30.6394 42.3945 30.6443 42.3812C30.6493 42.3679 30.6506 42.3536 30.6481 42.3397L30.0457 38.8978Z" stroke="#F8DC85" stroke-width="0.457051"/>
<path d="M43.3864 34.7573C43.3839 34.744 43.378 34.7315 43.3692 34.7212C43.3604 34.7109 43.349 34.7031 43.3363 34.6985C43.3235 34.6939 43.3098 34.6928 43.2965 34.6951C43.2831 34.6975 43.2706 34.7033 43.2602 34.712L40.6273 36.9735C40.617 36.9822 40.609 36.9933 40.6043 37.006C40.5996 37.0186 40.5983 37.0322 40.6004 37.0455L41.2081 40.491C41.2106 40.5044 41.2166 40.5168 41.2254 40.5271C41.2342 40.5374 41.2455 40.5453 41.2583 40.5498C41.271 40.5544 41.2847 40.5556 41.2981 40.5532C41.3114 40.5508 41.3239 40.545 41.3343 40.5363L43.9671 38.3004C43.9774 38.2917 43.9853 38.2805 43.99 38.2679C43.9947 38.2553 43.9961 38.2417 43.994 38.2284L43.3864 34.7573Z" stroke="#F8DC85" stroke-width="0.457051"/>
<path d="M34.1482 49.5451C34.1507 49.5583 34.1566 49.5707 34.1653 49.581C34.174 49.5912 34.1853 49.5991 34.1979 49.6037L37.5189 50.8758C37.5317 50.8805 37.5455 50.8817 37.5589 50.8794C37.5724 50.877 37.5849 50.8712 37.5954 50.8624L40.3139 48.5327C40.3242 48.524 40.3321 48.5129 40.3368 48.5002C40.3415 48.4876 40.3429 48.474 40.3408 48.4607L39.7385 44.9933C39.736 44.98 39.7301 44.9676 39.7213 44.9573C39.7125 44.947 39.7011 44.9391 39.6884 44.9345C39.6756 44.93 39.6619 44.9288 39.6485 44.9312C39.6352 44.9335 39.6227 44.9394 39.6123 44.9481L36.9633 47.224C36.9529 47.2327 36.9403 47.2386 36.9268 47.2409C36.9134 47.2432 36.8996 47.242 36.8868 47.2373L33.649 45.9901C33.6363 45.9855 33.6226 45.9842 33.6092 45.9865C33.5959 45.9888 33.5833 45.9945 33.5729 46.0032C33.5624 46.0118 33.5544 46.023 33.5496 46.0357C33.5448 46.0484 33.5434 46.0621 33.5456 46.0755L34.1482 49.5451Z" stroke="#F8DC85" stroke-width="0.457051"/>
<path d="M57.2817 30.8911C58.3226 36.8613 56.9493 43.0005 53.4639 47.9582C49.9784 52.9158 44.6662 56.2858 38.696 57.3268C32.7258 58.3677 26.5866 56.9944 21.629 53.5089C16.6714 50.0234 13.3014 44.7113 12.2604 38.7411C11.2195 32.7709 12.5928 26.6317 16.0783 21.6741C19.5637 16.7164 24.8759 13.3465 30.8461 12.3055C36.8163 11.2645 42.9555 12.6378 47.9131 16.1233C52.8707 19.6088 56.2407 24.921 57.2817 30.8911ZM28.3241 25.9399L32.5362 22.4774C32.5957 22.4284 32.6611 22.4178 32.7324 22.4455L38.3142 24.5506C38.3888 24.5793 38.4571 24.5674 38.5191 24.5149L41.09 22.35C41.1724 22.2815 41.1638 22.2281 41.0644 22.1898L32.0905 18.8041C32.0061 18.7725 31.9303 18.7857 31.8632 18.8438L24.5632 25.0715C24.5527 25.0803 24.5446 25.0917 24.5399 25.1045C24.5352 25.1173 24.5339 25.1312 24.5363 25.1447C24.5386 25.1582 24.5445 25.1708 24.5533 25.1813C24.5621 25.1917 24.5735 25.1997 24.5864 25.2044L27.7746 26.4068C27.7987 26.4161 27.825 26.4188 27.8507 26.4147C27.8764 26.4107 27.9008 26.3999 27.9213 26.3836C28.0082 26.3143 28.0798 26.233 28.1362 26.1396C28.1736 26.079 28.2362 26.0124 28.3241 25.9399ZM34.7655 27.6932C35.3246 27.3251 35.8423 26.8753 36.3187 26.3437C36.3798 26.2774 36.3681 26.2276 36.2834 26.1944L33.1094 24.9802C33.0549 24.9603 33.0063 24.9696 32.9635 25.008L30.4207 27.2143C30.3577 27.2702 30.363 27.318 30.4364 27.3577C31.3538 27.8566 32.0488 28.1568 32.5211 28.2585C32.9986 28.3624 33.357 28.4669 33.5965 28.5721C33.6621 28.6024 33.7231 28.5933 33.7796 28.5448C33.9329 28.4129 34.0781 28.2785 34.2151 28.1418C34.3806 27.9737 34.5641 27.8242 34.7655 27.6932ZM23.1242 30.4954C23.1217 30.4824 23.1226 30.4689 23.1269 30.4563C23.1313 30.4438 23.1388 30.4326 23.1489 30.4239L25.8068 28.1859C25.817 28.1775 25.8249 28.1667 25.8296 28.1544C25.8343 28.1421 25.8357 28.1287 25.8337 28.1157C25.8316 28.1027 25.8262 28.0904 25.818 28.0802C25.8097 28.0699 25.7989 28.0619 25.7867 28.0571L22.5253 26.821C22.5126 26.8161 22.4987 26.8147 22.4852 26.8171C22.4717 26.8194 22.4591 26.8254 22.4488 26.8344L19.7403 29.1415C19.7302 29.1502 19.7227 29.1614 19.7183 29.174C19.714 29.1866 19.7131 29.2001 19.7157 29.2131L20.3452 32.7569C20.3472 32.7701 20.3526 32.7824 20.3609 32.7928C20.3692 32.8032 20.3802 32.8111 20.3926 32.8159L23.6202 34.0185C23.6328 34.0233 23.6465 34.0247 23.6598 34.0225C23.6731 34.0203 23.6855 34.0146 23.6959 34.0059C23.7062 33.9972 23.714 33.9859 23.7185 33.9732C23.723 33.9605 23.724 33.9468 23.7214 33.9336L23.1242 30.4954ZM44.8628 30.245C44.865 30.2586 44.8707 30.2713 44.8794 30.282C44.8881 30.2927 44.8994 30.3008 44.9123 30.3056C44.9252 30.3105 44.9391 30.3118 44.9526 30.3095C44.9662 30.3072 44.9789 30.3013 44.9894 30.2925L47.6251 28.0468C47.6354 28.0381 47.6434 28.0269 47.6481 28.0143C47.6528 28.0017 47.6541 27.9881 47.652 27.9748L47.046 24.4594C47.0435 24.4461 47.0376 24.4338 47.0289 24.4235C47.0202 24.4132 47.009 24.4054 46.9964 24.4007L43.6465 23.136C43.6337 23.1313 43.6199 23.1301 43.6065 23.1324C43.593 23.1348 43.5804 23.1406 43.57 23.1494L40.9415 25.4101C40.9312 25.419 40.9233 25.4305 40.9188 25.4434C40.9143 25.4563 40.9133 25.4702 40.9159 25.4837C40.9184 25.4971 40.9245 25.5096 40.9335 25.52C40.9425 25.5303 40.954 25.5381 40.9669 25.5425L44.2213 26.752C44.2343 26.7567 44.2458 26.7649 44.2546 26.7756C44.2634 26.7863 44.2692 26.7992 44.2714 26.8129L44.8628 30.245ZM34.2118 31.1162C34.1861 31.1383 34.155 31.153 34.1218 31.1588C34.0885 31.1646 34.0542 31.1613 34.0227 31.1492L28.4298 29.0206C28.3982 29.0085 28.364 29.0052 28.3307 29.011C28.2974 29.0168 28.2663 29.0315 28.2407 29.0536L25.6234 31.2984C25.5986 31.3197 25.5799 31.3471 25.569 31.3779C25.5581 31.4087 25.5554 31.4418 25.5612 31.474L26.1578 34.882C26.1632 34.9142 26.1769 34.9445 26.1976 34.9698C26.2183 34.9951 26.2452 35.0145 26.2757 35.0262L31.9041 37.1324C31.9346 37.144 31.9615 37.1635 31.9822 37.1887C32.0029 37.214 32.0166 37.2443 32.022 37.2765L33.0671 43.2833C33.0724 43.3155 33.0862 43.3458 33.1068 43.3711C33.1275 43.3964 33.1545 43.4158 33.185 43.4275L36.3946 44.6331C36.4262 44.6452 36.4604 44.6485 36.4937 44.6427C36.527 44.6369 36.5581 44.6222 36.5837 44.6002L39.1877 42.3855C39.2125 42.3642 39.2312 42.3368 39.2421 42.306C39.253 42.2752 39.2557 42.2421 39.2499 42.2099L38.2018 36.199C38.196 36.1668 38.1986 36.1337 38.2095 36.1029C38.2204 36.0721 38.2392 36.0447 38.264 36.0234L42.847 32.1345C42.8723 32.1134 42.8915 32.086 42.9028 32.0551C42.9141 32.0242 42.9171 31.9909 42.9115 31.9585L42.304 28.5408C42.2982 28.509 42.2844 28.4792 42.2638 28.4544C42.2432 28.4295 42.2166 28.4104 42.1864 28.3989L38.9865 27.1822C38.9549 27.1702 38.9207 27.1669 38.8874 27.1727C38.8541 27.1785 38.823 27.1932 38.7974 27.2152L34.2118 31.1162ZM42.2851 46.6728C42.2885 46.6913 42.2968 46.7087 42.309 46.7231C42.3213 46.7374 42.3371 46.7483 42.3549 46.7546C42.3727 46.7609 42.3919 46.7624 42.4104 46.759C42.429 46.7555 42.4463 46.7472 42.4607 46.7349L49.7892 40.5115C49.8035 40.4992 49.8143 40.4834 49.8206 40.4656C49.8269 40.4478 49.8283 40.4287 49.8249 40.4101L48.1441 30.784C48.1407 30.7654 48.1325 30.7481 48.1202 30.7337C48.108 30.7193 48.0922 30.7084 48.0744 30.7021C48.0566 30.6958 48.0374 30.6943 48.0188 30.6978C48.0003 30.7013 47.9829 30.7095 47.9686 30.7218L45.3919 32.9202C45.3776 32.9325 45.3668 32.9483 45.3605 32.9661C45.3542 32.9839 45.3528 33.003 45.3562 33.0215L46.4109 39.1102C46.4144 39.1287 46.4129 39.1478 46.4066 39.1656C46.4004 39.1834 46.3895 39.1992 46.3752 39.2115L41.7194 43.1619C41.705 43.1742 41.6942 43.19 41.6879 43.2078C41.6817 43.2256 41.6802 43.2447 41.6837 43.2632L42.2851 46.6728ZM22.5102 45.2006C22.5124 45.2143 22.5181 45.2271 22.5269 45.2378C22.5357 45.2485 22.5472 45.2567 22.5603 45.2614L31.6287 48.6445C31.6415 48.6491 31.6552 48.6504 31.6686 48.6481C31.6819 48.6458 31.6944 48.6401 31.7049 48.6315C31.7154 48.6228 31.7234 48.6116 31.7282 48.5989C31.7329 48.5863 31.7343 48.5726 31.7322 48.5592L31.1288 45.0989C31.1264 45.0857 31.1205 45.0733 31.1118 45.0631C31.1031 45.0528 31.0918 45.045 31.0792 45.0403L25.3245 42.875C25.3119 42.8703 25.3006 42.8625 25.2919 42.8522C25.2832 42.842 25.2773 42.8296 25.2748 42.8164L24.2008 36.6963C24.1983 36.683 24.1924 36.6707 24.1837 36.6604C24.175 36.6501 24.1638 36.6423 24.1511 36.6377L20.9279 35.4204C20.915 35.4157 20.901 35.4145 20.8875 35.4169C20.874 35.4193 20.8613 35.4253 20.8508 35.4342C20.8404 35.4431 20.8324 35.4546 20.8279 35.4676C20.8233 35.4805 20.8223 35.4945 20.8248 35.508L22.5102 45.2006ZM30.0455 38.8993C30.0432 38.8857 30.0373 38.8729 30.0285 38.8623C30.0198 38.8516 30.0084 38.8434 29.9955 38.8384L26.7563 37.5961C26.7431 37.5911 26.7288 37.5896 26.7148 37.5918C26.7008 37.5941 26.6877 37.6 26.6768 37.609C26.6658 37.618 26.6575 37.6297 26.6526 37.6429C26.6476 37.6562 26.6463 37.6705 26.6487 37.6845L27.2453 41.1459C27.2477 41.1595 27.2536 41.1723 27.2623 41.1829C27.2711 41.1936 27.2825 41.2018 27.2954 41.2068L30.5404 42.4295C30.5536 42.4345 30.568 42.436 30.5819 42.4338C30.5959 42.4315 30.609 42.4256 30.62 42.4166C30.6309 42.4076 30.6392 42.3959 30.6442 42.3827C30.6491 42.3694 30.6504 42.3551 30.648 42.3411L30.0455 38.8993ZM43.3859 34.7592C43.3834 34.7459 43.3774 34.7335 43.3687 34.7232C43.3599 34.7128 43.3485 34.705 43.3358 34.7004C43.323 34.6959 43.3093 34.6947 43.2959 34.6971C43.2826 34.6994 43.2701 34.7053 43.2597 34.714L40.6268 36.9755C40.6164 36.9841 40.6085 36.9953 40.6038 37.0079C40.5991 37.0205 40.5977 37.0341 40.5999 37.0474L41.2076 40.493C41.2101 40.5063 41.216 40.5187 41.2248 40.529C41.2336 40.5394 41.245 40.5472 41.2577 40.5518C41.2705 40.5563 41.2842 40.5575 41.2976 40.5551C41.3109 40.5528 41.3234 40.5469 41.3338 40.5382L43.9665 38.3023C43.9769 38.2936 43.9848 38.2825 43.9895 38.2699C43.9942 38.2572 43.9956 38.2436 43.9934 38.2303L43.3859 34.7592ZM34.1474 49.5461C34.1499 49.5594 34.1558 49.5717 34.1645 49.582C34.1732 49.5923 34.1844 49.6001 34.1971 49.6047L37.5181 50.8768C37.5309 50.8815 37.5447 50.8828 37.5581 50.8804C37.5716 50.8781 37.5841 50.8722 37.5946 50.8635L40.3131 48.5337C40.3234 48.5251 40.3313 48.5139 40.336 48.5013C40.3407 48.4887 40.3421 48.475 40.3399 48.4618L39.7377 44.9944C39.7352 44.9811 39.7292 44.9686 39.7205 44.9583C39.7117 44.948 39.7003 44.9402 39.6876 44.9356C39.6748 44.931 39.6611 44.9298 39.6477 44.9322C39.6344 44.9346 39.6219 44.9404 39.6115 44.9491L36.9625 47.225C36.952 47.2338 36.9395 47.2396 36.926 47.2419C36.9126 47.2443 36.8988 47.243 36.886 47.2384L33.6482 45.9912C33.6355 45.9865 33.6218 45.9853 33.6084 45.9876C33.5951 45.9898 33.5825 45.9956 33.5721 46.0042C33.5616 46.0128 33.5536 46.024 33.5488 46.0367C33.544 46.0494 33.5426 46.0631 33.5448 46.0765L34.1474 49.5461Z" fill="#F0B90B"/>
<path d="M28.137 26.1383C28.0806 26.2316 28.009 26.3129 27.9221 26.3822C27.9016 26.3985 27.8772 26.4093 27.8515 26.4134C27.8258 26.4175 27.7995 26.4147 27.7753 26.4055L24.5871 25.203C24.5743 25.1983 24.5629 25.1904 24.5541 25.1799C24.5453 25.1694 24.5394 25.1568 24.5371 25.1433C24.5347 25.1298 24.536 25.116 24.5407 25.1031C24.5454 25.0903 24.5535 25.0789 24.564 25.0702L31.8639 18.8424C31.9311 18.7843 32.0069 18.7711 32.0913 18.8028L41.0651 22.1884C41.1646 22.2267 41.1732 22.2801 41.0908 22.3486L38.5199 24.5135C38.4579 24.5661 38.3896 24.578 38.315 24.5492L32.7332 22.4442C32.6619 22.4164 32.5964 22.427 32.5369 22.4761L28.3249 25.9385C28.237 26.011 28.1744 26.0776 28.137 26.1383Z" fill="white"/>
<path d="M34.2155 28.1421C34.0785 28.2789 33.9334 28.4132 33.7801 28.5451C33.7236 28.5936 33.6625 28.6027 33.5969 28.5724C33.3574 28.4672 32.999 28.3627 32.5216 28.2588C32.0492 28.1572 31.3543 27.8569 30.4368 27.3581C30.3634 27.3183 30.3581 27.2705 30.4211 27.2147L32.9639 25.0083C33.0067 24.9699 33.0553 24.9607 33.1098 24.9805L36.2838 26.1948C36.3685 26.2279 36.3803 26.2777 36.3191 26.344C35.8427 26.8756 35.325 27.3254 34.7659 27.6935C34.5645 27.8245 34.381 27.974 34.2155 28.1421Z" fill="white"/>
<path d="M23.1249 30.4945L23.7221 33.9326C23.7247 33.9458 23.7237 33.9595 23.7192 33.9722C23.7147 33.985 23.7069 33.9963 23.6965 34.0049C23.6862 34.0136 23.6737 34.0193 23.6604 34.0216C23.6471 34.0238 23.6335 34.0224 23.6209 34.0175L20.3932 32.815C20.3808 32.8102 20.3699 32.8022 20.3616 32.7918C20.3533 32.7815 20.3478 32.7691 20.3458 32.756L19.7163 29.2121C19.7138 29.1991 19.7147 29.1856 19.719 29.173C19.7233 29.1605 19.7309 29.1493 19.741 29.1406L22.4494 26.8334C22.4598 26.8244 22.4724 26.8185 22.4859 26.8161C22.4993 26.8138 22.5132 26.8151 22.526 26.8201L25.7873 28.0562C25.7996 28.061 25.8104 28.0689 25.8186 28.0792C25.8269 28.0895 25.8323 28.1017 25.8343 28.1147C25.8364 28.1278 25.835 28.1411 25.8303 28.1534C25.8255 28.1657 25.8177 28.1766 25.8074 28.1849L23.1495 30.4229C23.1395 30.4316 23.1319 30.4428 23.1276 30.4554C23.1233 30.4679 23.1223 30.4814 23.1249 30.4945Z" fill="white"/>
<path d="M44.8631 30.2442L44.2717 26.812C44.2695 26.7983 44.2637 26.7855 44.2549 26.7748C44.2461 26.7641 44.2346 26.7559 44.2216 26.7511L40.9672 25.5417C40.9543 25.5372 40.9428 25.5294 40.9338 25.5191C40.9248 25.5088 40.9187 25.4963 40.9162 25.4828C40.9136 25.4694 40.9146 25.4555 40.9191 25.4426C40.9236 25.4297 40.9314 25.4182 40.9418 25.4092L43.5703 23.1485C43.5807 23.1398 43.5933 23.1339 43.6067 23.1316C43.6202 23.1292 43.634 23.1305 43.6468 23.1352L46.9966 24.3999C47.0093 24.4045 47.0205 24.4124 47.0292 24.4227C47.0379 24.4329 47.0438 24.4453 47.0463 24.4585L47.6523 27.974C47.6544 27.9873 47.6531 28.0009 47.6484 28.0135C47.6436 28.0261 47.6357 28.0373 47.6254 28.0459L44.9897 30.2917C44.9792 30.3005 44.9665 30.3064 44.9529 30.3087C44.9394 30.311 44.9255 30.3096 44.9126 30.3048C44.8997 30.3 44.8883 30.2918 44.8797 30.2812C44.871 30.2705 44.8653 30.2577 44.8631 30.2442Z" fill="white"/>
<path d="M34.2122 31.1147L38.7978 27.2137C38.8234 27.1916 38.8545 27.1769 38.8878 27.1711C38.9211 27.1653 38.9553 27.1686 38.9869 27.1807L42.1868 28.3973C42.217 28.4089 42.2436 28.428 42.2642 28.4528C42.2848 28.4777 42.2986 28.5075 42.3044 28.5392L42.9119 31.957C42.9175 31.9894 42.9145 32.0227 42.9032 32.0536C42.8919 32.0844 42.8727 32.1118 42.8474 32.1329L38.2644 36.0219C38.2396 36.0432 38.2208 36.0706 38.2099 36.1014C38.199 36.1322 38.1964 36.1653 38.2022 36.1974L39.2503 42.2084C39.2561 42.2405 39.2534 42.2736 39.2425 42.3044C39.2316 42.3352 39.2129 42.3626 39.1881 42.3839L36.5841 44.5986C36.5585 44.6207 36.5274 44.6354 36.4941 44.6412C36.4608 44.647 36.4266 44.6437 36.395 44.6316L33.1854 43.4259C33.1549 43.4143 33.1279 43.3948 33.1072 43.3695C33.0865 43.3442 33.0728 43.314 33.0674 43.2818L32.0224 37.2749C32.017 37.2427 32.0033 37.2125 31.9826 37.1872C31.9619 37.1619 31.935 37.1425 31.9045 37.1308L26.2761 35.0246C26.2456 35.013 26.2186 34.9935 26.198 34.9682C26.1773 34.9429 26.1636 34.9127 26.1582 34.8805L25.5616 31.4724C25.5558 31.4403 25.5585 31.4072 25.5694 31.3764C25.5803 31.3456 25.599 31.3182 25.6238 31.2969L28.2411 29.052C28.2667 29.03 28.2978 29.0153 28.3311 29.0095C28.3644 29.0037 28.3986 29.007 28.4302 29.019L34.0231 31.1477C34.0546 31.1597 34.0889 31.163 34.1221 31.1572C34.1554 31.1514 34.1865 31.1367 34.2122 31.1147Z" fill="white"/>
<path d="M42.2854 46.6728L41.684 43.2633C41.6805 43.2448 41.682 43.2257 41.6883 43.2079C41.6945 43.1901 41.7054 43.1743 41.7197 43.162L46.3756 39.2116C46.3899 39.1993 46.4007 39.1835 46.407 39.1657C46.4132 39.1479 46.4147 39.1288 46.4112 39.1103L45.3566 33.0216C45.3531 33.0031 45.3546 32.9839 45.3608 32.9661C45.3671 32.9484 45.3779 32.9325 45.3923 32.9203L47.9689 30.7219C47.9833 30.7096 48.0006 30.7013 48.0192 30.6979C48.0377 30.6944 48.0569 30.6959 48.0747 30.7022C48.0925 30.7085 48.1083 30.7194 48.1206 30.7338C48.1328 30.7482 48.1411 30.7655 48.1445 30.7841L49.8252 40.4102C49.8287 40.4287 49.8272 40.4479 49.8209 40.4657C49.8147 40.4834 49.8038 40.4993 49.7895 40.5115L42.461 46.735C42.4467 46.7473 42.4293 46.7556 42.4108 46.7591C42.3922 46.7625 42.373 46.761 42.3552 46.7547C42.3374 46.7484 42.3216 46.7375 42.3094 46.7231C42.2971 46.7088 42.2889 46.6914 42.2854 46.6728Z" fill="white"/>
<path d="M22.5111 45.1993L20.8257 35.5067C20.8231 35.4932 20.8242 35.4793 20.8287 35.4663C20.8333 35.4533 20.8412 35.4418 20.8517 35.4329C20.8622 35.424 20.8748 35.418 20.8884 35.4156C20.9019 35.4132 20.9158 35.4144 20.9287 35.4191L24.152 36.6364C24.1646 36.641 24.1759 36.6488 24.1846 36.6591C24.1933 36.6694 24.1992 36.6817 24.2016 36.695L25.2757 42.8151C25.2782 42.8283 25.2841 42.8407 25.2928 42.8509C25.3015 42.8612 25.3127 42.869 25.3254 42.8737L31.08 45.039C31.0927 45.0437 31.1039 45.0515 31.1126 45.0618C31.1213 45.072 31.1272 45.0844 31.1297 45.0976L31.733 48.5579C31.7352 48.5713 31.7338 48.585 31.729 48.5976C31.7242 48.6103 31.7162 48.6215 31.7058 48.6302C31.6953 48.6388 31.6828 48.6445 31.6694 48.6468C31.656 48.6491 31.6423 48.6478 31.6296 48.6432L22.5611 45.2601C22.5481 45.2554 22.5366 45.2472 22.5278 45.2365C22.519 45.2258 22.5132 45.213 22.5111 45.1993Z" fill="white"/>
<path d="M30.0457 38.8978L30.6481 42.3397C30.6506 42.3536 30.6493 42.3679 30.6443 42.3812C30.6394 42.3945 30.6311 42.4062 30.6201 42.4152C30.6092 42.4242 30.5961 42.4301 30.5821 42.4323C30.5681 42.4346 30.5538 42.4331 30.5406 42.428L27.2955 41.2053C27.2826 41.2004 27.2713 41.1921 27.2625 41.1815C27.2537 41.1708 27.2479 41.1581 27.2455 41.1445L26.6489 37.683C26.6465 37.6691 26.6478 37.6548 26.6527 37.6415C26.6576 37.6282 26.666 37.6165 26.6769 37.6075C26.6879 37.5986 26.701 37.5926 26.715 37.5904C26.7289 37.5881 26.7432 37.5896 26.7564 37.5947L29.9957 38.837C30.0085 38.8419 30.0199 38.8502 30.0287 38.8608C30.0375 38.8715 30.0433 38.8842 30.0457 38.8978Z" fill="white"/>
<path d="M43.3859 34.7573L43.9935 38.2284C43.9956 38.2417 43.9943 38.2553 43.9895 38.2679C43.9848 38.2805 43.9769 38.2917 43.9666 38.3004L41.3338 40.5363C41.3234 40.545 41.3109 40.5508 41.2976 40.5532C41.2843 40.5556 41.2705 40.5544 41.2578 40.5498C41.245 40.5453 41.2337 40.5374 41.2249 40.5271C41.2161 40.5168 41.2101 40.5044 41.2076 40.491L40.5999 37.0455C40.5978 37.0322 40.5991 37.0186 40.6038 37.006C40.6086 36.9933 40.6165 36.9822 40.6268 36.9735L43.2597 34.712C43.2701 34.7033 43.2826 34.6975 43.296 34.6951C43.3093 34.6928 43.323 34.6939 43.3358 34.6985C43.3486 34.7031 43.3599 34.7109 43.3687 34.7212C43.3775 34.7315 43.3834 34.744 43.3859 34.7573Z" fill="white"/>
<path d="M34.1478 49.5451L33.5451 46.0755C33.543 46.0621 33.5443 46.0484 33.5491 46.0357C33.5539 46.023 33.5619 46.0118 33.5724 46.0032C33.5828 45.9945 33.5954 45.9888 33.6087 45.9865C33.6221 45.9842 33.6358 45.9855 33.6485 45.9901L36.8863 47.2373C36.8991 47.242 36.9129 47.2432 36.9264 47.2409C36.9398 47.2386 36.9524 47.2327 36.9628 47.224L39.6118 44.9481C39.6222 44.9394 39.6347 44.9335 39.6481 44.9312C39.6614 44.9288 39.6751 44.93 39.6879 44.9345C39.7006 44.9391 39.712 44.947 39.7208 44.9573C39.7296 44.9676 39.7355 44.98 39.738 44.9933L40.3403 48.4607C40.3424 48.474 40.3411 48.4876 40.3363 48.5002C40.3316 48.5129 40.3237 48.524 40.3134 48.5327L37.5949 50.8624C37.5845 50.8712 37.5719 50.877 37.5584 50.8794C37.545 50.8817 37.5312 50.8805 37.5184 50.8758L34.1974 49.6037C34.1848 49.5991 34.1735 49.5912 34.1648 49.581C34.1561 49.5707 34.1502 49.5583 34.1478 49.5451Z" fill="white"/>
</g>
</g>
<rect x="3.87437" y="13.0935" width="53.6747" height="53.6747" rx="11.0241" transform="rotate(-9.89071 3.87437 13.0935)" stroke="white" stroke-width="3.67469"/>
</g>
<defs>
<filter id="filter0_f_455_13772" x="0.764648" y="0.763672" width="68.3159" height="68.3164" filterUnits="userSpaceOnUse" color-interpolation-filters="sRGB">
<feFlood flood-opacity="0" result="BackgroundImageFix"/>
<feBlend mode="normal" in="SourceGraphic" in2="BackgroundImageFix" result="shape"/>
<feGaussianBlur stdDeviation="1.5" result="effect1_foregroundBlur_455_13772"/>
</filter>
<clipPath id="clip0_455_13772">
<rect x="6" y="14.5879" width="50" height="50" rx="9.1868" transform="rotate(-9.89071 6 14.5879)" fill="white"/>
</clipPath>
<clipPath id="clip1_455_13772">
<rect width="45.9336" height="45.9336" fill="white" transform="translate(8.20117 16.1348) rotate(-9.89071)"/>
</clipPath>
</defs>
</svg>
