<svg width="91" height="91" viewBox="0 0 91 91" fill="none" xmlns="http://www.w3.org/2000/svg">
<g filter="url(#filter0_f_455_13764)">
<rect x="17.7109" y="6" width="68.1387" height="68.1387" rx="11.5904" transform="rotate(9.89667 17.7109 6)" fill="#627EEA"/>
<rect x="15.8258" y="3.31803" width="72.7748" height="72.7748" rx="13.9084" transform="rotate(9.89667 15.8258 3.31803)" stroke="white" stroke-width="4.63611"/>
<g clip-path="url(#clip0_455_13764)" style="opacity:.5">
    <path d="M48.8635 22.5378L48.3755 23.5251L43.107 53.7231L43.36 54.0822L58.8229 48.2421L48.8635 22.5378Z" fill="#C1CCF8"/>
    <path d="M48.8614 22.5355L30.7859 43.3485L43.3579 54.0799L45.9151 39.4226L48.8614 22.5355Z" fill="white"/>
    <path d="M42.8978 56.7334L42.6883 56.9139L40.8116 67.6709L40.8963 68.2051L58.3685 50.8991L42.8978 56.7334Z" fill="#C1CCF8"/>
    <path d="M40.8931 68.2085L42.8946 56.7368L30.3218 46.0098L40.8931 68.2085Z" fill="white"/>
    <path d="M43.3656 54.0811L58.8285 48.2409L45.9229 39.4238L43.3656 54.0811Z" fill="#8197EE"/>
    <path d="M30.7863 43.3481L43.3584 54.0794L45.9156 39.4222L30.7863 43.3481Z" fill="#C1CCF8"/>
</g>
</g>
<defs>
<filter id="filter0_f_455_13764" x="0.180664" y="0.181641" width="90.4741" height="90.4727" filterUnits="userSpaceOnUse" color-interpolation-filters="sRGB">
<feFlood flood-opacity="0" result="BackgroundImageFix"/>
<feBlend mode="normal" in="SourceGraphic" in2="BackgroundImageFix" result="shape"/>
<feGaussianBlur stdDeviation="1.5" result="effect1_foregroundBlur_455_13764"/>
</filter>
<clipPath id="clip0_455_13764">
<rect width="31.8727" height="46.3611" fill="white" transform="translate(34.0273 19.9492) rotate(9.89667)"/>
</clipPath>
</defs>
</svg>
