<svg width="52" height="52" viewBox="0 0 52 52" fill="none" xmlns="http://www.w3.org/2000/svg">
<g filter="url(#filter0_f_455_13802)">
<g clip-path="url(#clip0_455_13802)">
<rect x="12.0938" y="5" width="35.5689" height="35.5689" rx="7.11384" transform="rotate(11.5039 12.0938 5)" fill="#13B5EC"/>
<path fill-rule="evenodd" clip-rule="evenodd" d="M27.9684 22.8635L32.355 21.3742L31.424 25.9488L27.9684 22.8635ZM29.8944 33.4643L24.0456 35.45L19.4381 31.3362L20.5243 25.9991L25.1318 30.1129L30.9806 28.1272L29.8944 33.4643ZM21.8987 19.2461L25.3543 22.3315L20.9677 23.8207L21.8987 19.2461ZM27.0932 23.8197L30.5488 26.905L26.1622 28.3943L27.0932 23.8197ZM24.8551 28.1283L21.3995 25.043L25.7862 23.5537L24.8551 28.1283ZM31.9232 20.152L26.8165 21.835L22.7739 18.2899L27.9028 16.498L31.9232 20.152ZM20.9021 17.4552L17.9981 31.7237L23.7796 36.7571L31.0685 34.3838L33.9724 20.1154L28.1909 15.082L20.9021 17.4552Z" fill="white"/>
</g>
<rect x="10.9833" y="3.32208" width="38.4144" height="38.4144" rx="8.53659" transform="rotate(11.5039 10.9833 3.32208)" stroke="white" stroke-width="2.84551"/>
</g>
<defs>
<filter id="filter0_f_455_13802" x="0.428223" y="0.427734" width="51.0913" height="51.0918" filterUnits="userSpaceOnUse" color-interpolation-filters="sRGB">
<feFlood flood-opacity="0" result="BackgroundImageFix"/>
<feBlend mode="normal" in="SourceGraphic" in2="BackgroundImageFix" result="shape"/>
<feGaussianBlur stdDeviation="1.5" result="effect1_foregroundBlur_455_13802"/>
</filter>
<clipPath id="clip0_455_13802">
<rect x="12.0938" y="5" width="35.5689" height="35.5689" rx="7.11384" transform="rotate(11.5039 12.0938 5)" fill="white"/>
</clipPath>
</defs>
</svg>
