<svg width="66" height="66" viewBox="0 0 66 66" fill="none" xmlns="http://www.w3.org/2000/svg">
<g filter="url(#filter0_f_455_13766)">
<g clip-path="url(#clip0_455_13766)">
<rect x="12.6606" y="6" width="47.915" height="47.915" rx="9.58308" transform="rotate(7.9908 12.6606 6)" fill="#FF0420"/>
<path d="M23.6916 39.4495C21.9948 39.2113 20.6614 38.6177 19.6915 37.6687C18.7345 36.7099 18.3623 35.4732 18.5717 33.9813C18.6165 33.6625 18.7034 33.2915 18.8357 32.8456C19.1618 31.8462 19.5964 30.6531 20.141 29.2548C21.6589 25.4732 24.4392 23.8662 28.4705 24.4321C29.5638 24.5855 30.529 24.9068 31.3417 25.4041C32.1576 25.8786 32.7642 26.5212 33.1629 27.3204C33.5633 28.1081 33.6939 28.9974 33.5548 29.9881C33.5133 30.2842 33.4264 30.6552 33.2941 31.1012C32.9003 32.3349 32.4755 33.541 32.0002 34.6935C31.2257 36.5705 30.1654 37.9197 28.7996 38.715C27.4468 39.5006 25.7414 39.7373 23.6916 39.4495ZM24.4307 36.4179C25.2279 36.5298 25.9333 36.385 26.5569 35.9964C27.1918 35.6095 27.7025 34.9496 28.0791 34.0038C28.598 32.7064 29.0116 31.5799 29.3231 30.6018C29.4216 30.3137 29.4989 30.011 29.5437 29.6922C29.7259 28.3939 29.1452 27.6505 27.79 27.4603C26.9928 27.3484 26.276 27.4916 25.641 27.8786C25.0175 28.2671 24.5182 28.9286 24.1416 29.8744C23.7454 30.7942 23.3318 31.9206 22.8748 33.2732C22.7779 33.5499 22.7022 33.8412 22.6574 34.1601C22.4606 35.4795 23.0642 36.2261 24.4307 36.4179Z" fill="white"/>
<path d="M33.0809 40.5589C32.9215 40.5365 32.814 40.475 32.7373 40.3597C32.685 40.2362 32.6798 40.1078 32.7233 39.9629L37.6231 26.4837C37.6683 26.3274 37.7656 26.2134 37.9166 26.1301C38.0563 26.0451 38.1993 26.0188 38.3474 26.0396L44.0299 26.8373C45.6129 27.0595 46.8306 27.5672 47.696 28.3506C48.5713 29.1469 48.9283 30.1609 48.754 31.4022C48.7045 31.7552 48.6062 32.1246 48.4721 32.5006C47.8889 34.0909 47.002 35.1973 45.7985 35.8296C44.6177 36.4651 43.0943 36.6461 41.2267 36.3839L38.3455 35.9795L36.7091 40.5224C36.6526 40.6771 36.5667 40.7927 36.4156 40.8761C36.276 40.961 36.1329 40.9873 35.9849 40.9665L33.0809 40.5589ZM41.7887 33.4552C42.3923 33.5399 42.9271 33.4525 43.4176 33.1846C43.9195 32.9182 44.2811 32.4929 44.5155 31.8987C44.5946 31.666 44.6478 31.4528 44.6734 31.2706C44.7309 30.8606 44.6504 30.5242 44.4416 30.2743C44.2345 30.0129 43.8291 29.8399 43.2483 29.7584L40.686 29.3987L39.3403 33.1115L41.7887 33.4552Z" fill="white"/>
</g>
<rect x="11.0291" y="3.83558" width="51.7482" height="51.7482" rx="11.4997" transform="rotate(7.9908 11.0291 3.83558)" stroke="white" stroke-width="3.8332"/>
</g>
<defs>
<filter id="filter0_f_455_13766" x="0.404297" y="0.404297" width="65.3018" height="65.3027" filterUnits="userSpaceOnUse" color-interpolation-filters="sRGB">
<feFlood flood-opacity="0" result="BackgroundImageFix"/>
<feBlend mode="normal" in="SourceGraphic" in2="BackgroundImageFix" result="shape"/>
<feGaussianBlur stdDeviation="1.5" result="effect1_foregroundBlur_455_13766"/>
</filter>
<clipPath id="clip0_455_13766">
<rect x="12.6606" y="6" width="47.915" height="47.915" rx="9.58308" transform="rotate(7.9908 12.6606 6)" fill="white"/>
</clipPath>
</defs>
</svg>
