<svg width="70" height="70" viewBox="0 0 70 70" fill="none" xmlns="http://www.w3.org/2000/svg">
<g filter="url(#filter0_f_455_13770)">
<g clip-path="url(#clip0_455_13770)">
<rect width="49.9994" height="50" rx="10" transform="matrix(0.982923 -0.184019 0.184016 0.982923 6 15.2012)" fill="#8345E6"/>
<path d="M41.7359 28.7126C41.1318 28.4938 40.4245 28.6262 39.8862 29.0589L36.1027 32.3117L33.5194 34.4548L29.7361 37.7074C29.252 38.1299 28.5448 38.2623 27.8863 38.0538L24.153 36.7613C23.5489 36.5426 23.0581 36.0261 22.938 35.3848L22.2277 31.5905C22.1076 30.9492 22.324 30.3002 22.8624 29.8675L25.8309 27.3758C26.315 26.9533 27.0222 26.8209 27.6807 27.0295L31.3496 28.2786C31.9536 28.4974 32.4445 29.0139 32.5646 29.6552L33.0248 32.1135L35.5981 29.917L35.1379 27.4587C35.0178 26.8174 34.5814 26.2907 33.9229 26.0821L27.1148 23.7059C26.5107 23.4872 25.8035 23.6196 25.265 24.0523L19.6688 28.7507C19.1304 29.1834 18.914 29.8323 19.0341 30.4736L20.3647 37.5813C20.4847 38.2225 20.9212 38.7493 21.5797 38.9579L28.4966 41.3137C29.1007 41.5325 29.8079 41.4 30.3464 40.9674L34.1397 37.768L36.713 35.5716L40.5065 32.3722C40.9904 31.9497 41.6977 31.8173 42.3562 32.0259L46.0251 33.275C46.6291 33.4938 47.12 34.0104 47.2401 34.6517L47.9504 38.4459C48.0705 39.0873 47.8541 39.7362 47.3157 40.1689L44.3572 42.7141C43.8731 43.1366 43.1658 43.269 42.5074 43.0604L38.8386 41.8113C38.2344 41.5925 37.7435 41.0759 37.6235 40.4347L37.1632 37.9764L34.5899 40.1729L35.0501 42.6311C35.1702 43.2724 35.6067 43.7992 36.2651 44.0078L43.1821 46.3635C43.7861 46.5823 44.4934 46.4499 45.0318 46.0172L50.6281 41.3188C51.1121 40.8963 51.3829 40.2371 51.2629 39.5959L49.9322 32.4882C49.8122 31.8469 49.3756 31.3203 48.7172 31.1117L41.7359 28.7126Z" fill="white"/>
</g>
<rect x="-2.33386" y="-1.5978" width="53.9994" height="54" rx="12" transform="matrix(0.982923 -0.184019 0.184016 0.982923 6.25416 14.7444)" stroke="white" stroke-width="3.99998"/>
</g>
<defs>
<filter id="filter0_f_455_13770" x="0.666992" y="0.667969" width="69.0122" height="69.0117" filterUnits="userSpaceOnUse" color-interpolation-filters="sRGB">
<feFlood flood-opacity="0" result="BackgroundImageFix"/>
<feBlend mode="normal" in="SourceGraphic" in2="BackgroundImageFix" result="shape"/>
<feGaussianBlur stdDeviation="1.5" result="effect1_foregroundBlur_455_13770"/>
</filter>
<clipPath id="clip0_455_13770">
<rect width="49.9994" height="50" rx="10" transform="matrix(0.982923 -0.184019 0.184016 0.982923 6 15.2012)" fill="white"/>
</clipPath>
</defs>
</svg>
